Monoto-CondensedBold.ufo
<glyph name="quotedbl" format="2">
  <advance width="300"/>
  <unicode hex="0022"/>
  <outline>
    <contour>
      <point x="173" y="456" type="line"/>
      <point x="261" y="456" type="line"/>
      <point x="278" y="714" type="line"/>
      <point x="155" y="714" type="line"/>
    </contour>
    <contour>
      <point x="37" y="456" type="line"/>
      <point x="125" y="456" type="line"/>
      <point x="143" y="714" type="line"/>
      <point x="20" y="714" type="line"/>
    </contour>
  </outline>
</glyph>
<glyph name="numbersign" format="2">
  <advance width="300"/>
  <unicode hex="0023"/>
  <outline>
    <contour>
      <point x="42" y="0" type="line"/>
      <point x="118" y="0" type="line"/>
      <point x="127" y="207" type="line"/>
      <point x="148" y="207" type="line"/>
      <point x="137" y="0" type="line"/>
      <point x="214" y="0" type="line"/>
      <point x="225" y="207" type="line"/>
      <point x="268" y="207" type="line"/>
      <point x="268" y="289" type="line"/>
      <point x="234" y="289" type="line"/>
      <point x="237" y="435" type="line"/>
      <point x="276" y="435" type="line"/>
      <point x="276" y="518" type="line"/>
      <point x="247" y="518" type="line"/>
      <point x="258" y="714" type="line"/>
      <point x="182" y="714" type="line"/>
      <point x="172" y="518" type="line"/>
      <point x="151" y="518" type="line"/>
      <point x="163" y="714" type="line"/>
      <point x="86" y="714" type="line"/>
      <point x="76" y="518" type="line"/>
      <point x="32" y="518" type="line"/>
      <point x="32" y="435" type="line"/>
      <point x="65" y="435" type="line"/>
      <point x="63" y="289" type="line"/>
      <point x="23" y="289" type="line"/>
      <point x="23" y="207" type="line"/>
      <point x="53" y="207" type="line"/>
    </contour>
    <contour>
      <point x="139" y="289" type="line"/>
      <point x="141" y="435" type="line"/>
      <point x="161" y="435" type="line"/>
      <point x="158" y="289" type="line"/>
    </contour>
  </outline>
</glyph>
<glyph name="dollar" format="2">
  <advance width="300"/>
  <unicode hex="0024"/>
  <outline>
    <contour>
      <point x="132" y="-58" type="line"/>
      <point x="173" y="-58" type="line"/>
      <point x="173" y="41" type="line"/>
      <point x="229" y="57"/>
      <point x="260" y="124"/>
      <point x="260" y="216" type="curve" smooth="yes"/>
      <point x="260" y="308"/>
      <point x="234" y="354"/>
      <point x="173" y="397" type="curve"/>
      <point x="173" y="609" type="line"/>
      <point x="194" y="605"/>
      <point x="215" y="596"/>
      <point x="234" y="577" type="curve"/>
      <point x="253" y="651" type="line"/>
      <point x="228" y="673"/>
      <point x="201" y="685"/>
      <point x="173" y="688" type="curve"/>
      <point x="173" y="760" type="line"/>
      <point x="132" y="760" type="line"/>
      <point x="132" y="687" type="line"/>
      <point x="77" y="677"/>
      <point x="40" y="615"/>
      <point x="40" y="520" type="curve" smooth="yes"/>
      <point x="40" y="425"/>
      <point x="65" y="376"/>
      <point x="132" y="331" type="curve"/>
      <point x="132" y="114" type="line"/>
      <point x="102" y="116"/>
      <point x="70" y="136"/>
      <point x="45" y="161" type="curve"/>
      <point x="45" y="72" type="line"/>
      <point x="71" y="52"/>
      <point x="103" y="38"/>
      <point x="132" y="37" type="curve"/>
    </contour>
    <contour>
      <point x="173" y="119" type="curve"/>
      <point x="173" y="310" type="line"/>
      <point x="185" y="285"/>
      <point x="189" y="258"/>
      <point x="189" y="210" type="curve" smooth="yes"/>
      <point x="189" y="165"/>
      <point x="188" y="130"/>
    </contour>
    <contour>
      <point x="132" y="420" type="line"/>
      <point x="113" y="447"/>
      <point x="112" y="469"/>
      <point x="112" y="520" type="curve" smooth="yes"/>
      <point x="112" y="567"/>
      <point x="114" y="601"/>
      <point x="132" y="608" type="curve"/>
    </contour>
  </outline>
</glyph>
<glyph name="asterisk" format="2">
  <advance width="300"/>
  <unicode hex="002A"/>
  <outline>
    <contour>
      <point x="172" y="383" type="line"/>
      <point x="259" y="442" type="line"/>
      <point x="212" y="552" type="line"/>
      <point x="270" y="565" type="line"/>
      <point x="248" y="667" type="line"/>
      <point x="190" y="624" type="line"/>
      <point x="206" y="762" type="line"/>
      <point x="99" y="762" type="line"/>
      <point x="115" y="624" type="line"/>
      <point x="58" y="667" type="line"/>
      <point x="36" y="564" type="line"/>
      <point x="92" y="552" type="line"/>
      <point x="47" y="442" type="line"/>
      <point x="132" y="383" type="line"/>
      <point x="152" y="509" type="line"/>
    </contour>
  </outline>
</glyph>
<glyph name="plus" format="2">
  <advance width="300"/>
  <unicode hex="002B"/>
  <outline>
    <contour>
      <point x="108" y="116" type="line"/>
      <point x="199" y="116" type="line"/>
      <point x="199" y="307" type="line"/>
      <point x="263" y="307" type="line"/>
      <point x="263" y="400" type="line"/>
      <point x="199" y="400" type="line"/>
      <point x="199" y="592" type="line"/>
      <point x="108" y="592" type="line"/>
      <point x="108" y="400" type="line"/>
      <point x="44" y="400" type="line"/>
      <point x="44" y="307" type="line"/>
      <point x="108" y="307" type="line"/>
    </contour>
  </outline>
</glyph>
<glyph name="hyphen" format="2">
  <advance width="300"/>
  <unicode hex="002D"/>
  <outline>
    <contour>
      <point x="79" y="216" type="line"/>
      <point x="219" y="216" type="line"/>
      <point x="219" y="325" type="line"/>
      <point x="79" y="325" type="line"/>
    </contour>
  </outline>
</glyph>
<glyph name="period" format="2">
  <advance width="300"/>
  <unicode hex="002E"/>
  <outline>
    <contour>
      <point x="150" y="-12" type="curve" smooth="yes"/>
      <point x="185" y="-12"/>
      <point x="212" y="15"/>
      <point x="212" y="66" type="curve" smooth="yes"/>
      <point x="212" y="118"/>
      <point x="186" y="142"/>
      <point x="150" y="142" type="curve" smooth="yes"/>
      <point x="114" y="142"/>
      <point x="88" y="116"/>
      <point x="88" y="66" type="curve" smooth="yes"/>
      <point x="88" y="15"/>
      <point x="115" y="-12"/>
    </contour>
  </outline>
</glyph>
<glyph name="one" format="2">
  <advance width="300"/>
  <unicode hex="0031"/>
  <outline>
    <contour>
      <point x="105" y="0" type="line"/>
      <point x="225" y="0" type="line"/>
      <point x="225" y="714" type="line"/>
      <point x="126" y="714" type="line"/>
      <point x="9" y="594" type="line"/>
      <point x="64" y="500" type="line"/>
      <point x="79" y="535" type="line" smooth="yes"/>
      <point x="87" y="553"/>
      <point x="97" y="562"/>
      <point x="108" y="578" type="curve"/>
      <point x="107" y="534"/>
      <point x="105" y="462"/>
      <point x="105" y="413" type="curve" smooth="yes"/>
    </contour>
    <contour>
      <point x="31" y="0" type="line"/>
      <point x="288" y="0" type="line"/>
      <point x="288" y="89" type="line"/>
      <point x="225" y="100" type="line"/>
      <point x="106" y="100" type="line"/>
      <point x="31" y="89" type="line"/>
    </contour>
  </outline>
</glyph>
<glyph name="two" format="2">
  <advance width="300"/>
  <unicode hex="0032"/>
  <outline>
    <contour>
      <point x="26" y="0" type="line"/>
      <point x="268" y="0" type="line"/>
      <point x="268" y="113" type="line"/>
      <point x="175" y="113" type="line"/>
      <point x="174" y="118" type="line"/>
      <point x="201" y="236" type="line" smooth="yes"/>
      <point x="229" y="359"/>
      <point x="264" y="430"/>
      <point x="264" y="526" type="curve" smooth="yes"/>
      <point x="264" y="652"/>
      <point x="215" y="724"/>
      <point x="141" y="724" type="curve" smooth="yes"/>
      <point x="83" y="724"/>
      <point x="44" y="692"/>
      <point x="5" y="627" type="curve"/>
      <point x="66" y="544" type="line"/>
      <point x="88" y="588"/>
      <point x="106" y="615"/>
      <point x="128" y="615" type="curve" smooth="yes"/>
      <point x="138" y="615"/>
      <point x="140" y="580"/>
      <point x="140" y="519" type="curve" smooth="yes"/>
      <point x="140" y="445"/>
      <point x="116" y="387"/>
      <point x="82" y="281" type="curve" smooth="yes"/>
      <point x="25" y="97" type="line"/>
    </contour>
  </outline>
</glyph>
<glyph name="five" format="2">
  <advance width="300"/>
  <unicode hex="0035"/>
  <outline>
    <contour>
      <point x="121" y="-10" type="curve" smooth="yes"/>
      <point x="215" y="-10"/>
      <point x="261" y="81"/>
      <point x="261" y="231" type="curve" smooth="yes"/>
      <point x="261" y="372"/>
      <point x="215" y="453"/>
      <point x="165" y="453" type="curve" smooth="yes"/>
      <point x="172" y="453"/>
      <point x="167" y="449"/>
      <point x="152" y="443" type="curve"/>
      <point x="152" y="601" type="line"/>
      <point x="240" y="601" type="line"/>
      <point x="240" y="714" type="line"/>
      <point x="46" y="714" type="line"/>
      <point x="36" y="362" type="line"/>
      <point x="78" y="331" type="line"/>
      <point x="87" y="339"/>
      <point x="99" y="346"/>
      <point x="103" y="346" type="curve" smooth="yes"/>
      <point x="118" y="346"/>
      <point x="133" y="303"/>
      <point x="133" y="225" type="curve" smooth="yes"/>
      <point x="133" y="140"/>
      <point x="126" y="99"/>
      <point x="114" y="99" type="curve" smooth="yes"/>
      <point x="96" y="99"/>
      <point x="62" y="117"/>
      <point x="33" y="145" type="curve"/>
      <point x="33" y="28" type="line"/>
      <point x="59" y="3"/>
      <point x="89" y="-10"/>
    </contour>
  </outline>
</glyph>
<glyph name="six" format="2">
  <advance width="300"/>
  <unicode hex="0036"/>
  <outline>
    <contour>
      <point x="154" y="-10" type="curve" smooth="yes"/>
      <point x="228" y="-10"/>
      <point x="273" y="84"/>
      <point x="273" y="232" type="curve" smooth="yes"/>
      <point x="273" y="373"/>
      <point x="238" y="456"/>
      <point x="185" y="456" type="curve" smooth="yes"/>
      <point x="164" y="456"/>
      <point x="147" y="421"/>
      <point x="131" y="371" type="curve"/>
      <point x="128" y="371" type="line"/>
      <point x="130" y="525"/>
      <point x="146" y="634"/>
      <point x="209" y="634" type="curve" smooth="yes"/>
      <point x="223" y="634"/>
      <point x="238" y="630"/>
      <point x="252" y="623" type="curve"/>
      <point x="252" y="716" type="line"/>
      <point x="235" y="721"/>
      <point x="217" y="724"/>
      <point x="200" y="724" type="curve" smooth="yes"/>
      <point x="53" y="724"/>
      <point x="29" y="528"/>
      <point x="29" y="309" type="curve" smooth="yes"/>
      <point x="29" y="94"/>
      <point x="83" y="-10"/>
    </contour>
    <contour>
      <point x="153" y="83" type="curve" smooth="yes"/>
      <point x="146" y="83"/>
      <point x="134" y="168"/>
      <point x="134" y="243" type="curve" smooth="yes"/>
      <point x="134" y="312"/>
      <point x="145" y="367"/>
      <point x="154" y="367" type="curve" smooth="yes"/>
      <point x="163" y="367"/>
      <point x="169" y="317"/>
      <point x="169" y="230" type="curve" smooth="yes"/>
      <point x="169" y="132"/>
      <point x="160" y="83"/>
    </contour>
  </outline>
</glyph>
<glyph name="colon" format="2">
  <advance width="300"/>
  <unicode hex="003A"/>
  <outline>
    <contour>
      <point x="151" y="397" type="curve" smooth="yes"/>
      <point x="185" y="397"/>
      <point x="212" y="423"/>
      <point x="212" y="474" type="curve" smooth="yes"/>
      <point x="212" y="525"/>
      <point x="187" y="551"/>
      <point x="151" y="551" type="curve" smooth="yes"/>
      <point x="114" y="551"/>
      <point x="88" y="525"/>
      <point x="88" y="474" type="curve" smooth="yes"/>
      <point x="88" y="424"/>
      <point x="115" y="397"/>
    </contour>
    <contour>
      <point x="151" y="-12" type="curve" smooth="yes"/>
      <point x="185" y="-12"/>
      <point x="212" y="15"/>
      <point x="212" y="66" type="curve" smooth="yes"/>
      <point x="212" y="118"/>
      <point x="186" y="142"/>
      <point x="151" y="142" type="curve" smooth="yes"/>
      <point x="114" y="142"/>
      <point x="88" y="116"/>
      <point x="88" y="66" type="curve" smooth="yes"/>
      <point x="88" y="15"/>
      <point x="115" y="-12"/>
    </contour>
  </outline>
</glyph>
<glyph name="semicolon" format="2">
  <advance width="300"/>
  <unicode hex="003B"/>
  <outline>
    <contour>
      <point x="80" y="-134" type="curve" smooth="yes"/>
      <point x="170" y="-134" type="line"/>
      <point x="187" y="-62"/>
      <point x="204" y="25"/>
      <point x="216" y="116" type="curve"/>
      <point x="211" y="127" type="line"/>
      <point x="99" y="127" type="line"/>
      <point x="96" y="54"/>
      <point x="83" y="-134"/>
    </contour>
    <contour>
      <point x="151" y="397" type="curve" smooth="yes"/>
      <point x="186" y="397"/>
      <point x="214" y="423"/>
      <point x="214" y="474" type="curve" smooth="yes"/>
      <point x="214" y="525"/>
      <point x="189" y="551"/>
      <point x="151" y="551" type="curve" smooth="yes"/>
      <point x="112" y="551"/>
      <point x="86" y="525"/>
      <point x="86" y="474" type="curve" smooth="yes"/>
      <point x="86" y="424"/>
      <point x="114" y="397"/>
    </contour>
  </outline>
</glyph>
<glyph name="equal" format="2">
  <advance width="300"/>
  <unicode hex="003D"/>
  <outline>
    <contour>
      <point x="38" y="404" type="line"/>
      <point x="262" y="404" type="line"/>
      <point x="262" y="508" type="line"/>
      <point x="38" y="508" type="line"/>
    </contour>
    <contour>
      <point x="38" y="191" type="line"/>
      <point x="262" y="191" type="line"/>
      <point x="262" y="295" type="line"/>
      <point x="38" y="295" type="line"/>
    </contour>
  </outline>
</glyph>
<glyph name="at" format="2">
  <advance width="300"/>
  <unicode hex="0040"/>
  <outline>
    <contour>
      <point x="154" y="-87" type="curve" smooth="yes"/>
      <point x="179" y="-87"/>
      <point x="205" y="-73"/>
      <point x="232" y="-45" type="curve"/>
      <point x="232" y="28" type="line"/>
      <point x="203" y="-1"/>
      <point x="179" y="-15"/>
      <point x="158" y="-15" type="curve" smooth="yes"/>
      <point x="90" y="-15"/>
      <point x="77" y="110"/>
      <point x="77" y="295" type="curve" smooth="yes"/>
      <point x="77" y="515"/>
      <point x="109" y="642"/>
      <point x="158" y="642" type="curve" smooth="yes"/>
      <point x="199" y="642"/>
      <point x="224" y="544"/>
      <point x="224" y="360" type="curve" smooth="yes"/>
      <point x="224" y="248"/>
      <point x="224" y="177"/>
      <point x="223" y="177" type="curve" smooth="yes"/>
      <point x="225" y="177"/>
      <point x="227" y="205"/>
      <point x="227" y="257" type="curve" smooth="yes"/>
      <point x="227" y="266"/>
      <point x="225" y="283"/>
      <point x="226" y="296" type="curve" smooth="yes"/>
      <point x="233" y="500" type="line"/>
      <point x="219" y="513"/>
      <point x="194" y="524"/>
      <point x="169" y="524" type="curve" smooth="yes"/>
      <point x="112" y="524"/>
      <point x="71" y="436"/>
      <point x="71" y="299" type="curve" smooth="yes"/>
      <point x="71" y="180"/>
      <point x="97" y="107"/>
      <point x="136" y="107" type="curve" smooth="yes"/>
      <point x="152" y="107"/>
      <point x="167" y="132"/>
      <point x="175" y="171" type="curve"/>
      <point x="177" y="171" type="line"/>
      <point x="186" y="131"/>
      <point x="200" y="107"/>
      <point x="219" y="107" type="curve" smooth="yes"/>
      <point x="270" y="107"/>
      <point x="290" y="224"/>
      <point x="290" y="363" type="curve" smooth="yes"/>
      <point x="290" y="585"/>
      <point x="241" y="714"/>
      <point x="158" y="714" type="curve" smooth="yes"/>
      <point x="66" y="714"/>
      <point x="10" y="558"/>
      <point x="10" y="291" type="curve" smooth="yes"/>
      <point x="10" y="55"/>
      <point x="51" y="-87"/>
    </contour>
    <contour>
      <point x="154" y="177" type="curve" smooth="yes"/>
      <point x="149" y="177"/>
      <point x="145" y="220"/>
      <point x="145" y="297" type="curve" smooth="yes"/>
      <point x="145" y="395"/>
      <point x="153" y="454"/>
      <point x="163" y="454" type="curve" smooth="yes"/>
      <point x="164" y="454"/>
      <point x="161" y="452"/>
      <point x="159" y="447" type="curve"/>
      <point x="156" y="333" type="line" smooth="yes"/>
      <point x="153" y="221"/>
      <point x="158" y="177"/>
    </contour>
  </outline>
</glyph>
<glyph name="A" format="2">
  <advance width="300"/>
  <unicode hex="0041"/>
  <anchor x="150" y="0" name="bottom"/>
  <anchor x="262" y="10" name="ogonek"/>
  <anchor x="150" y="714" name="top"/>
  <anchor x="279" y="714" name="topright"/>
  <outline>
    <contour>
      <point x="13" y="0" type="line"/>
      <point x="128" y="0" type="line"/>
      <point x="139" y="487" type="line" smooth="yes"/>
      <point x="140" y="527"/>
      <point x="148" y="583"/>
      <point x="150" y="620" type="curve"/>
      <point x="150" y="583"/>
      <point x="159" y="528"/>
      <point x="160" y="487" type="curve" smooth="yes"/>
      <point x="174" y="0" type="line"/>
      <point x="287" y="0" type="line"/>
      <point x="231" y="715" type="line"/>
      <point x="65" y="715" type="line"/>
    </contour>
    <contour>
      <point x="86" y="191" type="line"/>
      <point x="225" y="191" type="line"/>
      <point x="230" y="296" type="line"/>
      <point x="82" y="296" type="line"/>
    </contour>
  </outline>
</glyph>
<glyph name="C" format="2">
  <advance width="300"/>
  <unicode hex="0043"/>
  <anchor x="174" y="0" name="bottom"/>
  <anchor x="175" y="714" name="top"/>
  <anchor x="278" y="714" name="topright"/>
  <outline>
    <contour>
      <point x="171" y="-10" type="curve" smooth="yes"/>
      <point x="204" y="-10"/>
      <point x="233" y="0"/>
      <point x="264" y="23" type="curve"/>
      <point x="264" y="133" type="line"/>
      <point x="235" y="113"/>
      <point x="214" y="98"/>
      <point x="192" y="98" type="curve" smooth="yes"/>
      <point x="153" y="98"/>
      <point x="135" y="192"/>
      <point x="135" y="354" type="curve" smooth="yes"/>
      <point x="135" y="509"/>
      <point x="153" y="618"/>
      <point x="191" y="618" type="curve" smooth="yes"/>
      <point x="213" y="618"/>
      <point x="233" y="607"/>
      <point x="249" y="582" type="curve"/>
      <point x="285" y="681" type="line"/>
      <point x="255" y="710"/>
      <point x="224" y="726"/>
      <point x="176" y="726" type="curve" smooth="yes"/>
      <point x="77" y="726"/>
      <point x="17" y="571"/>
      <point x="17" y="350" type="curve" smooth="yes"/>
      <point x="17" y="125"/>
      <point x="69" y="-10"/>
    </contour>
  </outline>
</glyph>
<glyph name="D" format="2">
  <advance width="300"/>
  <unicode hex="0044"/>
  <anchor x="153" y="0" name="bottom"/>
  <anchor x="156" y="357" name="center"/>
  <anchor x="146" y="714" name="top"/>
  <anchor x="290" y="714" name="topright"/>
  <outline>
    <contour>
      <point x="14" y="0" type="line"/>
      <point x="153" y="0" type="line" smooth="yes"/>
      <point x="227" y="0"/>
      <point x="294" y="133"/>
      <point x="294" y="369" type="curve" smooth="yes"/>
      <point x="294" y="587"/>
      <point x="238" y="714"/>
      <point x="160" y="714" type="curve" smooth="yes"/>
      <point x="14" y="714" type="line"/>
    </contour>
    <contour>
      <point x="129" y="109" type="line"/>
      <point x="129" y="605" type="line"/>
      <point x="145" y="605" type="line" smooth="yes"/>
      <point x="160" y="605"/>
      <point x="175" y="532"/>
      <point x="175" y="362" type="curve" smooth="yes"/>
      <point x="175" y="202"/>
      <point x="164" y="109"/>
      <point x="143" y="109" type="curve" smooth="yes"/>
    </contour>
  </outline>
</glyph>
<glyph name="F" format="2">
  <advance width="300"/>
  <unicode hex="0046"/>
  <anchor x="154" y="0" name="bottom"/>
  <anchor x="156" y="714" name="top"/>
  <anchor x="279" y="714" name="topright"/>
  <outline>
    <contour>
      <point x="20" y="0" type="line"/>
      <point x="137" y="0" type="line"/>
      <point x="137" y="285" type="line"/>
      <point x="278" y="285" type="line"/>
      <point x="278" y="394" type="line"/>
      <point x="137" y="394" type="line"/>
      <point x="137" y="605" type="line"/>
      <point x="286" y="605" type="line"/>
      <point x="286" y="714" type="line"/>
      <point x="20" y="714" type="line"/>
    </contour>
  </outline>
</glyph>
<glyph name="H" format="2">
  <advance width="300"/>
  <unicode hex="0048"/>
  <anchor x="150" y="0" name="bottom"/>
  <anchor x="150" y="370" name="center"/>
  <anchor x="150" y="714" name="top"/>
  <anchor x="22" y="714" name="topleft"/>
  <anchor x="290" y="714" name="topright"/>
  <outline>
    <contour>
      <point x="14" y="0" type="line"/>
      <point x="130" y="0" type="line"/>
      <point x="130" y="314" type="line"/>
      <point x="171" y="314" type="line"/>
      <point x="171" y="0" type="line"/>
      <point x="286" y="0" type="line"/>
      <point x="286" y="714" type="line"/>
      <point x="171" y="714" type="line"/>
      <point x="171" y="423" type="line"/>
      <point x="130" y="423" type="line"/>
      <point x="130" y="714" type="line"/>
      <point x="14" y="714" type="line"/>
    </contour>
  </outline>
</glyph>
<glyph name="K" format="2">
  <advance width="300"/>
  <unicode hex="004B"/>
  <anchor x="154" y="0" name="bottom"/>
  <anchor x="151" y="714" name="top"/>
  <anchor x="279" y="714" name="topright"/>
  <outline>
    <contour>
      <point x="19" y="0" type="line"/>
      <point x="119" y="0" type="line"/>
      <point x="119" y="250" type="line"/>
      <point x="141" y="312" type="line"/>
      <point x="182" y="0" type="line"/>
      <point x="297" y="0" type="line"/>
      <point x="218" y="393" type="line"/>
      <point x="294" y="714" type="line"/>
      <point x="183" y="714" type="line"/>
      <point x="154" y="479" type="line" smooth="yes"/>
      <point x="148" y="432"/>
      <point x="130" y="396"/>
      <point x="119" y="362" type="curve"/>
      <point x="119" y="714" type="line"/>
      <point x="19" y="714" type="line"/>
    </contour>
  </outline>
</glyph>
<glyph name="L" format="2">
  <advance width="300"/>
  <unicode hex="004C"/>
  <anchor x="166" y="0" name="bottom"/>
  <anchor x="150" y="357" name="center"/>
  <anchor x="91" y="714" name="top"/>
  <anchor x="221" y="714" name="topright"/>
  <outline>
    <contour>
      <point x="32" y="0" type="line"/>
      <point x="285" y="0" type="line"/>
      <point x="285" y="110" type="line"/>
      <point x="149" y="110" type="line"/>
      <point x="149" y="714" type="line"/>
      <point x="32" y="714" type="line"/>
    </contour>
  </outline>
</glyph>
<glyph name="O" format="2">
  <advance width="300"/>
  <unicode hex="004F"/>
  <anchor x="150" y="0" name="bottom"/>
  <anchor x="150" y="357" name="center"/>
  <anchor x="159" y="10" name="ogonek"/>
  <anchor x="150" y="714" name="top"/>
  <anchor x="22" y="714" name="topleft"/>
  <anchor x="290" y="714" name="topright"/>
  <outline>
    <contour>
      <point x="150" y="-9" type="curve" smooth="yes"/>
      <point x="246" y="-9"/>
      <point x="294" y="138"/>
      <point x="294" y="358" type="curve" smooth="yes"/>
      <point x="294" y="579"/>
      <point x="250" y="726"/>
      <point x="149" y="726" type="curve" smooth="yes"/>
      <point x="43" y="726"/>
      <point x="6" y="593"/>
      <point x="6" y="360" type="curve" smooth="yes"/>
      <point x="6" y="140"/>
      <point x="53" y="-9"/>
    </contour>
    <contour>
      <point x="151" y="100" type="curve" smooth="yes"/>
      <point x="127" y="100"/>
      <point x="125" y="196"/>
      <point x="125" y="359" type="curve" smooth="yes"/>
      <point x="125" y="522"/>
      <point x="126" y="617"/>
      <point x="150" y="617" type="curve" smooth="yes"/>
      <point x="173" y="617"/>
      <point x="176" y="528"/>
      <point x="176" y="358" type="curve" smooth="yes"/>
      <point x="176" y="196"/>
      <point x="175" y="100"/>
    </contour>
  </outline>
</glyph>
<glyph name="R" format="2">
  <advance width="300"/>
  <unicode hex="0052"/>
  <anchor x="154" y="0" name="bottom"/>
  <anchor x="150" y="714" name="top"/>
  <anchor x="278" y="714" name="topright"/>
  <outline>
    <contour>
      <point x="28" y="0" type="line"/>
      <point x="125" y="0" type="line"/>
      <point x="125" y="286" type="line"/>
      <point x="139" y="286" type="line"/>
      <point x="182" y="0" type="line"/>
      <point x="289" y="0" type="line"/>
      <point x="224" y="313" type="line"/>
      <point x="254" y="343"/>
      <point x="268" y="404"/>
      <point x="268" y="509" type="curve" smooth="yes"/>
      <point x="268" y="647"/>
      <point x="225" y="714"/>
      <point x="135" y="714" type="curve" smooth="yes"/>
      <point x="28" y="714" type="line"/>
    </contour>
    <contour>
      <point x="125" y="377" type="line"/>
      <point x="125" y="623" type="line"/>
      <point x="135" y="623" type="line" smooth="yes"/>
      <point x="159" y="623"/>
      <point x="171" y="588"/>
      <point x="171" y="504" type="curve" smooth="yes"/>
      <point x="171" y="420"/>
      <point x="162" y="377"/>
      <point x="131" y="377" type="curve" smooth="yes"/>
    </contour>
  </outline>
</glyph>
<glyph name="T" format="2">
  <advance width="300"/>
  <unicode hex="0054"/>
  <anchor x="150" y="0" name="bottom"/>
  <anchor x="150" y="357" name="center"/>
  <anchor x="150" y="714" name="top"/>
  <anchor x="278" y="714" name="topright"/>
  <outline>
    <contour>
      <point x="92" y="0" type="line"/>
      <point x="208" y="0" type="line"/>
      <point x="208" y="605" type="line"/>
      <point x="286" y="605" type="line"/>
      <point x="286" y="714" type="line"/>
      <point x="13" y="714" type="line"/>
      <point x="13" y="605" type="line"/>
      <point x="92" y="605" type="line"/>
    </contour>
  </outline>
</glyph>
<glyph name="U" format="2">
  <advance width="300"/>
  <unicode hex="0055"/>
  <anchor x="150" y="0" name="bottom"/>
  <anchor x="262" y="10" name="ogonek"/>
  <anchor x="150" y="714" name="top"/>
  <anchor x="279" y="714" name="topright"/>
  <outline>
    <contour>
      <point x="151" y="-10" type="curve" smooth="yes"/>
      <point x="259" y="-10"/>
      <point x="286" y="73"/>
      <point x="286" y="250" type="curve" smooth="yes"/>
      <point x="286" y="714" type="line"/>
      <point x="169" y="714" type="line"/>
      <point x="169" y="258" type="line" smooth="yes"/>
      <point x="169" y="147"/>
      <point x="179" y="99"/>
      <point x="150" y="99" type="curve" smooth="yes"/>
      <point x="127" y="99"/>
      <point x="131" y="144"/>
      <point x="131" y="257" type="curve" smooth="yes"/>
      <point x="131" y="714" type="line"/>
      <point x="14" y="714" type="line"/>
      <point x="14" y="248" type="line" smooth="yes"/>
      <point x="14" y="72"/>
      <point x="48" y="-10"/>
    </contour>
  </outline>
</glyph>
<glyph name="X" format="2">
  <advance width="300"/>
  <unicode hex="0058"/>
  <anchor x="147" y="0" name="bottom"/>
  <anchor x="147" y="714" name="top"/>
  <anchor x="279" y="714" name="topright"/>
  <outline>
    <contour>
      <point x="9" y="0" type="line"/>
      <point x="117" y="0" type="line"/>
      <point x="145" y="281" type="line"/>
      <point x="178" y="0" type="line"/>
      <point x="292" y="0" type="line"/>
      <point x="209" y="367" type="line"/>
      <point x="284" y="714" type="line"/>
      <point x="173" y="714" type="line"/>
      <point x="149" y="458" type="line"/>
      <point x="122" y="714" type="line"/>
      <point x="9" y="714" type="line"/>
      <point x="85" y="369" type="line"/>
    </contour>
  </outline>
</glyph>
<glyph name="Y" format="2">
  <advance width="300"/>
  <unicode hex="0059"/>
  <anchor x="148" y="0" name="bottom"/>
  <anchor x="148" y="714" name="top"/>
  <anchor x="19" y="714" name="topleft"/>
  <anchor x="276" y="714" name="topright"/>
  <outline>
    <contour>
      <point x="90" y="0" type="line"/>
      <point x="202" y="0" type="line"/>
      <point x="202" y="275" type="line"/>
      <point x="293" y="714" type="line"/>
      <point x="167" y="714" type="line"/>
      <point x="147" y="397" type="line"/>
      <point x="130" y="714" type="line"/>
      <point x="3" y="714" type="line"/>
      <point x="90" y="275" type="line"/>
    </contour>
  </outline>
</glyph>
<glyph name="bracketleft" format="2">
  <advance width="300"/>
  <unicode hex="005B"/>
  <outline>
    <contour>
      <point x="93" y="-164" type="line"/>
      <point x="235" y="-164" type="line"/>
      <point x="235" y="-74" type="line"/>
      <point x="196" y="-74" type="line"/>
      <point x="196" y="635" type="line"/>
      <point x="235" y="635" type="line"/>
      <point x="235" y="726" type="line"/>
      <point x="93" y="726" type="line"/>
    </contour>
  </outline>
</glyph>
<glyph name="grave" format="2">
  <advance width="300"/>
  <unicode hex="0060"/>
  <outline>
    <contour>
      <point x="121" y="606" type="curve"/>
      <point x="196" y="606" type="line"/>
      <point x="196" y="618" type="line"/>
      <point x="191" y="652"/>
      <point x="174" y="723"/>
      <point x="170" y="766" type="curve"/>
      <point x="45" y="766" type="line"/>
      <point x="45" y="757" type="line"/>
      <point x="55" y="718"/>
      <point x="104" y="639"/>
    </contour>
  </outline>
</glyph>
<glyph name="a" format="2">
  <advance width="300"/>
  <unicode hex="0061"/>
  <anchor x="156" y="0" name="bottom"/>
  <anchor x="262" y="10" name="ogonek"/>
  <anchor x="163" y="545" name="top"/>
  <anchor x="288" y="545" name="topright"/>
  <outline>
    <contour>
      <point x="109" y="-10" type="curve" smooth="yes"/>
      <point x="129" y="-10"/>
      <point x="154" y="19"/>
      <point x="180" y="75" type="curve"/>
      <point x="182" y="75" type="line"/>
      <point x="201" y="0" type="line"/>
      <point x="288" y="0" type="line"/>
      <point x="288" y="371" type="line" smooth="yes"/>
      <point x="288" y="494"/>
      <point x="237" y="555"/>
      <point x="153" y="555" type="curve" smooth="yes"/>
      <point x="103" y="555"/>
      <point x="69" y="537"/>
      <point x="33" y="506" type="curve"/>
      <point x="72" y="413" type="line"/>
      <point x="88" y="434"/>
      <point x="111" y="450"/>
      <point x="138" y="450" type="curve" smooth="yes"/>
      <point x="155" y="450"/>
      <point x="177" y="426"/>
      <point x="177" y="360" type="curve" smooth="yes"/>
      <point x="177" y="337" type="line"/>
      <point x="122" y="334" type="line" smooth="yes"/>
      <point x="59" y="330"/>
      <point x="22" y="276"/>
      <point x="22" y="157" type="curve" smooth="yes"/>
      <point x="22" y="50"/>
      <point x="62" y="-10"/>
    </contour>
    <contour>
      <point x="151" y="96" type="curve" smooth="yes"/>
      <point x="147" y="96"/>
      <point x="134" y="116"/>
      <point x="134" y="166" type="curve" smooth="yes"/>
      <point x="134" y="222"/>
      <point x="141" y="250"/>
      <point x="156" y="252" type="curve" smooth="yes"/>
      <point x="176" y="255" type="line"/>
      <point x="176" y="213" type="line" smooth="yes"/>
      <point x="176" y="133"/>
      <point x="151" y="96"/>
    </contour>
  </outline>
</glyph>
<glyph name="j" format="2">
  <advance width="300"/>
  <unicode hex="006A"/>
  <anchor x="100" y="-245" name="bottom"/>
  <anchor x="170" y="770" name="top"/>
  <anchor x="278" y="770" name="topright"/>
  <outline>
    <contour>
      <point x="106" y="-245" type="curve" smooth="yes"/>
      <point x="203" y="-245"/>
      <point x="236" y="-183"/>
      <point x="236" y="-52" type="curve" smooth="yes"/>
      <point x="236" y="545" type="line"/>
      <point x="37" y="545" type="line"/>
      <point x="37" y="454" type="line"/>
      <point x="121" y="441" type="line"/>
      <point x="121" y="-38" type="line" smooth="yes"/>
      <point x="121" y="-110"/>
      <point x="115" y="-140"/>
      <point x="90" y="-140" type="curve" smooth="yes"/>
      <point x="80" y="-140"/>
      <point x="51" y="-132"/>
      <point x="21" y="-121" type="curve"/>
      <point x="21" y="-225" type="line"/>
      <point x="55" y="-238"/>
      <point x="87" y="-245"/>
    </contour>
    <contour>
      <point x="170" y="621" type="curve" smooth="yes"/>
      <point x="209" y="621"/>
      <point x="236" y="647"/>
      <point x="236" y="695" type="curve" smooth="yes"/>
      <point x="236" y="745"/>
      <point x="210" y="770"/>
      <point x="170" y="770" type="curve" smooth="yes"/>
      <point x="133" y="770"/>
      <point x="108" y="745"/>
      <point x="108" y="695" type="curve" smooth="yes"/>
      <point x="108" y="646"/>
      <point x="132" y="621"/>
    </contour>
  </outline>
</glyph>
<glyph name="l" format="2">
  <advance width="300"/>
  <unicode hex="006C"/>
  <anchor x="152" y="0" name="bottom"/>
  <anchor x="152" y="382" name="center"/>
  <anchor x="150" y="760" name="top"/>
  <anchor x="255" y="760" name="topright"/>
  <outline>
    <contour>
      <point x="26" y="0" type="line"/>
      <point x="267" y="0" type="line"/>
      <point x="267" y="86" type="line"/>
      <point x="207" y="101" type="line"/>
      <point x="207" y="760" type="line"/>
      <point x="35" y="760" type="line"/>
      <point x="35" y="672" type="line"/>
      <point x="92" y="662" type="line"/>
      <point x="92" y="101" type="line"/>
      <point x="26" y="86" type="line"/>
    </contour>
  </outline>
</glyph>
<glyph name="n" format="2">
  <advance width="300"/>
  <unicode hex="006E"/>
  <anchor x="151" y="0" name="bottom"/>
  <anchor x="159" y="545" name="top"/>
  <anchor x="291" y="545" name="topright"/>
  <outline>
    <contour>
      <point x="17" y="0" type="line"/>
      <point x="133" y="0" type="line"/>
      <point x="133" y="288" type="line" smooth="yes"/>
      <point x="133" y="400"/>
      <point x="132" y="453"/>
      <point x="156" y="453" type="curve" smooth="yes"/>
      <point x="168" y="453"/>
      <point x="170" y="418"/>
      <point x="170" y="339" type="curve" smooth="yes"/>
      <point x="170" y="0" type="line"/>
      <point x="286" y="0" type="line"/>
      <point x="286" y="355" type="line" smooth="yes"/>
      <point x="286" y="493"/>
      <point x="251" y="555"/>
      <point x="193" y="555" type="curve" smooth="yes"/>
      <point x="174" y="555"/>
      <point x="150" y="528"/>
      <point x="132" y="478" type="curve"/>
      <point x="127" y="478" type="line"/>
      <point x="113" y="545" type="line"/>
      <point x="17" y="545" type="line"/>
    </contour>
  </outline>
</glyph>
<glyph name="o" format="2">
  <advance width="300"/>
  <unicode hex="006F"/>
  <anchor x="150" y="0" name="bottom"/>
  <anchor x="150" y="273" name="center"/>
  <anchor x="151" y="10" name="ogonek"/>
  <anchor x="150" y="545" name="top"/>
  <anchor x="289" y="545" name="topright"/>
  <outline>
    <contour>
      <point x="150" y="-10" type="curve" smooth="yes"/>
      <point x="252" y="-10"/>
      <point x="289" y="114"/>
      <point x="289" y="273" type="curve" smooth="yes"/>
      <point x="289" y="454"/>
      <point x="222" y="555"/>
      <point x="147" y="555" type="curve" smooth="yes"/>
      <point x="56" y="555"/>
      <point x="11" y="442"/>
      <point x="11" y="275" type="curve" smooth="yes"/>
      <point x="11" y="112"/>
      <point x="52" y="-10"/>
    </contour>
    <contour>
      <point x="149" y="95" type="curve" smooth="yes"/>
      <point x="139" y="95"/>
      <point x="132" y="156"/>
      <point x="132" y="274" type="curve" smooth="yes"/>
      <point x="132" y="392"/>
      <point x="137" y="450"/>
      <point x="148" y="450" type="curve" smooth="yes"/>
      <point x="156" y="450"/>
      <point x="168" y="391"/>
      <point x="168" y="274" type="curve" smooth="yes"/>
      <point x="168" y="156"/>
      <point x="161" y="95"/>
    </contour>
  </outline>
</glyph>
<glyph name="q" format="2">
  <advance width="300"/>
  <unicode hex="0071"/>
  <anchor x="139" y="-240" name="bottom"/>
  <anchor x="139" y="545" name="top"/>
  <anchor x="279" y="545" name="topright"/>
  <outline>
    <contour>
      <point x="170" y="-240" type="line"/>
      <point x="283" y="-240" type="line"/>
      <point x="283" y="545" type="line"/>
      <point x="189" y="545" type="line"/>
      <point x="177" y="474" type="line"/>
      <point x="171" y="474" type="line"/>
      <point x="149" y="526"/>
      <point x="129" y="555"/>
      <point x="114" y="555" type="curve" smooth="yes"/>
      <point x="62" y="555"/>
      <point x="11" y="452"/>
      <point x="11" y="270" type="curve" smooth="yes"/>
      <point x="11" y="105"/>
      <point x="48" y="-10"/>
      <point x="114" y="-10" type="curve" smooth="yes"/>
      <point x="134" y="-10"/>
      <point x="156" y="22"/>
      <point x="172" y="73" type="curve"/>
      <point x="178" y="73" type="line"/>
      <point x="175" y="43"/>
      <point x="170" y="9"/>
      <point x="170" y="-31" type="curve" smooth="yes"/>
    </contour>
    <contour>
      <point x="158" y="96" type="curve" smooth="yes"/>
      <point x="139" y="96"/>
      <point x="134" y="152"/>
      <point x="134" y="271" type="curve" smooth="yes"/>
      <point x="134" y="386"/>
      <point x="139" y="449"/>
      <point x="155" y="449" type="curve" smooth="yes"/>
      <point x="175" y="449"/>
      <point x="173" y="386"/>
      <point x="173" y="271" type="curve" smooth="yes"/>
      <point x="173" y="253" type="line" smooth="yes"/>
      <point x="173" y="151"/>
      <point x="174" y="96"/>
    </contour>
  </outline>
</glyph>
<glyph name="w" format="2">
  <advance width="300"/>
  <unicode hex="0077"/>
  <anchor x="149" y="0" name="bottom"/>
  <anchor x="149" y="541" name="top"/>
  <anchor x="291" y="541" name="topright"/>
  <outline>
    <contour>
      <point x="30" y="0" type="line"/>
      <point x="134" y="0" type="line"/>
      <point x="137" y="187" type="line" smooth="yes"/>
      <point x="138" y="238"/>
      <point x="144" y="297"/>
      <point x="146" y="346" type="curve"/>
      <point x="149" y="346" type="line"/>
      <point x="150" y="297"/>
      <point x="155" y="240"/>
      <point x="155" y="189" type="curve" smooth="yes"/>
      <point x="158" y="0" type="line"/>
      <point x="266" y="0" type="line"/>
      <point x="289" y="541" type="line"/>
      <point x="205" y="541" type="line"/>
      <point x="211" y="269" type="line" smooth="yes"/>
      <point x="213" y="216"/>
      <point x="211" y="137"/>
      <point x="212" y="102" type="curve"/>
      <point x="209" y="102" type="line"/>
      <point x="207" y="137"/>
      <point x="203" y="208"/>
      <point x="200" y="250" type="curve" smooth="yes"/>
      <point x="188" y="455" type="line"/>
      <point x="108" y="455" type="line"/>
      <point x="94" y="250" type="line" smooth="yes"/>
      <point x="92" y="210"/>
      <point x="88" y="137"/>
      <point x="88" y="102" type="curve"/>
      <point x="85" y="102" type="line"/>
      <point x="86" y="139"/>
      <point x="85" y="220"/>
      <point x="86" y="270" type="curve" smooth="yes"/>
      <point x="94" y="541" type="line"/>
      <point x="10" y="541" type="line"/>
    </contour>
  </outline>
</glyph>
<glyph name="y" format="2">
  <advance width="300"/>
  <unicode hex="0079"/>
  <anchor x="155" y="-245" name="bottom"/>
  <anchor x="155" y="545" name="top"/>
  <anchor x="284" y="545" name="topright"/>
  <outline>
    <contour>
      <point x="64" y="-245" type="curve" smooth="yes"/>
      <point x="143" y="-245"/>
      <point x="195" y="-184"/>
      <point x="215" y="-55" type="curve" smooth="yes"/>
      <point x="310" y="545" type="line"/>
      <point x="183" y="545" type="line"/>
      <point x="170" y="265" type="line" smooth="yes"/>
      <point x="168" y="223"/>
      <point x="161" y="177"/>
      <point x="160" y="145" type="curve"/>
      <point x="157" y="145" type="line"/>
      <point x="154" y="179"/>
      <point x="148" y="218"/>
      <point x="144" y="264" type="curve" smooth="yes"/>
      <point x="121" y="545" type="line"/>
      <point x="-5" y="545" type="line"/>
      <point x="107" y="-3" type="line"/>
      <point x="106" y="-44" type="line" smooth="yes"/>
      <point x="105" y="-128"/>
      <point x="70" y="-144"/>
      <point x="45" y="-144" type="curve" smooth="yes"/>
      <point x="36" y="-144"/>
      <point x="24" y="-141"/>
      <point x="17" y="-138" type="curve"/>
      <point x="17" y="-237" type="line"/>
      <point x="31" y="-242"/>
      <point x="48" y="-245"/>
    </contour>
  </outline>
</glyph>
<glyph name="cent" format="2">
  <advance width="300"/>
  <unicode hex="00A2"/>
  <outline>
    <contour>
      <point x="139" y="-10" type="line"/>
      <point x="199" y="-10" type="line"/>
      <point x="199" y="86" type="line"/>
      <point x="217" y="91"/>
      <point x="239" y="103"/>
      <point x="254" y="120" type="curve"/>
      <point x="254" y="217" type="line"/>
      <point x="232" y="195"/>
      <point x="206" y="182"/>
      <point x="188" y="182" type="curve" smooth="yes"/>
      <point x="162" y="182"/>
      <point x="151" y="236"/>
      <point x="151" y="363" type="curve" smooth="yes"/>
      <point x="151" y="492"/>
      <point x="160" y="549"/>
      <point x="186" y="549" type="curve" smooth="yes"/>
      <point x="198" y="549"/>
      <point x="216" y="541"/>
      <point x="232" y="523" type="curve"/>
      <point x="263" y="615" type="line"/>
      <point x="247" y="632"/>
      <point x="220" y="642"/>
      <point x="200" y="646" type="curve"/>
      <point x="200" y="724" type="line"/>
      <point x="141" y="724" type="line"/>
      <point x="141" y="643" type="line"/>
      <point x="72" y="627"/>
      <point x="43" y="522"/>
      <point x="43" y="363" type="curve" smooth="yes"/>
      <point x="43" y="201"/>
      <point x="73" y="100"/>
      <point x="139" y="87" type="curve"/>
    </contour>
  </outline>
</glyph>
<glyph name="sterling" format="2">
  <advance width="300"/>
  <unicode hex="00A3"/>
  <outline>
    <contour>
      <point x="58" y="0" type="line"/>
      <point x="275" y="0" type="line"/>
      <point x="275" y="104" type="line"/>
      <point x="159" y="104" type="line"/>
      <point x="182" y="131"/>
      <point x="189" y="172"/>
      <point x="189" y="230" type="curve" smooth="yes"/>
      <point x="189" y="319" type="line"/>
      <point x="246" y="319" type="line"/>
      <point x="246" y="406" type="line"/>
      <point x="189" y="406" type="line"/>
      <point x="189" y="518" type="line" smooth="yes"/>
      <point x="189" y="592"/>
      <point x="202" y="620"/>
      <point x="207" y="620" type="curve" smooth="yes"/>
      <point x="217" y="620"/>
      <point x="233" y="611"/>
      <point x="252" y="590" type="curve"/>
      <point x="283" y="683" type="line"/>
      <point x="254" y="711"/>
      <point x="225" y="724"/>
      <point x="196" y="724" type="curve" smooth="yes"/>
      <point x="123" y="724"/>
      <point x="77" y="657"/>
      <point x="77" y="530" type="curve" smooth="yes"/>
      <point x="77" y="406" type="line"/>
      <point x="51" y="406" type="line"/>
      <point x="51" y="319" type="line"/>
      <point x="77" y="319" type="line"/>
      <point x="77" y="229" type="line" smooth="yes"/>
      <point x="77" y="159"/>
      <point x="72" y="124"/>
      <point x="58" y="98" type="curve"/>
    </contour>
  </outline>
</glyph>
<glyph name="currency" format="2">
  <advance width="300"/>
  <unicode hex="00A4"/>
  <outline>
    <contour>
      <point x="226" y="128" type="line"/>
      <point x="276" y="181" type="line"/>
      <point x="247" y="245" type="line"/>
      <point x="252" y="277"/>
      <point x="257" y="313"/>
      <point x="257" y="353" type="curve" smooth="yes"/>
      <point x="257" y="393"/>
      <point x="253" y="429"/>
      <point x="248" y="461" type="curve"/>
      <point x="278" y="526" type="line"/>
      <point x="226" y="578" type="line"/>
      <point x="196" y="514" type="line"/>
      <point x="182" y="536"/>
      <point x="168" y="547"/>
      <point x="150" y="547" type="curve" smooth="yes"/>
      <point x="132" y="547"/>
      <point x="117" y="536"/>
      <point x="102" y="514" type="curve"/>
      <point x="74" y="578" type="line"/>
      <point x="22" y="525" type="line"/>
      <point x="53" y="460" type="line"/>
      <point x="45" y="427"/>
      <point x="42" y="391"/>
      <point x="42" y="353" type="curve" smooth="yes"/>
      <point x="42" y="313"/>
      <point x="45" y="278"/>
      <point x="53" y="246" type="curve"/>
      <point x="23" y="183" type="line"/>
      <point x="73" y="129" type="line"/>
      <point x="101" y="192" type="line"/>
      <point x="114" y="171"/>
      <point x="129" y="160"/>
      <point x="149" y="160" type="curve" smooth="yes"/>
      <point x="167" y="160"/>
      <point x="180" y="171"/>
      <point x="196" y="192" type="curve"/>
    </contour>
    <contour>
      <point x="150" y="237" type="curve" smooth="yes"/>
      <point x="123" y="237"/>
      <point x="114" y="288"/>
      <point x="114" y="353" type="curve" smooth="yes"/>
      <point x="114" y="420"/>
      <point x="124" y="471"/>
      <point x="150" y="471" type="curve" smooth="yes"/>
      <point x="173" y="471"/>
      <point x="184" y="422"/>
      <point x="184" y="356" type="curve" smooth="yes"/>
      <point x="184" y="289"/>
      <point x="176" y="237"/>
    </contour>
  </outline>
</glyph>
<glyph name="brokenbar" format="2">
  <advance width="300"/>
  <unicode hex="00A6"/>
  <outline>
    <contour>
      <point x="112" y="366" type="line"/>
      <point x="210" y="366" type="line"/>
      <point x="210" y="759" type="line"/>
      <point x="112" y="759" type="line"/>
    </contour>
    <contour>
      <point x="112" y="-235" type="line"/>
      <point x="210" y="-235" type="line"/>
      <point x="210" y="160" type="line"/>
      <point x="112" y="160" type="line"/>
    </contour>
  </outline>
</glyph>
<glyph name="section" format="2">
  <advance width="300"/>
  <unicode hex="00A7"/>
  <outline>
    <contour>
      <point x="123" y="-9" type="curve" smooth="yes"/>
      <point x="191" y="-9"/>
      <point x="239" y="48"/>
      <point x="239" y="140" type="curve" smooth="yes"/>
      <point x="239" y="184"/>
      <point x="233" y="221"/>
      <point x="217" y="255" type="curve"/>
      <point x="242" y="283"/>
      <point x="254" y="328"/>
      <point x="254" y="386" type="curve" smooth="yes"/>
      <point x="254" y="471"/>
      <point x="223" y="502"/>
      <point x="186" y="548" type="curve" smooth="yes"/>
      <point x="175" y="561"/>
      <point x="157" y="589"/>
      <point x="157" y="632" type="curve" smooth="yes"/>
      <point x="157" y="667"/>
      <point x="160" y="687"/>
      <point x="170" y="687" type="curve" smooth="yes"/>
      <point x="183" y="687"/>
      <point x="196" y="676"/>
      <point x="223" y="653" type="curve"/>
      <point x="251" y="731" type="line"/>
      <point x="219" y="755"/>
      <point x="198" y="766"/>
      <point x="171" y="766" type="curve" smooth="yes"/>
      <point x="112" y="766"/>
      <point x="64" y="717"/>
      <point x="64" y="630" type="curve" smooth="yes"/>
      <point x="64" y="581"/>
      <point x="67" y="541"/>
      <point x="82" y="510" type="curve"/>
      <point x="53" y="483"/>
      <point x="45" y="444"/>
      <point x="45" y="386" type="curve" smooth="yes"/>
      <point x="45" y="313"/>
      <point x="68" y="279"/>
      <point x="118" y="225" type="curve" smooth="yes"/>
      <point x="139" y="203"/>
      <point x="146" y="180"/>
      <point x="146" y="138" type="curve" smooth="yes"/>
      <point x="146" y="92"/>
      <point x="128" y="71"/>
      <point x="125" y="71" type="curve" smooth="yes"/>
      <point x="98" y="71"/>
      <point x="65" y="91"/>
      <point x="44" y="117" type="curve"/>
      <point x="44" y="27" type="line"/>
      <point x="68" y="3"/>
      <point x="93" y="-9"/>
    </contour>
    <contour>
      <point x="164" y="294" type="curve"/>
      <point x="157" y="313" type="line" smooth="yes"/>
      <point x="148" y="338"/>
      <point x="131" y="359"/>
      <point x="131" y="403" type="curve" smooth="yes"/>
      <point x="131" y="435"/>
      <point x="125" y="462"/>
      <point x="133" y="473" type="curve"/>
      <point x="168" y="435"/>
      <point x="168" y="410"/>
      <point x="168" y="368" type="curve" smooth="yes"/>
      <point x="168" y="336"/>
      <point x="174" y="310"/>
    </contour>
  </outline>
</glyph>
<glyph name="dieresis" format="2">
  <advance width="300"/>
  <unicode hex="00A8"/>
  <anchor x="149" y="545" name="_top"/>
  <anchor x="149" y="655" name="top"/>
  <outline>
    <contour>
      <point x="208" y="620" type="curve" smooth="yes"/>
      <point x="236" y="620"/>
      <point x="257" y="643"/>
      <point x="257" y="686" type="curve" smooth="yes"/>
      <point x="257" y="728"/>
      <point x="236" y="751"/>
      <point x="208" y="751" type="curve" smooth="yes"/>
      <point x="180" y="751"/>
      <point x="160" y="729"/>
      <point x="160" y="686" type="curve" smooth="yes"/>
      <point x="160" y="643"/>
      <point x="180" y="620"/>
    </contour>
    <contour>
      <point x="90" y="620" type="curve" smooth="yes"/>
      <point x="116" y="620"/>
      <point x="137" y="643"/>
      <point x="137" y="686" type="curve" smooth="yes"/>
      <point x="137" y="728"/>
      <point x="116" y="751"/>
      <point x="90" y="751" type="curve" smooth="yes"/>
      <point x="63" y="751"/>
      <point x="41" y="729"/>
      <point x="41" y="686" type="curve" smooth="yes"/>
      <point x="41" y="642"/>
      <point x="63" y="620"/>
    </contour>
  </outline>
</glyph>
<glyph name="ordfeminine" format="2">
  <advance width="300"/>
  <unicode hex="00AA"/>
  <outline>
    <contour>
      <point x="118" y="372" type="curve" smooth="yes"/>
      <point x="142" y="372"/>
      <point x="154" y="393"/>
      <point x="167" y="429" type="curve"/>
      <point x="181" y="378" type="line"/>
      <point x="234" y="378" type="line"/>
      <point x="234" y="599" type="line" smooth="yes"/>
      <point x="234" y="680"/>
      <point x="204" y="723"/>
      <point x="150" y="723" type="curve" smooth="yes"/>
      <point x="125" y="723"/>
      <point x="100" y="713"/>
      <point x="72" y="691" type="curve"/>
      <point x="94" y="632" type="line"/>
      <point x="112" y="647"/>
      <point x="127" y="656"/>
      <point x="141" y="656" type="curve" smooth="yes"/>
      <point x="155" y="656"/>
      <point x="157" y="641"/>
      <point x="157" y="606" type="curve" smooth="yes"/>
      <point x="157" y="591" type="line"/>
      <point x="141" y="589" type="line" smooth="yes"/>
      <point x="103" y="584"/>
      <point x="62" y="556"/>
      <point x="62" y="476" type="curve" smooth="yes"/>
      <point x="62" y="412"/>
      <point x="83" y="372"/>
    </contour>
    <contour>
      <point x="144" y="440" type="curve" smooth="yes"/>
      <point x="141" y="440"/>
      <point x="140" y="454"/>
      <point x="140" y="482" type="curve" smooth="yes"/>
      <point x="140" y="517"/>
      <point x="142" y="529"/>
      <point x="148" y="532" type="curve" smooth="yes"/>
      <point x="157" y="536" type="line"/>
      <point x="157" y="516" type="line" smooth="yes"/>
      <point x="157" y="470"/>
      <point x="151" y="440"/>
    </contour>
  </outline>
</glyph>
<glyph name="logicalnot" format="2">
  <advance width="300"/>
  <unicode hex="00AC"/>
  <outline>
    <contour>
      <point x="178" y="119" type="line"/>
      <point x="268" y="119" type="line"/>
      <point x="268" y="400" type="line"/>
      <point x="48" y="400" type="line"/>
      <point x="48" y="307" type="line"/>
      <point x="178" y="307" type="line"/>
    </contour>
  </outline>
</glyph>
<glyph name="overscore" format="2">
  <advance width="300"/>
  <unicode hex="00AF"/>
  <outline>
    <contour>
      <point x="60" y="637" type="line"/>
      <point x="226" y="637" type="line"/>
      <point x="226" y="719" type="line"/>
      <point x="60" y="719" type="line"/>
    </contour>
  </outline>
</glyph>
<glyph name="degree" format="2">
  <advance width="300"/>
  <unicode hex="00B0"/>
  <outline>
    <contour>
      <point x="148" y="441" type="curve" smooth="yes"/>
      <point x="193" y="441"/>
      <point x="235" y="494"/>
      <point x="235" y="581" type="curve" smooth="yes"/>
      <point x="235" y="668"/>
      <point x="197" y="724"/>
      <point x="149" y="724" type="curve" smooth="yes"/>
      <point x="102" y="724"/>
      <point x="64" y="669"/>
      <point x="64" y="582" type="curve" smooth="yes"/>
      <point x="64" y="495"/>
      <point x="100" y="441"/>
    </contour>
    <contour>
      <point x="149" y="508" type="curve" smooth="yes"/>
      <point x="138" y="508"/>
      <point x="127" y="535"/>
      <point x="127" y="582" type="curve" smooth="yes"/>
      <point x="127" y="626"/>
      <point x="137" y="656"/>
      <point x="149" y="656" type="curve" smooth="yes"/>
      <point x="159" y="656"/>
      <point x="171" y="628"/>
      <point x="171" y="582" type="curve" smooth="yes"/>
      <point x="171" y="536"/>
      <point x="160" y="508"/>
    </contour>
  </outline>
</glyph>
<glyph name="plusminus" format="2">
  <advance width="300"/>
  <unicode hex="00B1"/>
  <outline>
    <contour>
      <point x="108" y="151" type="line"/>
      <point x="199" y="151" type="line"/>
      <point x="199" y="341" type="line"/>
      <point x="263" y="341" type="line"/>
      <point x="263" y="435" type="line"/>
      <point x="199" y="435" type="line"/>
      <point x="199" y="627" type="line"/>
      <point x="108" y="627" type="line"/>
      <point x="108" y="435" type="line"/>
      <point x="44" y="435" type="line"/>
      <point x="44" y="341" type="line"/>
      <point x="108" y="341" type="line"/>
    </contour>
    <contour>
      <point x="44" y="0" type="line"/>
      <point x="267" y="0" type="line"/>
      <point x="267" y="93" type="line"/>
      <point x="44" y="93" type="line"/>
    </contour>
  </outline>
</glyph>
<glyph name="twosuperior" format="2">
  <advance width="300"/>
  <unicode hex="00B2"/>
  <outline>
    <contour>
      <point x="79" y="415" type="line"/>
      <point x="244" y="415" type="line"/>
      <point x="244" y="490" type="line"/>
      <point x="167" y="490" type="line"/>
      <point x="169" y="522" type="line" smooth="yes"/>
      <point x="174" y="629"/>
      <point x="239" y="666"/>
      <point x="239" y="737" type="curve" smooth="yes"/>
      <point x="239" y="808"/>
      <point x="208" y="854"/>
      <point x="157" y="854" type="curve" smooth="yes"/>
      <point x="114" y="854"/>
      <point x="82" y="827"/>
      <point x="71" y="794" type="curve"/>
      <point x="109" y="737" type="line"/>
      <point x="120" y="767"/>
      <point x="133" y="779"/>
      <point x="145" y="779" type="curve" smooth="yes"/>
      <point x="152" y="779"/>
      <point x="157" y="760"/>
      <point x="157" y="730" type="curve" smooth="yes"/>
      <point x="157" y="689"/>
      <point x="151" y="659"/>
      <point x="122" y="592" type="curve" smooth="yes"/>
      <point x="79" y="490" type="line"/>
    </contour>
  </outline>
</glyph>
<glyph name="acute" format="2">
  <advance width="300"/>
  <unicode hex="00B4"/>
  <outline>
    <contour>
      <point x="88" y="606" type="line"/>
      <point x="163" y="606" type="line"/>
      <point x="187" y="646"/>
      <point x="229" y="718"/>
      <point x="239" y="757" type="curve"/>
      <point x="239" y="766" type="line"/>
      <point x="114" y="766" type="line"/>
      <point x="108" y="721"/>
      <point x="103" y="672"/>
      <point x="88" y="618" type="curve"/>
    </contour>
  </outline>
</glyph>
<glyph name="onesuperior" format="2">
  <advance width="300"/>
  <unicode hex="00B9"/>
  <outline>
    <contour>
      <point x="128" y="415" type="line"/>
      <point x="205" y="415" type="line"/>
      <point x="205" y="843" type="line"/>
      <point x="138" y="843" type="line"/>
      <point x="58" y="750" type="line"/>
      <point x="99" y="689" type="line"/>
      <point x="117" y="725" type="line" smooth="yes"/>
      <point x="120" y="731"/>
      <point x="127" y="743"/>
      <point x="130" y="752" type="curve"/>
      <point x="128" y="718"/>
      <point x="128" y="677"/>
      <point x="128" y="644" type="curve" smooth="yes"/>
    </contour>
    <contour>
      <point x="79" y="415" type="line"/>
      <point x="249" y="415" type="line"/>
      <point x="249" y="477" type="line"/>
      <point x="179" y="484" type="line"/>
      <point x="152" y="484" type="line"/>
      <point x="79" y="476" type="line"/>
    </contour>
  </outline>
</glyph>
<glyph name="ordmasculine" format="2">
  <advance width="300"/>
  <unicode hex="00BA"/>
  <outline>
    <contour>
      <point x="155" y="372" type="curve" smooth="yes"/>
      <point x="208" y="372"/>
      <point x="242" y="437"/>
      <point x="242" y="548" type="curve" smooth="yes"/>
      <point x="242" y="661"/>
      <point x="203" y="722"/>
      <point x="154" y="722" type="curve" smooth="yes"/>
      <point x="99" y="722"/>
      <point x="65" y="658"/>
      <point x="65" y="548" type="curve" smooth="yes"/>
      <point x="65" y="439"/>
      <point x="100" y="372"/>
    </contour>
    <contour>
      <point x="155" y="442" type="curve" smooth="yes"/>
      <point x="148" y="442"/>
      <point x="144" y="475"/>
      <point x="144" y="548" type="curve" smooth="yes"/>
      <point x="144" y="621"/>
      <point x="145" y="653"/>
      <point x="154" y="653" type="curve" smooth="yes"/>
      <point x="161" y="653"/>
      <point x="164" y="621"/>
      <point x="164" y="548" type="curve" smooth="yes"/>
      <point x="164" y="475"/>
      <point x="163" y="442"/>
    </contour>
  </outline>
</glyph>
<glyph name="Oslash" format="2">
  <advance width="300"/>
  <unicode hex="00D8"/>
  <anchor x="150" y="0" name="bottom"/>
  <anchor x="150" y="714" name="top"/>
  <anchor x="32" y="714" name="topleft"/>
  <anchor x="169" y="10" name="ogonek"/>
  <anchor x="160" y="357" name="center"/>
  <anchor x="300" y="714" name="topright"/>
  <outline>
    <contour>
      <point x="70" y="-43" type="line"/>
      <point x="294" y="722" type="line"/>
      <point x="235" y="756" type="line"/>
      <point x="11" y="-10" type="line"/>
    </contour>
    <component base="O" xOffset="10"/>
  </outline>
</glyph>
<glyph name="thorn" format="2">
  <advance width="300"/>
  <unicode hex="00FE"/>
  <anchor x="164" y="-240" name="bottom"/>
  <anchor x="164" y="737" name="top"/>
  <outline>
    <contour>
      <point x="17" y="-240" type="line"/>
      <point x="131" y="-240" type="line"/>
      <point x="131" y="-37" type="line" smooth="yes"/>
      <point x="131" y="-4"/>
      <point x="127" y="38"/>
      <point x="124" y="62" type="curve"/>
      <point x="130" y="62" type="line"/>
      <point x="153" y="19"/>
      <point x="174" y="-10"/>
      <point x="194" y="-10" type="curve" smooth="yes"/>
      <point x="243" y="-10"/>
      <point x="289" y="93"/>
      <point x="289" y="274" type="curve" smooth="yes"/>
      <point x="289" y="440"/>
      <point x="256" y="555"/>
      <point x="194" y="555" type="curve" smooth="yes"/>
      <point x="169" y="555"/>
      <point x="147" y="522"/>
      <point x="130" y="472" type="curve"/>
      <point x="125" y="472" type="line"/>
      <point x="129" y="504"/>
      <point x="131" y="532"/>
      <point x="131" y="566" type="curve" smooth="yes"/>
      <point x="131" y="737" type="line"/>
      <point x="17" y="737" type="line"/>
    </contour>
    <contour>
      <point x="156" y="96" type="curve" smooth="yes"/>
      <point x="132" y="96"/>
      <point x="131" y="151"/>
      <point x="131" y="273" type="curve" smooth="yes"/>
      <point x="131" y="291" type="line" smooth="yes"/>
      <point x="131" y="398"/>
      <point x="136" y="449"/>
      <point x="152" y="449" type="curve" smooth="yes"/>
      <point x="165" y="449"/>
      <point x="168" y="392"/>
      <point x="168" y="274" type="curve" smooth="yes"/>
      <point x="168" y="158"/>
      <point x="172" y="96"/>
    </contour>
  </outline>
</glyph>
<glyph name="hbar" format="2">
  <advance width="300"/>
  <unicode hex="0127"/>
  <anchor x="150" y="0" name="bottom"/>
  <anchor x="150" y="273" name="center"/>
  <anchor x="75" y="760" name="top"/>
  <outline>
    <contour>
      <point x="10" y="593" type="line"/>
      <point x="186" y="593" type="line"/>
      <point x="186" y="677" type="line"/>
      <point x="10" y="677" type="line"/>
    </contour>
    <contour>
      <point x="17" y="0" type="line"/>
      <point x="133" y="0" type="line"/>
      <point x="133" y="274" type="line" smooth="yes"/>
      <point x="133" y="380"/>
      <point x="124" y="441"/>
      <point x="150" y="441" type="curve" smooth="yes"/>
      <point x="177" y="441"/>
      <point x="170" y="396"/>
      <point x="170" y="316" type="curve" smooth="yes"/>
      <point x="170" y="0" type="line"/>
      <point x="286" y="0" type="line"/>
      <point x="286" y="350" type="line" smooth="yes"/>
      <point x="286" y="483"/>
      <point x="245" y="550"/>
      <point x="191" y="550" type="curve" smooth="yes"/>
      <point x="169" y="550"/>
      <point x="148" y="518"/>
      <point x="131" y="469" type="curve"/>
      <point x="124" y="469" type="line"/>
      <point x="129" y="502"/>
      <point x="133" y="537"/>
      <point x="133" y="572" type="curve" smooth="yes"/>
      <point x="133" y="760" type="line"/>
      <point x="17" y="760" type="line"/>
    </contour>
  </outline>
</glyph>
<glyph name="idotless" format="2">
  <advance width="300"/>
  <unicode hex="0131"/>
  <anchor x="150" y="0" name="bottom"/>
  <anchor x="262" y="10" name="ogonek"/>
  <anchor x="150" y="545" name="top"/>
  <outline>
    <contour>
      <point x="26" y="0" type="line"/>
      <point x="267" y="0" type="line"/>
      <point x="267" y="87" type="line"/>
      <point x="211" y="101" type="line"/>
      <point x="211" y="545" type="line"/>
      <point x="37" y="545" type="line"/>
      <point x="37" y="454" type="line"/>
      <point x="97" y="441" type="line"/>
      <point x="97" y="101" type="line"/>
      <point x="26" y="87" type="line"/>
    </contour>
  </outline>
</glyph>
<glyph name="ij" format="2">
  <advance width="300"/>
  <unicode hex="0133"/>
  <anchor x="159" y="-245" name="bottom"/>
  <anchor x="10" y="0" name="caret_1"/>
  <anchor x="153" y="770" name="top"/>
  <outline>
    <contour>
      <point x="144" y="-245" type="curve" smooth="yes"/>
      <point x="239" y="-245"/>
      <point x="273" y="-181"/>
      <point x="273" y="-52" type="curve" smooth="yes"/>
      <point x="273" y="545" type="line"/>
      <point x="158" y="545" type="line"/>
      <point x="158" y="-38" type="line" smooth="yes"/>
      <point x="158" y="-108"/>
      <point x="150" y="-140"/>
      <point x="123" y="-140" type="curve" smooth="yes"/>
      <point x="110" y="-140"/>
      <point x="93" y="-132"/>
      <point x="65" y="-121" type="curve"/>
      <point x="65" y="-225" type="line"/>
      <point x="99" y="-238"/>
      <point x="122" y="-245"/>
    </contour>
    <contour>
      <point x="31" y="0" type="line"/>
      <point x="145" y="0" type="line"/>
      <point x="145" y="545" type="line"/>
      <point x="31" y="545" type="line"/>
    </contour>
    <contour>
      <point x="88" y="621" type="curve" smooth="yes"/>
      <point x="126" y="621"/>
      <point x="151" y="647"/>
      <point x="151" y="695" type="curve" smooth="yes"/>
      <point x="151" y="745"/>
      <point x="126" y="770"/>
      <point x="88" y="770" type="curve" smooth="yes"/>
      <point x="50" y="770"/>
      <point x="25" y="745"/>
      <point x="25" y="695" type="curve" smooth="yes"/>
      <point x="25" y="646"/>
      <point x="50" y="621"/>
    </contour>
    <contour>
      <point x="210" y="621" type="curve" smooth="yes"/>
      <point x="248" y="621"/>
      <point x="275" y="647"/>
      <point x="275" y="696" type="curve" smooth="yes"/>
      <point x="275" y="745"/>
      <point x="249" y="770"/>
      <point x="210" y="770" type="curve" smooth="yes"/>
      <point x="172" y="770"/>
      <point x="147" y="745"/>
      <point x="147" y="695" type="curve" smooth="yes"/>
      <point x="147" y="646"/>
      <point x="171" y="621"/>
    </contour>
  </outline>
</glyph>
<glyph name="napostrophe" format="2">
  <advance width="300"/>
  <unicode hex="0149"/>
  <anchor x="157" y="0" name="bottom"/>
  <anchor x="165" y="545" name="top"/>
  <outline>
    <contour>
      <point x="22" y="0" type="line"/>
      <point x="138" y="0" type="line"/>
      <point x="138" y="266" type="line" smooth="yes"/>
      <point x="138" y="387"/>
      <point x="132" y="446"/>
      <point x="151" y="446" type="curve" smooth="yes"/>
      <point x="164" y="446"/>
      <point x="170" y="409"/>
      <point x="170" y="327" type="curve" smooth="yes"/>
      <point x="170" y="0" type="line"/>
      <point x="286" y="0" type="line"/>
      <point x="286" y="355" type="line" smooth="yes"/>
      <point x="286" y="493"/>
      <point x="251" y="555"/>
      <point x="197" y="555" type="curve" smooth="yes"/>
      <point x="178" y="555"/>
      <point x="156" y="528"/>
      <point x="139" y="474" type="curve"/>
      <point x="132" y="474" type="line"/>
      <point x="118" y="545" type="line"/>
      <point x="22" y="545" type="line"/>
    </contour>
    <component base="quoteright" xOffset="-159"/>
  </outline>
</glyph>
<glyph name="Eng" format="2">
  <advance width="300"/>
  <unicode hex="014A"/>
  <anchor x="128" y="-205" name="bottom"/>
  <anchor x="143" y="714" name="top"/>
  <anchor x="290" y="714" name="topright"/>
  <outline>
    <contour>
      <point x="152" y="-205" type="curve" smooth="yes"/>
      <point x="237" y="-205"/>
      <point x="276" y="-133"/>
      <point x="276" y="1" type="curve" smooth="yes"/>
      <point x="276" y="97" type="line"/>
      <point x="185" y="82" type="line"/>
      <point x="185" y="3" type="line" smooth="yes"/>
      <point x="185" y="-81"/>
      <point x="164" y="-118"/>
      <point x="135" y="-118" type="curve" smooth="yes"/>
      <point x="125" y="-118"/>
      <point x="117" y="-114"/>
      <point x="108" y="-108" type="curve"/>
      <point x="108" y="-194" type="line"/>
      <point x="124" y="-202"/>
      <point x="136" y="-205"/>
    </contour>
    <component base="N"/>
  </outline>
</glyph>
<glyph name="OE" format="2">
  <advance width="300"/>
  <unicode hex="0152"/>
  <anchor x="150" y="0" name="bottom"/>
  <anchor x="150" y="714" name="top"/>
  <outline>
    <contour>
      <point x="104" y="-11" type="curve" smooth="yes"/>
      <point x="115" y="-11"/>
      <point x="129" y="-7"/>
      <point x="143" y="0" type="curve"/>
      <point x="282" y="0" type="line"/>
      <point x="282" y="110" type="line"/>
      <point x="249" y="110" type="line"/>
      <point x="249" y="316" type="line"/>
      <point x="271" y="316" type="line"/>
      <point x="271" y="426" type="line"/>
      <point x="249" y="426" type="line"/>
      <point x="249" y="604" type="line"/>
      <point x="282" y="604" type="line"/>
      <point x="282" y="714" type="line"/>
      <point x="140" y="714" type="line"/>
      <point x="120" y="721"/>
      <point x="107" y="725"/>
      <point x="97" y="725" type="curve" smooth="yes"/>
      <point x="29" y="725"/>
      <point x="6" y="578"/>
      <point x="6" y="360" type="curve" smooth="yes"/>
      <point x="6" y="135"/>
      <point x="21" y="-11"/>
    </contour>
    <contour>
      <point x="113" y="97" type="curve" smooth="yes"/>
      <point x="107" y="97"/>
      <point x="111" y="191"/>
      <point x="111" y="356" type="curve" smooth="yes"/>
      <point x="111" y="521"/>
      <point x="115" y="621"/>
      <point x="116" y="621" type="curve" smooth="yes"/>
      <point x="127" y="621"/>
      <point x="138" y="619"/>
      <point x="147" y="609" type="curve"/>
      <point x="147" y="107" type="line"/>
      <point x="136" y="99"/>
      <point x="125" y="97"/>
    </contour>
  </outline>
</glyph>
<glyph name="oe" format="2">
  <advance width="300"/>
  <unicode hex="0153"/>
  <anchor x="150" y="0" name="bottom"/>
  <anchor x="150" y="540" name="top"/>
  <outline>
    <contour>
      <point x="102" y="-10" type="curve" smooth="yes"/>
      <point x="124" y="-10"/>
      <point x="142" y="17"/>
      <point x="161" y="80" type="curve"/>
      <point x="178" y="18"/>
      <point x="204" y="-10"/>
      <point x="225" y="-10" type="curve" smooth="yes"/>
      <point x="246" y="-10"/>
      <point x="266" y="2"/>
      <point x="282" y="26" type="curve"/>
      <point x="282" y="112" type="line"/>
      <point x="269" y="89"/>
      <point x="251" y="75"/>
      <point x="238" y="75" type="curve" smooth="yes"/>
      <point x="214" y="75"/>
      <point x="200" y="132"/>
      <point x="199" y="247" type="curve"/>
      <point x="288" y="247" type="line"/>
      <point x="288" y="297" type="line" smooth="yes"/>
      <point x="288" y="451"/>
      <point x="269" y="550"/>
      <point x="210" y="550" type="curve" smooth="yes"/>
      <point x="188" y="550"/>
      <point x="172" y="520"/>
      <point x="157" y="460" type="curve"/>
      <point x="142" y="524"/>
      <point x="121" y="550"/>
      <point x="98" y="550" type="curve" smooth="yes"/>
      <point x="32" y="550"/>
      <point x="16" y="462"/>
      <point x="16" y="271" type="curve" smooth="yes"/>
      <point x="16" y="85"/>
      <point x="39" y="-10"/>
    </contour>
    <contour>
      <point x="105" y="76" type="curve" smooth="yes"/>
      <point x="93" y="76"/>
      <point x="92" y="147"/>
      <point x="92" y="272" type="curve" smooth="yes"/>
      <point x="92" y="404"/>
      <point x="93" y="465"/>
      <point x="105" y="465" type="curve" smooth="yes"/>
      <point x="115" y="465"/>
      <point x="117" y="402"/>
      <point x="117" y="272" type="curve" smooth="yes"/>
      <point x="117" y="146"/>
      <point x="117" y="76"/>
    </contour>
    <contour>
      <point x="194" y="325" type="line"/>
      <point x="194" y="402"/>
      <point x="199" y="465"/>
      <point x="205" y="465" type="curve" smooth="yes"/>
      <point x="211" y="465"/>
      <point x="217" y="421"/>
      <point x="218" y="325" type="curve"/>
    </contour>
  </outline>
</glyph>
<glyph name="tbar" format="2">
  <advance width="300"/>
  <unicode hex="0167"/>
  <anchor x="174" y="0" name="bottom"/>
  <anchor x="144" y="681" name="top"/>
  <anchor x="279" y="681" name="topright"/>
  <anchor x="125" y="289" name="center"/>
  <outline>
    <contour>
      <point x="-2" y="254" type="line"/>
      <point x="289" y="254" type="line"/>
      <point x="289" y="338" type="line"/>
      <point x="-2" y="338" type="line"/>
    </contour>
    <component base="t"/>
  </outline>
</glyph>
<glyph name="uni0181" format="2">
  <advance width="300"/>
  <unicode hex="0181"/>
  <anchor x="170" y="0" name="bottom"/>
  <anchor x="170" y="714" name="top"/>
  <outline>
    <contour>
      <point x="91" y="0" type="line"/>
      <point x="182" y="0" type="line" smooth="yes"/>
      <point x="248" y="0"/>
      <point x="286" y="77"/>
      <point x="286" y="207" type="curve" smooth="yes"/>
      <point x="286" y="310"/>
      <point x="261" y="358"/>
      <point x="231" y="374" type="curve"/>
      <point x="231" y="379" type="line"/>
      <point x="259" y="395"/>
      <point x="279" y="450"/>
      <point x="279" y="540" type="curve" smooth="yes"/>
      <point x="279" y="660"/>
      <point x="245" y="714"/>
      <point x="169" y="714" type="curve" smooth="yes"/>
      <point x="91" y="714" type="line"/>
    </contour>
    <contour>
      <point x="176" y="86" type="line"/>
      <point x="176" y="331" type="line"/>
      <point x="173" y="331" type="line" smooth="yes"/>
      <point x="199" y="331"/>
      <point x="200" y="287"/>
      <point x="200" y="211" type="curve" smooth="yes"/>
      <point x="200" y="133"/>
      <point x="196" y="86"/>
      <point x="175" y="86" type="curve" smooth="yes"/>
    </contour>
    <contour>
      <point x="15" y="507" type="curve"/>
      <point x="78" y="507" type="line"/>
      <point x="77" y="517"/>
      <point x="75" y="540"/>
      <point x="75" y="568" type="curve" smooth="yes"/>
      <point x="75" y="610"/>
      <point x="80" y="630"/>
      <point x="94" y="630" type="curve" smooth="yes"/>
      <point x="110" y="630" type="line"/>
      <point x="110" y="714" type="line"/>
      <point x="98" y="714" type="line"/>
      <point x="36" y="714"/>
      <point x="10" y="660"/>
      <point x="10" y="575" type="curve" smooth="yes"/>
      <point x="10" y="545"/>
      <point x="13" y="519"/>
    </contour>
    <contour>
      <point x="176" y="415" type="line"/>
      <point x="176" y="629" type="line"/>
      <point x="168" y="629" type="line" smooth="yes"/>
      <point x="188" y="629"/>
      <point x="194" y="597"/>
      <point x="194" y="524" type="curve" smooth="yes"/>
      <point x="194" y="454"/>
      <point x="188" y="415"/>
      <point x="168" y="415" type="curve" smooth="yes"/>
    </contour>
  </outline>
</glyph>
<glyph name="uni0185" format="2">
  <advance width="300"/>
  <unicode hex="0185"/>
  <anchor x="150" y="0" name="bottom"/>
  <anchor x="150" y="760" name="top"/>
  <outline>
    <contour>
      <point x="151" y="-10" type="curve" smooth="yes"/>
      <point x="227" y="-10"/>
      <point x="289" y="83"/>
      <point x="289" y="272" type="curve" smooth="yes"/>
      <point x="289" y="459"/>
      <point x="252" y="554"/>
      <point x="196" y="554" type="curve" smooth="yes"/>
      <point x="162" y="554"/>
      <point x="148" y="521"/>
      <point x="130" y="477" type="curve"/>
      <point x="125" y="477" type="line"/>
      <point x="128" y="506"/>
      <point x="131" y="541"/>
      <point x="131" y="583" type="curve" smooth="yes"/>
      <point x="131" y="760" type="line"/>
      <point x="17" y="760" type="line"/>
      <point x="17" y="264" type="line" smooth="yes"/>
      <point x="17" y="72"/>
      <point x="63" y="-10"/>
    </contour>
    <contour>
      <point x="155" y="96" type="curve"/>
      <point x="143" y="96"/>
      <point x="131" y="130"/>
      <point x="131" y="264" type="curve" smooth="yes"/>
      <point x="131" y="287" type="line" smooth="yes"/>
      <point x="131" y="398"/>
      <point x="141" y="450"/>
      <point x="151" y="450" type="curve" smooth="yes"/>
      <point x="165" y="450"/>
      <point x="168" y="395"/>
      <point x="168" y="271" type="curve" smooth="yes"/>
      <point x="168" y="145"/>
      <point x="162" y="96"/>
    </contour>
  </outline>
</glyph>
<glyph name="uni018C" format="2">
  <advance width="300"/>
  <unicode hex="018C"/>
  <anchor x="150" y="0" name="bottom"/>
  <anchor x="162" y="760" name="top"/>
  <anchor x="300" y="760" name="topright"/>
  <anchor x="160" y="273" name="center"/>
  <outline>
    <contour>
      <point x="52" y="661" type="line"/>
      <point x="217" y="661" type="line"/>
      <point x="217" y="760" type="line"/>
      <point x="52" y="760" type="line"/>
    </contour>
    <component base="d" xOffset="10"/>
  </outline>
</glyph>
<glyph name="uni0191" format="2">
  <advance width="300"/>
  <unicode hex="0191"/>
  <anchor x="154" y="-217" name="bottom"/>
  <anchor x="162" y="714" name="top"/>
  <outline>
    <contour>
      <point x="0" y="-225" type="curve" smooth="yes"/>
      <point x="77" y="-225"/>
      <point x="137" y="-179"/>
      <point x="137" y="-25" type="curve" smooth="yes"/>
      <point x="137" y="285" type="line"/>
      <point x="278" y="285" type="line"/>
      <point x="278" y="394" type="line"/>
      <point x="137" y="394" type="line"/>
      <point x="137" y="605" type="line"/>
      <point x="285" y="605" type="line"/>
      <point x="285" y="714" type="line"/>
      <point x="20" y="714" type="line"/>
      <point x="20" y="-7" type="line" smooth="yes"/>
      <point x="20" y="-91"/>
      <point x="11" y="-122"/>
      <point x="-21" y="-122" type="curve" smooth="yes"/>
      <point x="-31" y="-122"/>
      <point x="-44" y="-118"/>
      <point x="-53" y="-112" type="curve"/>
      <point x="-53" y="-214" type="line"/>
      <point x="-36" y="-222"/>
      <point x="-19" y="-225"/>
    </contour>
  </outline>
</glyph>
<glyph name="uni0193" format="2">
  <advance width="300"/>
  <unicode hex="0193"/>
  <anchor x="149" y="0" name="bottom"/>
  <anchor x="149" y="876" name="top"/>
  <anchor x="289" y="714" name="topright"/>
  <outline>
    <contour>
      <point x="193" y="681" type="line"/>
      <point x="293" y="681" type="line"/>
      <point x="293" y="717" type="line" smooth="yes"/>
      <point x="293" y="758"/>
      <point x="300" y="771"/>
      <point x="313" y="771" type="curve" smooth="yes"/>
      <point x="323" y="771"/>
      <point x="334" y="764"/>
      <point x="341" y="760" type="curve"/>
      <point x="341" y="862" type="line"/>
      <point x="334" y="868"/>
      <point x="316" y="876"/>
      <point x="291" y="876" type="curve" smooth="yes"/>
      <point x="248" y="876"/>
      <point x="193" y="837"/>
      <point x="193" y="741" type="curve" smooth="yes"/>
    </contour>
    <component base="G" xOffset="10"/>
  </outline>
</glyph>
<glyph name="uni0195" format="2">
  <advance width="300"/>
  <unicode hex="0195"/>
  <anchor x="153" y="0" name="bottom"/>
  <anchor x="72" y="760" name="top"/>
  <outline>
    <contour>
      <point x="193" y="-12" type="curve" smooth="yes"/>
      <point x="246" y="-12"/>
      <point x="269" y="36"/>
      <point x="269" y="116" type="curve" smooth="yes"/>
      <point x="269" y="540" type="line"/>
      <point x="197" y="540" type="line"/>
      <point x="197" y="122" type="line" smooth="yes"/>
      <point x="197" y="84"/>
      <point x="195" y="67"/>
      <point x="193" y="67" type="curve" smooth="yes"/>
      <point x="191" y="67"/>
      <point x="189" y="83"/>
      <point x="189" y="128" type="curve" smooth="yes"/>
      <point x="189" y="428" type="line" smooth="yes"/>
      <point x="189" y="518"/>
      <point x="172" y="549"/>
      <point x="144" y="549" type="curve" smooth="yes"/>
      <point x="127" y="549"/>
      <point x="114" y="530"/>
      <point x="107" y="497" type="curve"/>
      <point x="103" y="497" type="line"/>
      <point x="106" y="521"/>
      <point x="108" y="544"/>
      <point x="108" y="573" type="curve" smooth="yes"/>
      <point x="108" y="760" type="line"/>
      <point x="35" y="760" type="line"/>
      <point x="35" y="0" type="line"/>
      <point x="107" y="0" type="line"/>
      <point x="107" y="370" type="line" smooth="yes"/>
      <point x="107" y="448"/>
      <point x="105" y="470"/>
      <point x="113" y="470" type="curve" smooth="yes"/>
      <point x="117" y="470"/>
      <point x="118" y="452"/>
      <point x="118" y="404" type="curve" smooth="yes"/>
      <point x="118" y="121" type="line" smooth="yes"/>
      <point x="118" y="26"/>
      <point x="143" y="-12"/>
    </contour>
  </outline>
</glyph>
<glyph name="uni0196" format="2">
  <advance width="300"/>
  <unicode hex="0196"/>
  <anchor x="178" y="0" name="bottom"/>
  <anchor x="150" y="714" name="top"/>
  <outline>
    <contour>
      <point x="181" y="-10" type="curve" smooth="yes"/>
      <point x="211" y="-10"/>
      <point x="240" y="-2"/>
      <point x="256" y="14" type="curve"/>
      <point x="256" y="118" type="line"/>
      <point x="247" y="107"/>
      <point x="229" y="101"/>
      <point x="218" y="101" type="curve" smooth="yes"/>
      <point x="212" y="101"/>
      <point x="202" y="118"/>
      <point x="202" y="174" type="curve" smooth="yes"/>
      <point x="202" y="714" type="line"/>
      <point x="85" y="714" type="line"/>
      <point x="85" y="152" type="line" smooth="yes"/>
      <point x="85" y="36"/>
      <point x="119" y="-10"/>
    </contour>
  </outline>
</glyph>
<glyph name="uni0197" format="2">
  <advance width="300"/>
  <unicode hex="0197"/>
  <anchor x="144" y="0" name="bottom"/>
  <anchor x="144" y="714" name="top"/>
  <anchor x="25" y="714" name="topleft"/>
  <anchor x="222" y="10" name="ogonek"/>
  <anchor x="282" y="714" name="topright"/>
  <outline>
    <contour>
      <point x="18" y="319" type="line"/>
      <point x="268" y="319" type="line"/>
      <point x="268" y="422" type="line"/>
      <point x="18" y="422" type="line"/>
    </contour>
    <component base="I" xOffset="3"/>
  </outline>
</glyph>
<glyph name="uni0198" format="2">
  <advance width="300"/>
  <unicode hex="0198"/>
  <anchor x="150" y="0" name="bottom"/>
  <anchor x="150" y="714" name="top"/>
  <outline>
    <contour>
      <point x="14" y="0" type="line"/>
      <point x="128" y="0" type="line"/>
      <point x="128" y="236" type="line"/>
      <point x="144" y="300" type="line"/>
      <point x="172" y="0" type="line"/>
      <point x="304" y="0" type="line"/>
      <point x="232" y="392" type="line"/>
      <point x="244" y="566" type="line" smooth="yes"/>
      <point x="247" y="603"/>
      <point x="249" y="614"/>
      <point x="259" y="614" type="curve" smooth="yes"/>
      <point x="271" y="614"/>
      <point x="282" y="609"/>
      <point x="289" y="605" type="curve"/>
      <point x="289" y="711" type="line"/>
      <point x="277" y="718"/>
      <point x="259" y="724"/>
      <point x="231" y="724" type="curve" smooth="yes"/>
      <point x="182" y="724"/>
      <point x="155" y="698"/>
      <point x="161" y="609" type="curve" smooth="yes"/>
      <point x="164" y="484" type="line" smooth="yes"/>
      <point x="165" y="453"/>
      <point x="139" y="401"/>
      <point x="128" y="366" type="curve"/>
      <point x="128" y="714" type="line"/>
      <point x="14" y="714" type="line"/>
    </contour>
  </outline>
</glyph>
<glyph name="uni0199" format="2">
  <advance width="300"/>
  <unicode hex="0199"/>
  <anchor x="150" y="0" name="bottom"/>
  <anchor x="150" y="765" name="top"/>
  <outline>
    <contour>
      <point x="1" y="0" type="line"/>
      <point x="114" y="0" type="line"/>
      <point x="114" y="186" type="line"/>
      <point x="116" y="217" type="line"/>
      <point x="160" y="0" type="line"/>
      <point x="297" y="0" type="line"/>
      <point x="196" y="295" type="line"/>
      <point x="299" y="545" type="line"/>
      <point x="165" y="545" type="line"/>
      <point x="133" y="370" type="line" smooth="yes"/>
      <point x="128" y="343"/>
      <point x="116" y="320"/>
      <point x="107" y="294" type="curve"/>
      <point x="106" y="294" type="line"/>
      <point x="110" y="341"/>
      <point x="114" y="386"/>
      <point x="114" y="432" type="curve" smooth="yes"/>
      <point x="114" y="591" type="line" smooth="yes"/>
      <point x="114" y="640"/>
      <point x="120" y="659"/>
      <point x="135" y="659" type="curve" smooth="yes"/>
      <point x="141" y="659"/>
      <point x="150" y="656"/>
      <point x="158" y="651" type="curve"/>
      <point x="158" y="755" type="line"/>
      <point x="147" y="760"/>
      <point x="124" y="765"/>
      <point x="106" y="765" type="curve" smooth="yes"/>
      <point x="32" y="765"/>
      <point x="1" y="703"/>
      <point x="1" y="597" type="curve" smooth="yes"/>
    </contour>
  </outline>
</glyph>
<glyph name="uni019A" format="2">
  <advance width="300"/>
  <unicode hex="019A"/>
  <anchor x="150" y="0" name="bottom"/>
  <anchor x="150" y="760" name="top"/>
  <anchor x="265" y="760" name="topright"/>
  <anchor x="162" y="382" name="center"/>
  <outline>
    <contour>
      <point x="39" y="335" type="line"/>
      <point x="259" y="335" type="line"/>
      <point x="259" y="423" type="line"/>
      <point x="39" y="423" type="line"/>
    </contour>
    <component base="l" xOffset="10"/>
  </outline>
</glyph>
<glyph name="uni019B" format="2">
  <advance width="300"/>
  <unicode hex="019B"/>
  <anchor x="156" y="0" name="bottom"/>
  <anchor x="159" y="766" name="top"/>
  <outline>
    <contour>
      <point x="60" y="512" type="line"/>
      <point x="225" y="607" type="line"/>
      <point x="197" y="683" type="line"/>
      <point x="33" y="589" type="line"/>
    </contour>
    <component base="lambda" xOffset="32"/>
  </outline>
</glyph>
<glyph name="uni019D" format="2">
  <advance width="300"/>
  <unicode hex="019D"/>
  <anchor x="150" y="-219" name="bottom"/>
  <anchor x="150" y="714" name="top"/>
  <anchor x="300" y="714" name="topright"/>
  <outline>
    <contour>
      <point x="-5" y="-219" type="curve" smooth="yes"/>
      <point x="79" y="-219"/>
      <point x="118" y="-161"/>
      <point x="118" y="-6" type="curve" smooth="yes"/>
      <point x="118" y="182" type="line"/>
      <point x="14" y="174" type="line"/>
      <point x="14" y="17" type="line" smooth="yes"/>
      <point x="14" y="-90"/>
      <point x="5" y="-126"/>
      <point x="-25" y="-126" type="curve" smooth="yes"/>
      <point x="-42" y="-126"/>
      <point x="-52" y="-122"/>
      <point x="-63" y="-116" type="curve"/>
      <point x="-63" y="-208" type="line"/>
      <point x="-44" y="-216"/>
      <point x="-26" y="-219"/>
    </contour>
    <component base="N" xOffset="10"/>
  </outline>
</glyph>
<glyph name="uni01A3" format="2">
  <advance width="300"/>
  <unicode hex="01A3"/>
  <anchor x="102" y="0" name="bottom"/>
  <anchor x="102" y="277" name="center"/>
  <anchor x="104" y="10" name="ogonek"/>
  <anchor x="161" y="540" name="top"/>
  <outline>
    <contour>
      <point x="198" y="-240" type="line"/>
      <point x="278" y="-240" type="line"/>
      <point x="278" y="404" type="line" smooth="yes"/>
      <point x="278" y="511"/>
      <point x="257" y="552"/>
      <point x="217" y="552" type="curve" smooth="yes"/>
      <point x="186" y="552"/>
      <point x="173" y="520"/>
      <point x="165" y="488" type="curve"/>
      <point x="153" y="531"/>
      <point x="138" y="552"/>
      <point x="102" y="552" type="curve" smooth="yes"/>
      <point x="37" y="552"/>
      <point x="18" y="470"/>
      <point x="18" y="272" type="curve" smooth="yes"/>
      <point x="18" y="88"/>
      <point x="41" y="-10"/>
      <point x="101" y="-10" type="curve" smooth="yes"/>
      <point x="169" y="-10"/>
      <point x="184" y="88"/>
      <point x="184" y="272" type="curve" smooth="yes"/>
      <point x="184" y="331"/>
      <point x="180" y="400"/>
      <point x="180" y="435" type="curve"/>
      <point x="181" y="448"/>
      <point x="186" y="468"/>
      <point x="189" y="468" type="curve" smooth="yes"/>
      <point x="195" y="468"/>
      <point x="198" y="453"/>
      <point x="198" y="409" type="curve" smooth="yes"/>
    </contour>
    <contour>
      <point x="101" y="72" type="curve" smooth="yes"/>
      <point x="100" y="72"/>
      <point x="99" y="115"/>
      <point x="99" y="271" type="curve" smooth="yes"/>
      <point x="99" y="429"/>
      <point x="98" y="470"/>
      <point x="101" y="470" type="curve" smooth="yes"/>
      <point x="102" y="470"/>
      <point x="105" y="428"/>
      <point x="105" y="272" type="curve" smooth="yes"/>
      <point x="105" y="114"/>
      <point x="106" y="72"/>
    </contour>
  </outline>
</glyph>
<glyph name="uni01AA" format="2">
  <advance width="300"/>
  <unicode hex="01AA"/>
  <anchor x="151" y="-240" name="bottom"/>
  <anchor x="151" y="770" name="top"/>
  <outline>
    <contour>
      <point x="197" y="-240" type="curve" smooth="yes"/>
      <point x="228" y="-240"/>
      <point x="258" y="-232"/>
      <point x="282" y="-214" type="curve"/>
      <point x="282" y="-115" type="line"/>
      <point x="263" y="-127"/>
      <point x="248" y="-134"/>
      <point x="231" y="-134" type="curve" smooth="yes"/>
      <point x="212" y="-134"/>
      <point x="206" y="-110"/>
      <point x="206" y="-52" type="curve" smooth="yes"/>
      <point x="206" y="596" type="line" smooth="yes"/>
      <point x="206" y="706"/>
      <point x="183" y="768"/>
      <point x="112" y="768" type="curve" smooth="yes"/>
      <point x="43" y="768"/>
      <point x="21" y="712"/>
      <point x="21" y="650" type="curve" smooth="yes"/>
      <point x="21" y="582"/>
      <point x="38" y="530"/>
      <point x="106" y="530" type="curve" smooth="yes"/>
      <point x="90" y="530" type="line"/>
      <point x="90" y="-64" type="line" smooth="yes"/>
      <point x="90" y="-191"/>
      <point x="127" y="-240"/>
    </contour>
    <contour>
      <point x="104" y="609" type="line" smooth="yes"/>
      <point x="106" y="609"/>
      <point x="101" y="622"/>
      <point x="101" y="651" type="curve" smooth="yes"/>
      <point x="101" y="672"/>
      <point x="98" y="686"/>
      <point x="94" y="686" type="curve" smooth="yes"/>
      <point x="94" y="686"/>
      <point x="90" y="665"/>
      <point x="90" y="631" type="curve" smooth="yes"/>
      <point x="90" y="609" type="line"/>
    </contour>
  </outline>
</glyph>
<glyph name="uni01AB" format="2">
  <advance width="300"/>
  <unicode hex="01AB"/>
  <anchor x="181" y="-240" name="bottom"/>
  <anchor x="150" y="681" name="top"/>
  <anchor x="289" y="681" name="topright"/>
  <anchor x="135" y="289" name="center"/>
  <outline>
    <contour>
      <point x="181" y="-240" type="curve" smooth="yes"/>
      <point x="251" y="-240"/>
      <point x="288" y="-178"/>
      <point x="288" y="-72" type="curve" smooth="yes"/>
      <point x="288" y="66" type="line"/>
      <point x="179" y="28" type="line"/>
      <point x="179" y="-69" type="line" smooth="yes"/>
      <point x="179" y="-118"/>
      <point x="164" y="-137"/>
      <point x="152" y="-137" type="curve" smooth="yes"/>
      <point x="150" y="-137"/>
      <point x="142" y="-134"/>
      <point x="134" y="-128" type="curve"/>
      <point x="134" y="-230" type="line"/>
      <point x="144" y="-235"/>
      <point x="171" y="-240"/>
    </contour>
    <component base="t" xOffset="10"/>
  </outline>
</glyph>
<glyph name="uni01AC" format="2">
  <advance width="300"/>
  <unicode hex="01AC"/>
  <anchor x="162" y="0" name="bottom"/>
  <anchor x="162" y="714" name="top"/>
  <outline>
    <contour>
      <point x="104" y="0" type="line"/>
      <point x="220" y="0" type="line"/>
      <point x="220" y="605" type="line"/>
      <point x="287" y="605" type="line"/>
      <point x="287" y="714" type="line"/>
      <point x="126" y="714" type="line" smooth="yes"/>
      <point x="30" y="714"/>
      <point x="7" y="640"/>
      <point x="7" y="557" type="curve" smooth="yes"/>
      <point x="7" y="525"/>
      <point x="14" y="504"/>
      <point x="16" y="493" type="curve"/>
      <point x="106" y="493" type="line"/>
      <point x="104" y="503"/>
      <point x="101" y="522"/>
      <point x="101" y="543" type="curve" smooth="yes"/>
      <point x="101" y="577"/>
      <point x="102" y="602"/>
      <point x="116" y="602" type="curve" smooth="yes"/>
      <point x="104" y="602" type="line"/>
    </contour>
  </outline>
</glyph>
<glyph name="uni01B2" format="2">
  <advance width="300"/>
  <unicode hex="01B2"/>
  <anchor x="150" y="0" name="bottom"/>
  <anchor x="262" y="10" name="ogonek"/>
  <anchor x="150" y="714" name="top"/>
  <anchor x="279" y="714" name="topright"/>
  <outline>
    <contour>
      <point x="151" y="-10" type="curve" smooth="yes"/>
      <point x="259" y="-10"/>
      <point x="286" y="73"/>
      <point x="286" y="250" type="curve" smooth="yes"/>
      <point x="286" y="591" type="line" smooth="yes"/>
      <point x="286" y="674"/>
      <point x="258" y="724"/>
      <point x="200" y="724" type="curve" smooth="yes"/>
      <point x="172" y="724"/>
      <point x="147" y="717"/>
      <point x="129" y="705" type="curve"/>
      <point x="129" y="598" type="line"/>
      <point x="136" y="604"/>
      <point x="145" y="610"/>
      <point x="152" y="610" type="curve" smooth="yes"/>
      <point x="158" y="610"/>
      <point x="169" y="597"/>
      <point x="169" y="567" type="curve" smooth="yes"/>
      <point x="169" y="258" type="line" smooth="yes"/>
      <point x="169" y="147"/>
      <point x="179" y="99"/>
      <point x="150" y="99" type="curve" smooth="yes"/>
      <point x="127" y="99"/>
      <point x="131" y="144"/>
      <point x="131" y="257" type="curve" smooth="yes"/>
      <point x="131" y="714" type="line"/>
      <point x="14" y="714" type="line"/>
      <point x="14" y="248" type="line" smooth="yes"/>
      <point x="14" y="72"/>
      <point x="48" y="-10"/>
    </contour>
  </outline>
</glyph>
<glyph name="uni01B3" format="2">
  <advance width="300"/>
  <unicode hex="01B3"/>
  <anchor x="150" y="0" name="bottom"/>
  <anchor x="150" y="714" name="top"/>
  <outline>
    <contour>
      <point x="100" y="0" type="line"/>
      <point x="217" y="0" type="line"/>
      <point x="217" y="263" type="line"/>
      <point x="295" y="714" type="line"/>
      <point x="175" y="714" type="line"/>
      <point x="161" y="385" type="line"/>
      <point x="152" y="610" type="line" smooth="yes"/>
      <point x="149" y="692"/>
      <point x="124" y="724"/>
      <point x="65" y="724" type="curve" smooth="yes"/>
      <point x="41" y="724"/>
      <point x="20" y="718"/>
      <point x="9" y="711" type="curve"/>
      <point x="9" y="607" type="line"/>
      <point x="15" y="611"/>
      <point x="21" y="616"/>
      <point x="38" y="616" type="curve" smooth="yes"/>
      <point x="56" y="616"/>
      <point x="65" y="600"/>
      <point x="69" y="559" type="curve" smooth="yes"/>
      <point x="99" y="262" type="line"/>
    </contour>
  </outline>
</glyph>
<glyph name="uni01B6" format="2">
  <advance width="300"/>
  <unicode hex="01B6"/>
  <anchor x="145" y="0" name="bottom"/>
  <anchor x="145" y="545" name="top"/>
  <anchor x="289" y="545" name="topright"/>
  <outline>
    <contour>
      <point x="33" y="231" type="line"/>
      <point x="266" y="231" type="line"/>
      <point x="266" y="320" type="line"/>
      <point x="33" y="320" type="line"/>
    </contour>
    <component base="z" xOffset="10"/>
  </outline>
</glyph>
<glyph name="uni01BA" format="2">
  <advance width="300"/>
  <unicode hex="01BA"/>
  <anchor x="150" y="-240" name="bottom"/>
  <anchor x="150" y="545" name="top"/>
  <outline>
    <contour>
      <point x="141" y="-240" type="curve" smooth="yes"/>
      <point x="187" y="-240"/>
      <point x="221" y="-225"/>
      <point x="246" y="-206" type="curve"/>
      <point x="246" y="-104" type="line"/>
      <point x="231" y="-119"/>
      <point x="203" y="-137"/>
      <point x="155" y="-137" type="curve" smooth="yes"/>
      <point x="141" y="-137"/>
      <point x="138" y="-125"/>
      <point x="138" y="-97" type="curve" smooth="yes"/>
      <point x="138" y="-71"/>
      <point x="141" y="-54"/>
      <point x="169" y="-54" type="curve" smooth="yes"/>
      <point x="243" y="-54"/>
      <point x="285" y="21"/>
      <point x="285" y="133" type="curve" smooth="yes"/>
      <point x="285" y="240"/>
      <point x="279" y="299"/>
      <point x="213" y="309" type="curve"/>
      <point x="271" y="459" type="line"/>
      <point x="271" y="545" type="line"/>
      <point x="35" y="545" type="line"/>
      <point x="35" y="440" type="line"/>
      <point x="113" y="440" type="line"/>
      <point x="68" y="305" type="line"/>
      <point x="68" y="220" type="line"/>
      <point x="117" y="220" type="line" smooth="yes"/>
      <point x="162" y="220"/>
      <point x="162" y="197"/>
      <point x="162" y="135" type="curve" smooth="yes"/>
      <point x="162" y="75"/>
      <point x="148" y="49"/>
      <point x="137" y="49" type="curve" smooth="yes"/>
      <point x="48" y="49"/>
      <point x="21" y="-14"/>
      <point x="21" y="-96" type="curve" smooth="yes"/>
      <point x="21" y="-197"/>
      <point x="73" y="-240"/>
    </contour>
  </outline>
</glyph>
<glyph name="uni01BD" format="2">
  <advance width="300"/>
  <unicode hex="01BD"/>
  <anchor x="150" y="0" name="bottom"/>
  <anchor x="150" y="545" name="top"/>
  <outline>
    <contour>
      <point x="128" y="-10" type="curve" smooth="yes"/>
      <point x="234" y="-10"/>
      <point x="283" y="76"/>
      <point x="283" y="183" type="curve" smooth="yes"/>
      <point x="283" y="288"/>
      <point x="250" y="349"/>
      <point x="170" y="349" type="curve" smooth="yes"/>
      <point x="179" y="349" type="line"/>
      <point x="179" y="440" type="line"/>
      <point x="266" y="440" type="line"/>
      <point x="266" y="545" type="line"/>
      <point x="21" y="545" type="line"/>
      <point x="21" y="440" type="line"/>
      <point x="67" y="440" type="line"/>
      <point x="67" y="251" type="line"/>
      <point x="114" y="251" type="line" smooth="yes"/>
      <point x="150" y="251"/>
      <point x="161" y="228"/>
      <point x="161" y="176" type="curve" smooth="yes"/>
      <point x="161" y="120"/>
      <point x="138" y="95"/>
      <point x="110" y="95" type="curve" smooth="yes"/>
      <point x="73" y="95"/>
      <point x="43" y="115"/>
      <point x="20" y="133" type="curve"/>
      <point x="20" y="23" type="line"/>
      <point x="48" y="5"/>
      <point x="79" y="-10"/>
    </contour>
  </outline>
</glyph>
<glyph name="uni01C2" format="2">
  <advance width="300"/>
  <unicode hex="01C2"/>
  <anchor x="149" y="0" name="bottom"/>
  <anchor x="149" y="762" name="top"/>
  <outline>
    <contour>
      <point x="39" y="437" type="line"/>
      <point x="260" y="437" type="line"/>
      <point x="260" y="529" type="line"/>
      <point x="39" y="529" type="line"/>
    </contour>
    <contour>
      <point x="39" y="218" type="line"/>
      <point x="260" y="218" type="line"/>
      <point x="260" y="310" type="line"/>
      <point x="39" y="310" type="line"/>
    </contour>
    <component base="uni01C0" xOffset="10"/>
  </outline>
</glyph>
<glyph name="uni021D" format="2">
  <advance width="300"/>
  <unicode hex="021D"/>
  <anchor x="143" y="-179" name="bottom"/>
  <anchor x="137" y="545" name="top"/>
  <outline>
    <contour>
      <point x="9" y="-240" type="line"/>
      <point x="160" y="-197"/>
      <point x="277" y="-119"/>
      <point x="277" y="59" type="curve" smooth="yes"/>
      <point x="277" y="144"/>
      <point x="264" y="192"/>
      <point x="233" y="223" type="curve"/>
      <point x="258" y="261"/>
      <point x="269" y="310"/>
      <point x="269" y="376" type="curve" smooth="yes"/>
      <point x="269" y="495"/>
      <point x="218" y="555"/>
      <point x="138" y="555" type="curve" smooth="yes"/>
      <point x="87" y="555"/>
      <point x="49" y="538"/>
      <point x="13" y="511" type="curve"/>
      <point x="52" y="416" type="line"/>
      <point x="78" y="436"/>
      <point x="99" y="449"/>
      <point x="128" y="449" type="curve" smooth="yes"/>
      <point x="150" y="449"/>
      <point x="156" y="419"/>
      <point x="156" y="370" type="curve" smooth="yes"/>
      <point x="156" y="298"/>
      <point x="133" y="267"/>
      <point x="56" y="236" type="curve"/>
      <point x="80" y="144" type="line"/>
      <point x="104" y="153"/>
      <point x="122" y="163"/>
      <point x="144" y="174" type="curve"/>
      <point x="155" y="148"/>
      <point x="161" y="115"/>
      <point x="161" y="59" type="curve" smooth="yes"/>
      <point x="161" y="-36"/>
      <point x="132" y="-91"/>
      <point x="9" y="-133" type="curve"/>
    </contour>
  </outline>
</glyph>
<glyph name="uni0220" format="2">
  <advance width="300"/>
  <unicode hex="0220"/>
  <anchor x="150" y="-240" name="bottom"/>
  <anchor x="150" y="357" name="center"/>
  <anchor x="150" y="714" name="top"/>
  <anchor x="22" y="714" name="topleft"/>
  <outline>
    <contour>
      <point x="164" y="-240" type="line"/>
      <point x="279" y="-240" type="line"/>
      <point x="279" y="554" type="line" smooth="yes"/>
      <point x="279" y="675"/>
      <point x="244" y="725"/>
      <point x="207" y="725" type="curve" smooth="yes"/>
      <point x="188" y="725"/>
      <point x="159" y="693"/>
      <point x="143" y="644" type="curve"/>
      <point x="140" y="644" type="line"/>
      <point x="128" y="714" type="line"/>
      <point x="28" y="714" type="line"/>
      <point x="28" y="0" type="line"/>
      <point x="144" y="0" type="line"/>
      <point x="144" y="512" type="line" smooth="yes"/>
      <point x="144" y="584"/>
      <point x="161" y="617"/>
      <point x="154" y="617" type="curve" smooth="yes"/>
      <point x="159" y="617"/>
      <point x="164" y="587"/>
      <point x="164" y="526" type="curve" smooth="yes"/>
    </contour>
  </outline>
</glyph>
<glyph name="uni0222" format="2">
  <advance width="300"/>
  <unicode hex="0222"/>
  <anchor x="150" y="0" name="bottom"/>
  <anchor x="150" y="714" name="top"/>
  <outline>
    <contour>
      <point x="150" y="-10" type="curve" smooth="yes"/>
      <point x="230" y="-10"/>
      <point x="273" y="87"/>
      <point x="273" y="225" type="curve" smooth="yes"/>
      <point x="273" y="319"/>
      <point x="257" y="391"/>
      <point x="228" y="421" type="curve"/>
      <point x="251" y="450"/>
      <point x="258" y="502"/>
      <point x="258" y="599" type="curve" smooth="yes"/>
      <point x="258" y="714" type="line"/>
      <point x="170" y="714" type="line"/>
      <point x="170" y="596" type="line" smooth="yes"/>
      <point x="170" y="493"/>
      <point x="163" y="458"/>
      <point x="150" y="458" type="curve" smooth="yes"/>
      <point x="137" y="458"/>
      <point x="129" y="494"/>
      <point x="129" y="595" type="curve" smooth="yes"/>
      <point x="129" y="714" type="line"/>
      <point x="41" y="714" type="line"/>
      <point x="41" y="597" type="line" smooth="yes"/>
      <point x="41" y="503"/>
      <point x="49" y="450"/>
      <point x="71" y="421" type="curve"/>
      <point x="44" y="394"/>
      <point x="26" y="330"/>
      <point x="26" y="226" type="curve" smooth="yes"/>
      <point x="26" y="90"/>
      <point x="72" y="-10"/>
    </contour>
    <contour>
      <point x="150" y="78" type="curve" smooth="yes"/>
      <point x="130" y="78"/>
      <point x="117" y="128"/>
      <point x="117" y="227" type="curve" smooth="yes"/>
      <point x="117" y="324"/>
      <point x="129" y="373"/>
      <point x="150" y="373" type="curve" smooth="yes"/>
      <point x="170" y="373"/>
      <point x="182" y="325"/>
      <point x="182" y="227" type="curve" smooth="yes"/>
      <point x="182" y="126"/>
      <point x="171" y="78"/>
    </contour>
  </outline>
</glyph>
<glyph name="uni0223" format="2">
  <advance width="300"/>
  <unicode hex="0223"/>
  <anchor x="151" y="0" name="bottom"/>
  <anchor x="151" y="760" name="top"/>
  <outline>
    <contour>
      <point x="150" y="-10" type="curve" smooth="yes"/>
      <point x="248" y="-10"/>
      <point x="279" y="97"/>
      <point x="279" y="242" type="curve" smooth="yes"/>
      <point x="279" y="353"/>
      <point x="265" y="424"/>
      <point x="233" y="451" type="curve"/>
      <point x="259" y="476"/>
      <point x="263" y="524"/>
      <point x="263" y="604" type="curve" smooth="yes"/>
      <point x="263" y="760" type="line"/>
      <point x="171" y="760" type="line"/>
      <point x="171" y="603" type="line" smooth="yes"/>
      <point x="171" y="523"/>
      <point x="168" y="489"/>
      <point x="152" y="489" type="curve" smooth="yes"/>
      <point x="134" y="489"/>
      <point x="131" y="519"/>
      <point x="131" y="604" type="curve" smooth="yes"/>
      <point x="131" y="760" type="line"/>
      <point x="38" y="760" type="line"/>
      <point x="38" y="608" type="line" smooth="yes"/>
      <point x="38" y="520"/>
      <point x="44" y="472"/>
      <point x="66" y="448" type="curve"/>
      <point x="31" y="419"/>
      <point x="23" y="349"/>
      <point x="23" y="242" type="curve" smooth="yes"/>
      <point x="23" y="95"/>
      <point x="59" y="-10"/>
    </contour>
    <contour>
      <point x="151" y="75" type="curve" smooth="yes"/>
      <point x="124" y="75"/>
      <point x="118" y="133"/>
      <point x="118" y="243" type="curve" smooth="yes"/>
      <point x="118" y="356"/>
      <point x="125" y="410"/>
      <point x="152" y="410" type="curve" smooth="yes"/>
      <point x="177" y="410"/>
      <point x="185" y="355"/>
      <point x="185" y="244" type="curve" smooth="yes"/>
      <point x="185" y="131"/>
      <point x="178" y="75"/>
    </contour>
  </outline>
</glyph>
<glyph name="uni0224" format="2">
  <advance width="300"/>
  <unicode hex="0224"/>
  <anchor x="145" y="-240" name="bottom"/>
  <anchor x="143" y="714" name="top"/>
  <anchor x="290" y="714" name="topright"/>
  <outline>
    <contour>
      <point x="164" y="-224" type="curve" smooth="yes"/>
      <point x="235" y="-224"/>
      <point x="282" y="-167"/>
      <point x="282" y="-55" type="curve" smooth="yes"/>
      <point x="282" y="109" type="line"/>
      <point x="172" y="109" type="line"/>
      <point x="172" y="0" type="line"/>
      <point x="174" y="0" type="line"/>
      <point x="174" y="-52" type="line" smooth="yes"/>
      <point x="174" y="-104"/>
      <point x="164" y="-126"/>
      <point x="132" y="-126" type="curve" smooth="yes"/>
      <point x="122" y="-126"/>
      <point x="113" y="-123"/>
      <point x="104" y="-117" type="curve"/>
      <point x="104" y="-214" type="line"/>
      <point x="117" y="-221"/>
      <point x="135" y="-224"/>
    </contour>
    <component base="Z" xOffset="10"/>
  </outline>
</glyph>
<glyph name="uni0234" format="2">
  <advance width="300"/>
  <unicode hex="0234"/>
  <anchor x="218" y="0" name="bottom"/>
  <anchor x="139" y="760" name="top"/>
  <outline>
    <contour>
      <point x="117" y="-29" type="line"/>
      <point x="119" y="-2"/>
      <point x="120" y="34"/>
      <point x="126" y="53" type="curve"/>
      <point x="139" y="24"/>
      <point x="152" y="-10"/>
      <point x="197" y="-10" type="curve" smooth="yes"/>
      <point x="265" y="-10"/>
      <point x="298" y="50"/>
      <point x="298" y="129" type="curve" smooth="yes"/>
      <point x="298" y="204"/>
      <point x="264" y="256"/>
      <point x="218" y="256" type="curve" smooth="yes"/>
      <point x="205" y="256"/>
      <point x="195" y="245"/>
      <point x="192" y="237" type="curve"/>
      <point x="192" y="760" type="line"/>
      <point x="76" y="760" type="line"/>
      <point x="76" y="213" type="line" smooth="yes"/>
      <point x="76" y="176"/>
      <point x="79" y="157"/>
      <point x="83" y="138" type="curve"/>
      <point x="65" y="108"/>
      <point x="51" y="55"/>
      <point x="44" y="10" type="curve"/>
    </contour>
    <contour>
      <point x="198" y="79" type="curve" smooth="yes"/>
      <point x="195" y="79"/>
      <point x="194" y="105"/>
      <point x="191" y="141" type="curve"/>
      <point x="191" y="153"/>
      <point x="193" y="165"/>
      <point x="200" y="165" type="curve" smooth="yes"/>
      <point x="198" y="165"/>
      <point x="201" y="149"/>
      <point x="201" y="124" type="curve" smooth="yes"/>
      <point x="201" y="99"/>
      <point x="197" y="79"/>
    </contour>
  </outline>
</glyph>
<glyph name="jdotless" format="2">
  <advance width="300"/>
  <unicode hex="0237"/>
  <anchor x="150" y="-245" name="bottom"/>
  <anchor x="175" y="545" name="top"/>
  <outline>
    <contour>
      <point x="106" y="-245" type="curve" smooth="yes"/>
      <point x="203" y="-245"/>
      <point x="236" y="-183"/>
      <point x="236" y="-52" type="curve" smooth="yes"/>
      <point x="236" y="545" type="line"/>
      <point x="37" y="545" type="line"/>
      <point x="37" y="454" type="line"/>
      <point x="121" y="441" type="line"/>
      <point x="121" y="-38" type="line" smooth="yes"/>
      <point x="121" y="-110"/>
      <point x="115" y="-140"/>
      <point x="90" y="-140" type="curve" smooth="yes"/>
      <point x="80" y="-140"/>
      <point x="51" y="-132"/>
      <point x="21" y="-121" type="curve"/>
      <point x="21" y="-225" type="line"/>
      <point x="55" y="-238"/>
      <point x="87" y="-245"/>
    </contour>
  </outline>
</glyph>
<glyph name="uni0238" format="2">
  <advance width="300"/>
  <unicode hex="0238"/>
  <anchor x="149" y="0" name="bottom"/>
  <anchor x="150" y="760" name="top"/>
  <outline>
    <contour>
      <point x="93" y="-10" type="curve" smooth="yes"/>
      <point x="119" y="-10"/>
      <point x="139" y="23"/>
      <point x="149" y="84" type="curve"/>
      <point x="157" y="23"/>
      <point x="177" y="-10"/>
      <point x="202" y="-10" type="curve" smooth="yes"/>
      <point x="268" y="-10"/>
      <point x="284" y="94"/>
      <point x="284" y="271" type="curve" smooth="yes"/>
      <point x="284" y="478"/>
      <point x="260" y="549"/>
      <point x="219" y="549" type="curve" smooth="yes"/>
      <point x="202" y="549"/>
      <point x="190" y="528"/>
      <point x="184" y="498" type="curve"/>
      <point x="182" y="498" type="line"/>
      <point x="183" y="521"/>
      <point x="183" y="538"/>
      <point x="183" y="559" type="curve" smooth="yes"/>
      <point x="183" y="760" type="line"/>
      <point x="114" y="760" type="line"/>
      <point x="114" y="558" type="line" smooth="yes"/>
      <point x="114" y="537"/>
      <point x="114" y="523"/>
      <point x="116" y="498" type="curve"/>
      <point x="113" y="498" type="line"/>
      <point x="108" y="528"/>
      <point x="96" y="549"/>
      <point x="79" y="549" type="curve" smooth="yes"/>
      <point x="36" y="549"/>
      <point x="13" y="477"/>
      <point x="13" y="272" type="curve" smooth="yes"/>
      <point x="13" y="92"/>
      <point x="27" y="-10"/>
    </contour>
    <contour>
      <point x="100" y="73" type="curve" smooth="yes"/>
      <point x="93" y="73"/>
      <point x="88" y="118"/>
      <point x="88" y="271" type="curve" smooth="yes"/>
      <point x="88" y="421"/>
      <point x="93" y="465"/>
      <point x="100" y="465" type="curve" smooth="yes"/>
      <point x="109" y="465"/>
      <point x="114" y="428"/>
      <point x="114" y="272" type="curve" smooth="yes"/>
      <point x="114" y="115"/>
      <point x="111" y="73"/>
    </contour>
    <contour>
      <point x="197" y="73" type="curve" smooth="yes"/>
      <point x="187" y="73"/>
      <point x="184" y="114"/>
      <point x="184" y="272" type="curve" smooth="yes"/>
      <point x="184" y="426"/>
      <point x="186" y="465"/>
      <point x="197" y="465" type="curve" smooth="yes"/>
      <point x="204" y="465"/>
      <point x="210" y="423"/>
      <point x="210" y="272" type="curve" smooth="yes"/>
      <point x="210" y="113"/>
      <point x="205" y="73"/>
    </contour>
  </outline>
</glyph>
<glyph name="uni023B" format="2">
  <advance width="300"/>
  <unicode hex="023B"/>
  <anchor x="150" y="-75" name="bottom"/>
  <anchor x="151" y="760" name="top"/>
  <anchor x="288" y="714" name="topright"/>
  <outline>
    <contour>
      <point x="164" y="-75" type="line"/>
      <point x="207" y="-75" type="line"/>
      <point x="233" y="760" type="line"/>
      <point x="190" y="760" type="line"/>
    </contour>
    <component base="C" xOffset="10"/>
  </outline>
</glyph>
<glyph name="uni023C" format="2">
  <advance width="300"/>
  <unicode hex="023C"/>
  <anchor x="150" y="-208" name="bottom"/>
  <anchor x="167" y="760" name="top"/>
  <anchor x="288" y="545" name="topright"/>
  <outline>
    <contour>
      <point x="87" y="-208" type="line"/>
      <point x="146" y="-208" type="line"/>
      <point x="280" y="760" type="line"/>
      <point x="221" y="760" type="line"/>
    </contour>
    <component base="c" xOffset="10"/>
  </outline>
</glyph>
<glyph name="uni023D" format="2">
  <advance width="300"/>
  <unicode hex="023D"/>
  <anchor x="150" y="0" name="bottom"/>
  <anchor x="91" y="714" name="top"/>
  <anchor x="231" y="714" name="topright"/>
  <anchor x="160" y="357" name="center"/>
  <outline>
    <contour>
      <point x="10" y="320" type="line"/>
      <point x="229" y="320" type="line"/>
      <point x="229" y="409" type="line"/>
      <point x="10" y="409" type="line"/>
    </contour>
    <component base="L" xOffset="10"/>
  </outline>
</glyph>
<glyph name="uni023E" format="2">
  <advance width="300"/>
  <unicode hex="023E"/>
  <anchor x="150" y="-75" name="bottom"/>
  <anchor x="150" y="760" name="top"/>
  <anchor x="288" y="714" name="topright"/>
  <anchor x="160" y="357" name="center"/>
  <outline>
    <contour>
      <point x="31" y="-75" type="line"/>
      <point x="76" y="-75" type="line"/>
      <point x="260" y="760" type="line"/>
      <point x="214" y="760" type="line"/>
    </contour>
    <component base="T" xOffset="10"/>
  </outline>
</glyph>
<glyph name="uni023F" format="2">
  <advance width="300"/>
  <unicode hex="023F"/>
  <anchor x="167" y="-240" name="bottom"/>
  <anchor x="150" y="545" name="top"/>
  <anchor x="288" y="545" name="topright"/>
  <outline>
    <contour>
      <point x="176" y="-240" type="curve" smooth="yes"/>
      <point x="195" y="-240"/>
      <point x="209" y="-235"/>
      <point x="221" y="-228" type="curve"/>
      <point x="221" y="-137" type="line"/>
      <point x="216" y="-142"/>
      <point x="208" y="-146"/>
      <point x="200" y="-146" type="curve" smooth="yes"/>
      <point x="191" y="-146"/>
      <point x="182" y="-121"/>
      <point x="174" y="-65" type="curve" smooth="yes"/>
      <point x="171" y="-39"/>
      <point x="169" y="-17"/>
      <point x="160" y="-5" type="curve"/>
      <point x="44" y="12" type="line"/>
      <point x="62" y="-2"/>
      <point x="70" y="-21"/>
      <point x="80" y="-89" type="curve" smooth="yes"/>
      <point x="95" y="-184"/>
      <point x="115" y="-240"/>
    </contour>
    <component base="s" xOffset="10"/>
  </outline>
</glyph>
<glyph name="uni0240" format="2">
  <advance width="300"/>
  <unicode hex="0240"/>
  <anchor x="167" y="-240" name="bottom"/>
  <anchor x="146" y="545" name="top"/>
  <outline>
    <contour>
      <point x="223" y="-240" type="curve" smooth="yes"/>
      <point x="242" y="-240"/>
      <point x="263" y="-235"/>
      <point x="278" y="-226" type="curve"/>
      <point x="278" y="-128" type="line"/>
      <point x="267" y="-134"/>
      <point x="258" y="-138"/>
      <point x="253" y="-138" type="curve" smooth="yes"/>
      <point x="240" y="-138"/>
      <point x="231" y="-110"/>
      <point x="216" y="-37" type="curve" smooth="yes"/>
      <point x="203" y="27"/>
      <point x="202" y="77"/>
      <point x="154" y="94" type="curve"/>
      <point x="270" y="453" type="line"/>
      <point x="270" y="545" type="line"/>
      <point x="20" y="545" type="line"/>
      <point x="20" y="442" type="line"/>
      <point x="139" y="442" type="line"/>
      <point x="20" y="80" type="line"/>
      <point x="20" y="0" type="line"/>
      <point x="85" y="0" type="line" smooth="yes"/>
      <point x="106" y="0"/>
      <point x="107" y="-37"/>
      <point x="115" y="-89" type="curve" smooth="yes"/>
      <point x="127" y="-168"/>
      <point x="146" y="-240"/>
    </contour>
  </outline>
</glyph>
<glyph name="uni0243" format="2">
  <advance width="300"/>
  <unicode hex="0243"/>
  <anchor x="150" y="0" name="bottom"/>
  <anchor x="150" y="714" name="top"/>
  <anchor x="288" y="714" name="topright"/>
  <outline>
    <contour>
      <point x="10" y="179" type="line"/>
      <point x="146" y="179" type="line"/>
      <point x="146" y="252" type="line"/>
      <point x="10" y="252" type="line"/>
    </contour>
    <component base="B" xOffset="10"/>
  </outline>
</glyph>
<glyph name="uni0244" format="2">
  <advance width="300"/>
  <unicode hex="0244"/>
  <anchor x="150" y="0" name="bottom"/>
  <anchor x="150" y="714" name="top"/>
  <anchor x="272" y="10" name="ogonek"/>
  <anchor x="289" y="714" name="topright"/>
  <outline>
    <contour>
      <point x="10" y="340" type="line"/>
      <point x="290" y="340" type="line"/>
      <point x="290" y="435" type="line"/>
      <point x="10" y="435" type="line"/>
    </contour>
    <component base="U" xOffset="10"/>
  </outline>
</glyph>
<glyph name="uni0247" format="2">
  <advance width="300"/>
  <unicode hex="0247"/>
  <anchor x="150" y="-208" name="bottom"/>
  <anchor x="150" y="760" name="top"/>
  <anchor x="167" y="10" name="ogonek"/>
  <anchor x="298" y="545" name="topright"/>
  <outline>
    <contour>
      <point x="36" y="-208" type="line"/>
      <point x="95" y="-208" type="line"/>
      <point x="229" y="760" type="line"/>
      <point x="170" y="760" type="line"/>
    </contour>
    <component base="e" xOffset="10"/>
  </outline>
</glyph>
<glyph name="uni0248" format="2">
  <advance width="300"/>
  <unicode hex="0248"/>
  <anchor x="150" y="-205" name="bottom"/>
  <anchor x="164" y="714" name="top"/>
  <outline>
    <contour>
      <point x="45" y="-205" type="curve" smooth="yes"/>
      <point x="153" y="-205"/>
      <point x="220" y="-106"/>
      <point x="220" y="31" type="curve" smooth="yes"/>
      <point x="220" y="714" type="line"/>
      <point x="106" y="714" type="line"/>
      <point x="106" y="57" type="line" smooth="yes"/>
      <point x="106" y="-50"/>
      <point x="67" y="-100"/>
      <point x="30" y="-100" type="curve" smooth="yes"/>
      <point x="28" y="-100"/>
      <point x="6" y="-93"/>
      <point x="-14" y="-77" type="curve"/>
      <point x="-14" y="-181" type="line"/>
      <point x="1" y="-196"/>
      <point x="23" y="-205"/>
    </contour>
    <contour>
      <point x="41" y="308" type="line"/>
      <point x="277" y="308" type="line"/>
      <point x="277" y="403" type="line"/>
      <point x="41" y="403" type="line"/>
    </contour>
  </outline>
</glyph>
<glyph name="uni024A" format="2">
  <advance width="300"/>
  <unicode hex="024A"/>
  <anchor x="150" y="-240" name="bottom"/>
  <anchor x="150" y="714" name="top"/>
  <outline>
    <contour>
      <point x="275" y="-240" type="curve"/>
      <point x="296" y="-240"/>
      <point x="317" y="-233"/>
      <point x="325" y="-226" type="curve"/>
      <point x="325" y="-124" type="line"/>
      <point x="321" y="-129"/>
      <point x="312" y="-134"/>
      <point x="305" y="-134" type="curve" smooth="yes"/>
      <point x="292" y="-134"/>
      <point x="286" y="-114"/>
      <point x="286" y="-64" type="curve" smooth="yes"/>
      <point x="286" y="135" type="line"/>
      <point x="170" y="108" type="line"/>
      <point x="168" y="76"/>
      <point x="167" y="46"/>
      <point x="167" y="7" type="curve" smooth="yes"/>
      <point x="167" y="-70" type="line" smooth="yes"/>
      <point x="167" y="-190"/>
      <point x="207" y="-240"/>
    </contour>
    <component base="uni2C6D" xOffset="10"/>
  </outline>
</glyph>
<glyph name="uni024B" format="2">
  <advance width="300"/>
  <unicode hex="024B"/>
  <anchor x="139" y="-240" name="bottom"/>
  <anchor x="135" y="545" name="top"/>
  <outline>
    <contour>
      <point x="261" y="-240" type="curve" smooth="yes"/>
      <point x="285" y="-240"/>
      <point x="307" y="-234"/>
      <point x="319" y="-227" type="curve"/>
      <point x="319" y="-123" type="line"/>
      <point x="311" y="-128"/>
      <point x="306" y="-131"/>
      <point x="297" y="-131" type="curve" smooth="yes"/>
      <point x="287" y="-131"/>
      <point x="283" y="-111"/>
      <point x="283" y="-64" type="curve" smooth="yes"/>
      <point x="283" y="545" type="line"/>
      <point x="189" y="545" type="line"/>
      <point x="177" y="474" type="line"/>
      <point x="171" y="474" type="line"/>
      <point x="149" y="526"/>
      <point x="129" y="555"/>
      <point x="114" y="555" type="curve" smooth="yes"/>
      <point x="62" y="555"/>
      <point x="11" y="452"/>
      <point x="11" y="270" type="curve" smooth="yes"/>
      <point x="11" y="105"/>
      <point x="48" y="-10"/>
      <point x="114" y="-10" type="curve" smooth="yes"/>
      <point x="134" y="-10"/>
      <point x="156" y="22"/>
      <point x="172" y="73" type="curve"/>
      <point x="178" y="73" type="line"/>
      <point x="175" y="43"/>
      <point x="170" y="9"/>
      <point x="170" y="-31" type="curve" smooth="yes"/>
      <point x="170" y="-72" type="line" smooth="yes"/>
      <point x="170" y="-173"/>
      <point x="189" y="-240"/>
    </contour>
    <contour>
      <point x="158" y="96" type="curve" smooth="yes"/>
      <point x="139" y="96"/>
      <point x="134" y="152"/>
      <point x="134" y="271" type="curve" smooth="yes"/>
      <point x="134" y="386"/>
      <point x="139" y="449"/>
      <point x="155" y="449" type="curve" smooth="yes"/>
      <point x="175" y="449"/>
      <point x="173" y="386"/>
      <point x="173" y="271" type="curve" smooth="yes"/>
      <point x="173" y="253" type="line" smooth="yes"/>
      <point x="173" y="151"/>
      <point x="174" y="96"/>
    </contour>
  </outline>
</glyph>
<glyph name="uni024E" format="2">
  <advance width="300"/>
  <unicode hex="024E"/>
  <anchor x="150" y="0" name="bottom"/>
  <anchor x="150" y="714" name="top"/>
  <anchor x="29" y="714" name="topleft"/>
  <anchor x="286" y="714" name="topright"/>
  <outline>
    <contour>
      <point x="10" y="540" type="line"/>
      <point x="290" y="540" type="line"/>
      <point x="290" y="612" type="line"/>
      <point x="10" y="612" type="line"/>
    </contour>
    <component base="Y" xOffset="10"/>
  </outline>
</glyph>
<glyph name="uni0253" format="2">
  <advance width="300"/>
  <unicode hex="0253"/>
  <anchor x="150" y="0" name="bottom"/>
  <anchor x="150" y="765" name="top"/>
  <outline>
    <contour>
      <point x="194" y="-10" type="curve" smooth="yes"/>
      <point x="243" y="-10"/>
      <point x="289" y="93"/>
      <point x="289" y="274" type="curve" smooth="yes"/>
      <point x="289" y="443"/>
      <point x="253" y="555"/>
      <point x="193" y="555" type="curve" smooth="yes"/>
      <point x="172" y="555"/>
      <point x="151" y="526"/>
      <point x="129" y="475" type="curve"/>
      <point x="125" y="475" type="line"/>
      <point x="129" y="508"/>
      <point x="130" y="539"/>
      <point x="130" y="570" type="curve" smooth="yes"/>
      <point x="130" y="598" type="line" smooth="yes"/>
      <point x="130" y="648"/>
      <point x="138" y="662"/>
      <point x="151" y="662" type="curve" smooth="yes"/>
      <point x="161" y="662"/>
      <point x="173" y="659"/>
      <point x="179" y="654" type="curve"/>
      <point x="179" y="755" type="line"/>
      <point x="169" y="760"/>
      <point x="142" y="765"/>
      <point x="121" y="765" type="curve" smooth="yes"/>
      <point x="54" y="765"/>
      <point x="17" y="703"/>
      <point x="17" y="598" type="curve" smooth="yes"/>
      <point x="17" y="0" type="line"/>
      <point x="107" y="0" type="line"/>
      <point x="122" y="62" type="line"/>
      <point x="129" y="62" type="line"/>
      <point x="155" y="14"/>
      <point x="178" y="-10"/>
    </contour>
    <contour>
      <point x="153" y="96" type="curve" smooth="yes"/>
      <point x="137" y="96"/>
      <point x="128" y="155"/>
      <point x="128" y="276" type="curve" smooth="yes"/>
      <point x="128" y="391"/>
      <point x="135" y="449"/>
      <point x="148" y="449" type="curve" smooth="yes"/>
      <point x="160" y="449"/>
      <point x="169" y="392"/>
      <point x="169" y="273" type="curve" smooth="yes"/>
      <point x="169" y="157"/>
      <point x="167" y="96"/>
    </contour>
  </outline>
</glyph>
<glyph name="uni0256" format="2">
  <advance width="300"/>
  <unicode hex="0256"/>
  <anchor x="150" y="-240" name="bottom"/>
  <anchor x="150" y="760" name="top"/>
  <outline>
    <contour>
      <point x="251" y="-240" type="curve" smooth="yes"/>
      <point x="281" y="-240"/>
      <point x="309" y="-232"/>
      <point x="333" y="-217" type="curve"/>
      <point x="333" y="-117" type="line"/>
      <point x="320" y="-127"/>
      <point x="304" y="-134"/>
      <point x="290" y="-134" type="curve" smooth="yes"/>
      <point x="283" y="-134"/>
      <point x="283" y="-117"/>
      <point x="283" y="-77" type="curve" smooth="yes"/>
      <point x="283" y="760" type="line"/>
      <point x="170" y="760" type="line"/>
      <point x="170" y="565" type="line" smooth="yes"/>
      <point x="170" y="539"/>
      <point x="171" y="510"/>
      <point x="173" y="475" type="curve"/>
      <point x="169" y="475" type="line"/>
      <point x="149" y="528"/>
      <point x="131" y="555"/>
      <point x="111" y="555" type="curve" smooth="yes"/>
      <point x="51" y="555"/>
      <point x="11" y="451"/>
      <point x="11" y="273" type="curve" smooth="yes"/>
      <point x="11" y="89"/>
      <point x="52" y="-10"/>
      <point x="111" y="-10" type="curve" smooth="yes"/>
      <point x="132" y="-10"/>
      <point x="145" y="14"/>
      <point x="170" y="61" type="curve"/>
      <point x="174" y="61" type="line"/>
      <point x="171" y="36"/>
      <point x="170" y="12"/>
      <point x="170" y="-13" type="curve" smooth="yes"/>
      <point x="170" y="-78" type="line" smooth="yes"/>
      <point x="170" y="-194"/>
      <point x="195" y="-240"/>
    </contour>
    <contour>
      <point x="151" y="94" type="curve" smooth="yes"/>
      <point x="138" y="94"/>
      <point x="127" y="152"/>
      <point x="127" y="272" type="curve" smooth="yes"/>
      <point x="127" y="389"/>
      <point x="133" y="449"/>
      <point x="153" y="449" type="curve" smooth="yes"/>
      <point x="171" y="449"/>
      <point x="171" y="399"/>
      <point x="171" y="286" type="curve" smooth="yes"/>
      <point x="171" y="255" type="line" smooth="yes"/>
      <point x="171" y="144"/>
      <point x="167" y="94"/>
    </contour>
  </outline>
</glyph>
<glyph name="eopenreversedhook" format="2">
  <advance width="300"/>
  <unicode hex="025D"/>
  <anchor x="102" y="0" name="bottom"/>
  <anchor x="96" y="545" name="top"/>
  <outline>
    <contour>
      <point x="252" y="267" type="curve" smooth="yes"/>
      <point x="274" y="267"/>
      <point x="285" y="282"/>
      <point x="295" y="299" type="curve"/>
      <point x="277" y="350" type="line"/>
      <point x="275" y="341"/>
      <point x="270" y="334"/>
      <point x="262" y="334" type="curve" smooth="yes"/>
      <point x="256" y="334"/>
      <point x="252" y="350"/>
      <point x="247" y="427" type="curve" smooth="yes"/>
      <point x="244" y="477" type="line"/>
      <point x="186" y="451" type="line"/>
      <point x="189" y="368" type="line"/>
      <point x="200" y="377" type="line"/>
      <point x="209" y="290"/>
      <point x="231" y="267"/>
    </contour>
    <component base="afii10073" xOffset="-39"/>
  </outline>
</glyph>
<glyph name="uni0262" format="2">
  <advance width="300"/>
  <unicode hex="0262"/>
  <anchor x="167" y="0" name="bottom"/>
  <anchor x="167" y="545" name="top"/>
  <outline>
    <contour>
      <point x="165" y="-10" type="curve" smooth="yes"/>
      <point x="207" y="-10"/>
      <point x="250" y="9"/>
      <point x="268" y="30" type="curve"/>
      <point x="268" y="299" type="line"/>
      <point x="143" y="299" type="line"/>
      <point x="143" y="215" type="line"/>
      <point x="169" y="215" type="line"/>
      <point x="169" y="94" type="line"/>
      <point x="169" y="91"/>
      <point x="167" y="88"/>
      <point x="165" y="88" type="curve" smooth="yes"/>
      <point x="155" y="88"/>
      <point x="142" y="148"/>
      <point x="142" y="269" type="curve" smooth="yes"/>
      <point x="142" y="395"/>
      <point x="158" y="460"/>
      <point x="182" y="460" type="curve" smooth="yes"/>
      <point x="204" y="460"/>
      <point x="220" y="449"/>
      <point x="241" y="431" type="curve"/>
      <point x="271" y="520" type="line"/>
      <point x="247" y="540"/>
      <point x="215" y="554"/>
      <point x="174" y="554" type="curve" smooth="yes"/>
      <point x="80" y="554"/>
      <point x="35" y="439"/>
      <point x="35" y="269" type="curve" smooth="yes"/>
      <point x="35" y="81"/>
      <point x="84" y="-10"/>
    </contour>
  </outline>
</glyph>
<glyph name="uni0263" format="2">
  <advance width="300"/>
  <unicode hex="0263"/>
  <anchor x="150" y="-240" name="bottom"/>
  <anchor x="150" y="545" name="top"/>
  <outline>
    <contour>
      <point x="136" y="-240" type="curve"/>
      <point x="199" y="-240"/>
      <point x="235" y="-181"/>
      <point x="235" y="-99" type="curve"/>
      <point x="235" y="-49"/>
      <point x="230" y="28"/>
      <point x="207" y="100" type="curve"/>
      <point x="293" y="545" type="line"/>
      <point x="156" y="545" type="line"/>
      <point x="150" y="325" type="line" smooth="yes"/>
      <point x="149" y="287"/>
      <point x="137" y="224"/>
      <point x="141" y="190" type="curve"/>
      <point x="139" y="190" type="line"/>
      <point x="140" y="223"/>
      <point x="132" y="294"/>
      <point x="131" y="326" type="curve" smooth="yes"/>
      <point x="127" y="545" type="line"/>
      <point x="-8" y="545" type="line"/>
      <point x="65" y="111" type="line"/>
      <point x="47" y="31"/>
      <point x="37" y="-38"/>
      <point x="37" y="-98" type="curve"/>
      <point x="37" y="-185"/>
      <point x="71" y="-240"/>
    </contour>
    <contour>
      <point x="135" y="-158" type="curve"/>
      <point x="134" y="-158"/>
      <point x="135" y="-140"/>
      <point x="135" y="-97" type="curve"/>
      <point x="135" y="-72"/>
      <point x="126" y="-26"/>
      <point x="135" y="26" type="curve"/>
      <point x="145" y="-26"/>
      <point x="136" y="-72"/>
      <point x="136" y="-99" type="curve"/>
      <point x="136" y="-141"/>
      <point x="136" y="-158"/>
    </contour>
  </outline>
</glyph>
<glyph name="uni0267" format="2">
  <advance width="300"/>
  <unicode hex="0267"/>
  <anchor x="150" y="-240" name="bottom"/>
  <anchor x="150" y="273" name="center"/>
  <anchor x="90" y="760" name="top"/>
  <outline>
    <contour>
      <point x="189" y="-240" type="curve" smooth="yes"/>
      <point x="256" y="-240"/>
      <point x="286" y="-190"/>
      <point x="286" y="-74" type="curve" smooth="yes"/>
      <point x="286" y="355" type="line" smooth="yes"/>
      <point x="286" y="488"/>
      <point x="246" y="555"/>
      <point x="191" y="555" type="curve" smooth="yes"/>
      <point x="169" y="555"/>
      <point x="148" y="523"/>
      <point x="131" y="474" type="curve"/>
      <point x="125" y="474" type="line"/>
      <point x="130" y="507"/>
      <point x="133" y="532"/>
      <point x="133" y="552" type="curve" smooth="yes"/>
      <point x="133" y="600" type="line" smooth="yes"/>
      <point x="133" y="647"/>
      <point x="140" y="664"/>
      <point x="154" y="664" type="curve" smooth="yes"/>
      <point x="160" y="664"/>
      <point x="169" y="661"/>
      <point x="176" y="655" type="curve"/>
      <point x="176" y="755" type="line"/>
      <point x="166" y="760"/>
      <point x="139" y="765"/>
      <point x="126" y="765" type="curve" smooth="yes"/>
      <point x="54" y="765"/>
      <point x="17" y="703"/>
      <point x="17" y="602" type="curve" smooth="yes"/>
      <point x="17" y="0" type="line"/>
      <point x="133" y="0" type="line"/>
      <point x="133" y="279" type="line" smooth="yes"/>
      <point x="133" y="385"/>
      <point x="125" y="446"/>
      <point x="151" y="446" type="curve" smooth="yes"/>
      <point x="177" y="446"/>
      <point x="170" y="401"/>
      <point x="170" y="321" type="curve" smooth="yes"/>
      <point x="170" y="-74" type="line" smooth="yes"/>
      <point x="170" y="-117"/>
      <point x="164" y="-138"/>
      <point x="152" y="-138" type="curve" smooth="yes"/>
      <point x="134" y="-138"/>
      <point x="125" y="-130"/>
      <point x="117" y="-123" type="curve"/>
      <point x="117" y="-220" type="line"/>
      <point x="133" y="-231"/>
      <point x="158" y="-240"/>
    </contour>
  </outline>
</glyph>
<glyph name="uni0268" format="2">
  <advance width="300"/>
  <unicode hex="0268"/>
  <anchor x="149" y="0" name="bottom"/>
  <anchor x="149" y="770" name="top"/>
  <anchor x="261" y="770" name="topright"/>
  <outline>
    <contour>
      <point x="33" y="224" type="line"/>
      <point x="267" y="224" type="line"/>
      <point x="267" y="313" type="line"/>
      <point x="33" y="313" type="line"/>
    </contour>
    <component base="i" xOffset="10"/>
  </outline>
</glyph>
<glyph name="uni026D" format="2">
  <advance width="300"/>
  <unicode hex="026D"/>
  <anchor x="189" y="-240" name="bottom"/>
  <anchor x="134" y="760" name="top"/>
  <outline>
    <contour>
      <point x="199" y="-240" type="curve" smooth="yes"/>
      <point x="228" y="-240"/>
      <point x="251" y="-232"/>
      <point x="268" y="-222" type="curve"/>
      <point x="268" y="-121" type="line"/>
      <point x="261" y="-127"/>
      <point x="246" y="-134"/>
      <point x="233" y="-134" type="curve" smooth="yes"/>
      <point x="212" y="-134"/>
      <point x="206" y="-109"/>
      <point x="206" y="-59" type="curve" smooth="yes"/>
      <point x="206" y="760" type="line"/>
      <point x="35" y="760" type="line"/>
      <point x="35" y="672" type="line"/>
      <point x="92" y="662" type="line"/>
      <point x="92" y="-68" type="line" smooth="yes"/>
      <point x="92" y="-189"/>
      <point x="132" y="-240"/>
    </contour>
  </outline>
</glyph>
<glyph name="uni0270" format="2">
  <advance width="300"/>
  <unicode hex="0270"/>
  <anchor x="250" y="-240" name="bottom"/>
  <anchor x="152" y="540" name="top"/>
  <outline>
    <contour>
      <point x="210" y="-240" type="line"/>
      <point x="288" y="-240" type="line"/>
      <point x="288" y="540" type="line"/>
      <point x="210" y="540" type="line"/>
      <point x="210" y="197" type="line" smooth="yes"/>
      <point x="210" y="140"/>
      <point x="213" y="72"/>
      <point x="197" y="72" type="curve" smooth="yes"/>
      <point x="184" y="72"/>
      <point x="188" y="101"/>
      <point x="188" y="154" type="curve" smooth="yes"/>
      <point x="188" y="540" type="line"/>
      <point x="113" y="540" type="line"/>
      <point x="113" y="189" type="line" smooth="yes"/>
      <point x="113" y="128"/>
      <point x="116" y="72"/>
      <point x="100" y="72" type="curve" smooth="yes"/>
      <point x="86" y="72"/>
      <point x="90" y="102"/>
      <point x="90" y="152" type="curve" smooth="yes"/>
      <point x="90" y="540" type="line"/>
      <point x="13" y="540" type="line"/>
      <point x="13" y="151" type="line" smooth="yes"/>
      <point x="13" y="41"/>
      <point x="18" y="-11"/>
      <point x="62" y="-11" type="curve" smooth="yes"/>
      <point x="87" y="-11"/>
      <point x="101" y="14"/>
      <point x="114" y="62" type="curve"/>
      <point x="116" y="62" type="line"/>
      <point x="125" y="15"/>
      <point x="134" y="-11"/>
      <point x="161" y="-11" type="curve" smooth="yes"/>
      <point x="181" y="-11"/>
      <point x="198" y="13"/>
      <point x="208" y="56" type="curve"/>
      <point x="210" y="56" type="line"/>
    </contour>
  </outline>
</glyph>
<glyph name="uni0272" format="2">
  <advance width="300"/>
  <unicode hex="0272"/>
  <anchor x="154" y="-240" name="bottom"/>
  <anchor x="154" y="545" name="top"/>
  <outline>
    <contour>
      <point x="24" y="-240" type="curve" smooth="yes"/>
      <point x="96" y="-240"/>
      <point x="133" y="-196"/>
      <point x="133" y="-81" type="curve" smooth="yes"/>
      <point x="133" y="288" type="line" smooth="yes"/>
      <point x="133" y="400"/>
      <point x="127" y="453"/>
      <point x="151" y="453" type="curve" smooth="yes"/>
      <point x="163" y="453"/>
      <point x="170" y="418"/>
      <point x="170" y="339" type="curve" smooth="yes"/>
      <point x="170" y="0" type="line"/>
      <point x="286" y="0" type="line"/>
      <point x="286" y="355" type="line" smooth="yes"/>
      <point x="286" y="493"/>
      <point x="251" y="555"/>
      <point x="192" y="555" type="curve" smooth="yes"/>
      <point x="174" y="555"/>
      <point x="150" y="528"/>
      <point x="131" y="478" type="curve"/>
      <point x="127" y="478" type="line"/>
      <point x="112" y="545" type="line"/>
      <point x="17" y="545" type="line"/>
      <point x="17" y="-86" type="line" smooth="yes"/>
      <point x="17" y="-126"/>
      <point x="7" y="-139"/>
      <point x="-5" y="-139" type="curve" smooth="yes"/>
      <point x="-14" y="-139"/>
      <point x="-22" y="-135"/>
      <point x="-25" y="-131" type="curve"/>
      <point x="-25" y="-230" type="line"/>
      <point x="-12" y="-236"/>
      <point x="4" y="-240"/>
    </contour>
  </outline>
</glyph>
<glyph name="omegaclosed" format="2">
  <advance width="300"/>
  <unicode hex="0277"/>
  <anchor x="151" y="0" name="bottom"/>
  <anchor x="151" y="540" name="top"/>
  <outline>
    <contour>
      <point x="90" y="-10" type="curve"/>
      <point x="124" y="-10"/>
      <point x="142" y="26"/>
      <point x="150" y="81" type="curve"/>
      <point x="151" y="81" type="line"/>
      <point x="157" y="27"/>
      <point x="174" y="-10"/>
      <point x="208" y="-10" type="curve"/>
      <point x="258" y="-10"/>
      <point x="284" y="75"/>
      <point x="284" y="245" type="curve"/>
      <point x="284" y="439"/>
      <point x="243" y="550"/>
      <point x="151" y="550" type="curve"/>
      <point x="63" y="550"/>
      <point x="15" y="434"/>
      <point x="15" y="245" type="curve"/>
      <point x="15" y="75"/>
      <point x="43" y="-10"/>
    </contour>
    <contour>
      <point x="105" y="78" type="curve" smooth="yes"/>
      <point x="99" y="78"/>
      <point x="97" y="128"/>
      <point x="97" y="245" type="curve" smooth="yes"/>
      <point x="97" y="384"/>
      <point x="108" y="469"/>
      <point x="149" y="469" type="curve"/>
      <point x="191" y="469"/>
      <point x="203" y="379"/>
      <point x="203" y="244" type="curve" smooth="yes"/>
      <point x="203" y="128"/>
      <point x="200" y="79"/>
      <point x="194" y="79" type="curve" smooth="yes"/>
      <point x="191" y="79"/>
      <point x="191" y="117"/>
      <point x="191" y="205" type="curve" smooth="yes"/>
      <point x="191" y="309" type="line"/>
      <point x="110" y="309" type="line"/>
      <point x="110" y="205" type="line" smooth="yes"/>
      <point x="110" y="118"/>
      <point x="107" y="78"/>
    </contour>
  </outline>
</glyph>
<glyph name="rlongleg" format="2">
  <advance width="300"/>
  <unicode hex="027C"/>
  <anchor x="114" y="-240" name="bottom"/>
  <anchor x="154" y="545" name="top"/>
  <outline>
    <contour>
      <point x="57" y="-240" type="line"/>
      <point x="168" y="-240" type="line"/>
      <point x="168" y="273" type="line" smooth="yes"/>
      <point x="168" y="365"/>
      <point x="187" y="430"/>
      <point x="219" y="430" type="curve" smooth="yes"/>
      <point x="230" y="430"/>
      <point x="247" y="426"/>
      <point x="258" y="415" type="curve"/>
      <point x="289" y="536" type="line"/>
      <point x="264" y="551"/>
      <point x="248" y="555"/>
      <point x="238" y="555" type="curve" smooth="yes"/>
      <point x="200" y="555"/>
      <point x="172" y="513"/>
      <point x="158" y="451" type="curve"/>
      <point x="152" y="451" type="line"/>
      <point x="142" y="545" type="line"/>
      <point x="10" y="545" type="line"/>
      <point x="10" y="454" type="line"/>
      <point x="57" y="441" type="line"/>
    </contour>
  </outline>
</glyph>
<glyph name="uni027D" format="2">
  <advance width="300"/>
  <unicode hex="027D"/>
  <anchor x="168" y="-240" name="bottom"/>
  <anchor x="151" y="545" name="top"/>
  <outline>
    <contour>
      <point x="159" y="-240" type="curve" smooth="yes"/>
      <point x="189" y="-240"/>
      <point x="210" y="-232"/>
      <point x="226" y="-223" type="curve"/>
      <point x="226" y="-125" type="line"/>
      <point x="218" y="-130"/>
      <point x="211" y="-135"/>
      <point x="195" y="-135" type="curve" smooth="yes"/>
      <point x="182" y="-135"/>
      <point x="168" y="-117"/>
      <point x="168" y="-75" type="curve" smooth="yes"/>
      <point x="168" y="273" type="line" smooth="yes"/>
      <point x="168" y="365"/>
      <point x="187" y="430"/>
      <point x="219" y="430" type="curve" smooth="yes"/>
      <point x="230" y="430"/>
      <point x="247" y="426"/>
      <point x="258" y="415" type="curve"/>
      <point x="289" y="536" type="line"/>
      <point x="264" y="551"/>
      <point x="248" y="555"/>
      <point x="238" y="555" type="curve" smooth="yes"/>
      <point x="200" y="555"/>
      <point x="172" y="513"/>
      <point x="158" y="451" type="curve"/>
      <point x="152" y="451" type="line"/>
      <point x="142" y="545" type="line"/>
      <point x="10" y="545" type="line"/>
      <point x="10" y="454" type="line"/>
      <point x="57" y="441" type="line"/>
      <point x="57" y="-78" type="line" smooth="yes"/>
      <point x="57" y="-194"/>
      <point x="93" y="-240"/>
    </contour>
  </outline>
</glyph>
<glyph name="uni027E" format="2">
  <advance width="300"/>
  <unicode hex="027E"/>
  <anchor x="150" y="0" name="bottom"/>
  <anchor x="180" y="545" name="top"/>
  <outline>
    <contour>
      <point x="75" y="0" type="line"/>
      <point x="191" y="0" type="line"/>
      <point x="191" y="322" type="line" smooth="yes"/>
      <point x="191" y="411"/>
      <point x="199" y="446"/>
      <point x="229" y="446" type="curve" smooth="yes"/>
      <point x="245" y="446"/>
      <point x="251" y="437"/>
      <point x="260" y="429" type="curve"/>
      <point x="277" y="537" type="line"/>
      <point x="261" y="545"/>
      <point x="242" y="555"/>
      <point x="219" y="555" type="curve" smooth="yes"/>
      <point x="113" y="555"/>
      <point x="75" y="468"/>
      <point x="75" y="330" type="curve" smooth="yes"/>
    </contour>
  </outline>
</glyph>
<glyph name="uni0280" format="2">
  <advance width="300"/>
  <unicode hex="0280"/>
  <anchor x="159" y="0" name="bottom"/>
  <anchor x="150" y="540" name="top"/>
  <outline>
    <contour>
      <point x="45" y="0" type="line"/>
      <point x="133" y="0" type="line"/>
      <point x="133" y="211" type="line"/>
      <point x="146" y="211" type="line"/>
      <point x="182" y="0" type="line"/>
      <point x="282" y="0" type="line"/>
      <point x="225" y="230" type="line"/>
      <point x="252" y="254"/>
      <point x="262" y="308"/>
      <point x="262" y="380" type="curve" smooth="yes"/>
      <point x="262" y="483"/>
      <point x="224" y="541"/>
      <point x="155" y="541" type="curve" smooth="yes"/>
      <point x="45" y="541" type="line"/>
    </contour>
    <contour>
      <point x="133" y="284" type="line"/>
      <point x="133" y="467" type="line"/>
      <point x="152" y="467" type="line" smooth="yes"/>
      <point x="165" y="467"/>
      <point x="174" y="436"/>
      <point x="174" y="379" type="curve" smooth="yes"/>
      <point x="174" y="308"/>
      <point x="158" y="284"/>
      <point x="143" y="284" type="curve" smooth="yes"/>
    </contour>
  </outline>
</glyph>
<glyph name="uni0282" format="2">
  <advance width="300"/>
  <unicode hex="0282"/>
  <anchor x="150" y="-291" name="bottom"/>
  <anchor x="150" y="545" name="top"/>
  <anchor x="288" y="545" name="topright"/>
  <outline>
    <contour>
      <point x="97" y="-240" type="curve" smooth="yes"/>
      <point x="115" y="-240"/>
      <point x="138" y="-235"/>
      <point x="149" y="-229" type="curve"/>
      <point x="149" y="-152" type="line"/>
      <point x="146" y="-155"/>
      <point x="137" y="-158"/>
      <point x="129" y="-158" type="curve" smooth="yes"/>
      <point x="125" y="-158"/>
      <point x="117" y="-145"/>
      <point x="117" y="-116" type="curve" smooth="yes"/>
      <point x="117" y="29" type="line"/>
      <point x="29" y="84" type="line"/>
      <point x="29" y="-134" type="line" smooth="yes"/>
      <point x="29" y="-207"/>
      <point x="52" y="-240"/>
    </contour>
    <component base="s" xOffset="10"/>
  </outline>
</glyph>
<glyph name="uni0283" format="2">
  <advance width="300"/>
  <unicode hex="0283"/>
  <anchor x="137" y="-240" name="bottom"/>
  <anchor x="165" y="763" name="top"/>
  <outline>
    <contour>
      <point x="108" y="-240" type="curve" smooth="yes"/>
      <point x="174" y="-240"/>
      <point x="210" y="-181"/>
      <point x="210" y="-54" type="curve" smooth="yes"/>
      <point x="210" y="573" type="line" smooth="yes"/>
      <point x="210" y="633"/>
      <point x="216" y="664"/>
      <point x="230" y="664" type="curve" smooth="yes"/>
      <point x="238" y="664"/>
      <point x="242" y="659"/>
      <point x="250" y="653" type="curve"/>
      <point x="250" y="753" type="line"/>
      <point x="239" y="760"/>
      <point x="219" y="765"/>
      <point x="204" y="765" type="curve" smooth="yes"/>
      <point x="142" y="765"/>
      <point x="95" y="698"/>
      <point x="95" y="575" type="curve" smooth="yes"/>
      <point x="95" y="-53" type="line" smooth="yes"/>
      <point x="95" y="-110"/>
      <point x="94" y="-138"/>
      <point x="80" y="-138" type="curve" smooth="yes"/>
      <point x="71" y="-138"/>
      <point x="62" y="-131"/>
      <point x="52" y="-121" type="curve"/>
      <point x="52" y="-219" type="line"/>
      <point x="68" y="-232"/>
      <point x="87" y="-240"/>
    </contour>
  </outline>
</glyph>
<glyph name="uni0284" format="2">
  <advance width="300"/>
  <unicode hex="0284"/>
  <anchor x="126" y="-240" name="bottom"/>
  <anchor x="181" y="765" name="top"/>
  <outline>
    <contour>
      <point x="15" y="249" type="line"/>
      <point x="280" y="249" type="line"/>
      <point x="280" y="338" type="line"/>
      <point x="15" y="338" type="line"/>
    </contour>
    <component base="uni0283" xOffset="10"/>
  </outline>
</glyph>
<glyph name="uni028B" format="2">
  <advance width="300"/>
  <unicode hex="028B"/>
  <anchor x="150" y="0" name="bottom"/>
  <anchor x="150" y="545" name="top"/>
  <outline>
    <contour>
      <point x="151" y="-10" type="curve" smooth="yes"/>
      <point x="247" y="-10"/>
      <point x="286" y="72"/>
      <point x="286" y="195" type="curve" smooth="yes"/>
      <point x="286" y="393" type="line" smooth="yes"/>
      <point x="286" y="508"/>
      <point x="261" y="555"/>
      <point x="198" y="555" type="curve" smooth="yes"/>
      <point x="180" y="555"/>
      <point x="159" y="550"/>
      <point x="141" y="541" type="curve"/>
      <point x="141" y="442" type="line"/>
      <point x="146" y="446"/>
      <point x="157" y="449"/>
      <point x="164" y="449" type="curve" smooth="yes"/>
      <point x="167" y="449"/>
      <point x="170" y="433"/>
      <point x="170" y="393" type="curve" smooth="yes"/>
      <point x="170" y="202" type="line" smooth="yes"/>
      <point x="170" y="127"/>
      <point x="165" y="99"/>
      <point x="150" y="99" type="curve" smooth="yes"/>
      <point x="135" y="99"/>
      <point x="133" y="127"/>
      <point x="133" y="202" type="curve" smooth="yes"/>
      <point x="133" y="545" type="line"/>
      <point x="17" y="545" type="line"/>
      <point x="17" y="193" type="line" smooth="yes"/>
      <point x="17" y="69"/>
      <point x="50" y="-10"/>
    </contour>
  </outline>
</glyph>
<glyph name="uni028F" format="2">
  <advance width="300"/>
  <unicode hex="028F"/>
  <anchor x="150" y="0" name="bottom"/>
  <anchor x="150" y="545" name="top"/>
  <outline>
    <contour>
      <point x="94" y="0" type="line"/>
      <point x="207" y="0" type="line"/>
      <point x="207" y="223" type="line"/>
      <point x="281" y="545" type="line"/>
      <point x="153" y="545" type="line"/>
      <point x="152" y="342" type="line"/>
      <point x="147" y="545" type="line"/>
      <point x="19" y="545" type="line"/>
      <point x="94" y="223" type="line"/>
    </contour>
  </outline>
</glyph>
<glyph name="ezhcurl" format="2">
  <advance width="300"/>
  <unicode hex="0293"/>
  <anchor x="149" y="-241" name="bottom"/>
  <anchor x="146" y="545" name="top"/>
  <outline>
    <contour>
      <point x="245" y="-241" type="curve"/>
      <point x="309" y="-176" type="line"/>
      <point x="296" y="-142"/>
      <point x="283" y="-109"/>
      <point x="271" y="-86" type="curve"/>
      <point x="275" y="-62"/>
      <point x="275" y="-23"/>
      <point x="275" y="17" type="curve" smooth="yes"/>
      <point x="275" y="168"/>
      <point x="219" y="225"/>
      <point x="191" y="235" type="curve"/>
      <point x="255" y="466" type="line"/>
      <point x="255" y="545" type="line"/>
      <point x="23" y="545" type="line"/>
      <point x="23" y="447" type="line"/>
      <point x="126" y="447" type="line"/>
      <point x="74" y="231" type="line"/>
      <point x="74" y="149" type="line"/>
      <point x="102" y="149" type="line" smooth="yes"/>
      <point x="139" y="149"/>
      <point x="160" y="109"/>
      <point x="160" y="21" type="curve" smooth="yes"/>
      <point x="160" y="9"/>
      <point x="165" y="0"/>
      <point x="168" y="-9" type="curve"/>
      <point x="156" y="17"/>
      <point x="144" y="34"/>
      <point x="117" y="34" type="curve" smooth="yes"/>
      <point x="58" y="34"/>
      <point x="19" y="-19"/>
      <point x="19" y="-102" type="curve" smooth="yes"/>
      <point x="19" y="-190"/>
      <point x="58" y="-240"/>
      <point x="124" y="-240" type="curve" smooth="yes"/>
      <point x="159" y="-240"/>
      <point x="194" y="-210"/>
      <point x="222" y="-171" type="curve"/>
      <point x="229" y="-190"/>
      <point x="239" y="-217"/>
    </contour>
    <contour>
      <point x="115" y="-141" type="curve" smooth="yes"/>
      <point x="104" y="-141"/>
      <point x="110" y="-121"/>
      <point x="110" y="-98" type="curve" smooth="yes"/>
      <point x="110" y="-68"/>
      <point x="113" y="-52"/>
      <point x="118" y="-52" type="curve" smooth="yes"/>
      <point x="123" y="-52"/>
      <point x="138" y="-62"/>
      <point x="144" y="-90" type="curve"/>
      <point x="139" y="-121"/>
      <point x="125" y="-141"/>
    </contour>
  </outline>
</glyph>
<glyph name="uni029B" format="2">
  <advance width="300"/>
  <unicode hex="029B"/>
  <anchor x="176" y="0" name="bottom"/>
  <anchor x="171" y="760" name="top"/>
  <outline>
    <contour>
      <point x="173" y="-10" type="curve" smooth="yes"/>
      <point x="212" y="-10"/>
      <point x="253" y="10"/>
      <point x="269" y="29" type="curve"/>
      <point x="269" y="299" type="line"/>
      <point x="152" y="299" type="line"/>
      <point x="152" y="215" type="line"/>
      <point x="170" y="215" type="line"/>
      <point x="170" y="94" type="line"/>
      <point x="170" y="90"/>
      <point x="169" y="88"/>
      <point x="175" y="88" type="curve" smooth="yes"/>
      <point x="157" y="88"/>
      <point x="144" y="148"/>
      <point x="144" y="269" type="curve" smooth="yes"/>
      <point x="144" y="395"/>
      <point x="159" y="460"/>
      <point x="188" y="460" type="curve" smooth="yes"/>
      <point x="200" y="460"/>
      <point x="212" y="453"/>
      <point x="238" y="435" type="curve"/>
      <point x="271" y="522" type="line"/>
      <point x="271" y="605" type="line" smooth="yes"/>
      <point x="271" y="655"/>
      <point x="276" y="672"/>
      <point x="296" y="672" type="curve" smooth="yes"/>
      <point x="304" y="672"/>
      <point x="315" y="669"/>
      <point x="325" y="663" type="curve"/>
      <point x="325" y="761" type="line"/>
      <point x="313" y="766"/>
      <point x="284" y="771"/>
      <point x="270" y="771" type="curve" smooth="yes"/>
      <point x="204" y="771"/>
      <point x="165" y="712"/>
      <point x="165" y="609" type="curve" smooth="yes"/>
      <point x="165" y="550" type="line"/>
      <point x="165" y="552"/>
      <point x="164" y="554"/>
      <point x="171" y="554" type="curve" smooth="yes"/>
      <point x="82" y="554"/>
      <point x="35" y="439"/>
      <point x="35" y="269" type="curve" smooth="yes"/>
      <point x="35" y="81"/>
      <point x="85" y="-10"/>
    </contour>
  </outline>
</glyph>
<glyph name="uni029D" format="2">
  <advance width="300"/>
  <unicode hex="029D"/>
  <anchor x="171" y="-240" name="bottom"/>
  <anchor x="172" y="760" name="top"/>
  <outline>
    <contour>
      <point x="127" y="-240" type="curve" smooth="yes"/>
      <point x="203" y="-240"/>
      <point x="236" y="-178"/>
      <point x="238" y="-87" type="curve"/>
      <point x="259" y="-87" type="line"/>
      <point x="259" y="-13" type="line"/>
      <point x="236" y="-13" type="line"/>
      <point x="236" y="545" type="line"/>
      <point x="38" y="545" type="line"/>
      <point x="38" y="454" type="line"/>
      <point x="121" y="441" type="line"/>
      <point x="121" y="-13" type="line"/>
      <point x="110" y="-13" type="line" smooth="yes"/>
      <point x="52" y="-13"/>
      <point x="28" y="-55"/>
      <point x="28" y="-126" type="curve" smooth="yes"/>
      <point x="28" y="-196"/>
      <point x="50" y="-240"/>
    </contour>
    <contour>
      <point x="109" y="-167" type="curve" smooth="yes"/>
      <point x="101" y="-167"/>
      <point x="100" y="-152"/>
      <point x="100" y="-129" type="curve" smooth="yes"/>
      <point x="100" y="-101"/>
      <point x="106" y="-87"/>
      <point x="104" y="-87" type="curve" smooth="yes"/>
      <point x="119" y="-87" type="line"/>
      <point x="119" y="-101" type="line" smooth="yes"/>
      <point x="119" y="-147"/>
      <point x="108" y="-167"/>
    </contour>
    <contour>
      <point x="171" y="621" type="curve" smooth="yes"/>
      <point x="209" y="621"/>
      <point x="236" y="647"/>
      <point x="236" y="695" type="curve" smooth="yes"/>
      <point x="236" y="745"/>
      <point x="210" y="770"/>
      <point x="171" y="770" type="curve" smooth="yes"/>
      <point x="133" y="770"/>
      <point x="108" y="745"/>
      <point x="108" y="695" type="curve" smooth="yes"/>
      <point x="108" y="646"/>
      <point x="132" y="621"/>
    </contour>
  </outline>
</glyph>
<glyph name="uni029F" format="2">
  <advance width="300"/>
  <unicode hex="029F"/>
  <anchor x="158" y="0" name="bottom"/>
  <anchor x="106" y="545" name="top"/>
  <outline>
    <contour>
      <point x="51" y="0" type="line"/>
      <point x="253" y="0" type="line"/>
      <point x="253" y="103" type="line"/>
      <point x="160" y="103" type="line"/>
      <point x="160" y="545" type="line"/>
      <point x="51" y="545" type="line"/>
    </contour>
  </outline>
</glyph>
<glyph name="qhook" format="2">
  <advance width="300"/>
  <unicode hex="02A0"/>
  <anchor x="150" y="-240" name="bottom"/>
  <anchor x="150" y="772" name="top"/>
  <outline>
    <contour>
      <point x="170" y="-240" type="line"/>
      <point x="283" y="-240" type="line"/>
      <point x="283" y="600" type="line" smooth="yes"/>
      <point x="283" y="648"/>
      <point x="292" y="666"/>
      <point x="314" y="666" type="curve" smooth="yes"/>
      <point x="324" y="666"/>
      <point x="336" y="663"/>
      <point x="346" y="657" type="curve"/>
      <point x="346" y="761" type="line"/>
      <point x="334" y="767"/>
      <point x="311" y="772"/>
      <point x="289" y="772" type="curve" smooth="yes"/>
      <point x="218" y="772"/>
      <point x="170" y="716"/>
      <point x="170" y="610" type="curve" smooth="yes"/>
      <point x="170" y="544" type="line" smooth="yes"/>
      <point x="170" y="524"/>
      <point x="171" y="501"/>
      <point x="172" y="477" type="curve"/>
      <point x="167" y="477" type="line"/>
      <point x="146" y="535"/>
      <point x="122" y="555"/>
      <point x="109" y="555" type="curve" smooth="yes"/>
      <point x="51" y="555"/>
      <point x="11" y="454"/>
      <point x="11" y="269" type="curve" smooth="yes"/>
      <point x="11" y="90"/>
      <point x="50" y="-10"/>
      <point x="104" y="-10" type="curve" smooth="yes"/>
      <point x="126" y="-10"/>
      <point x="148" y="16"/>
      <point x="169" y="72" type="curve"/>
      <point x="173" y="72" type="line"/>
      <point x="171" y="46"/>
      <point x="170" y="15"/>
      <point x="170" y="-7" type="curve" smooth="yes"/>
    </contour>
    <contour>
      <point x="153" y="96" type="curve" smooth="yes"/>
      <point x="135" y="96"/>
      <point x="135" y="146"/>
      <point x="135" y="268" type="curve" smooth="yes"/>
      <point x="135" y="393"/>
      <point x="140" y="449"/>
      <point x="152" y="449" type="curve" smooth="yes"/>
      <point x="168" y="449"/>
      <point x="173" y="400"/>
      <point x="173" y="278" type="curve" smooth="yes"/>
      <point x="173" y="251" type="line" smooth="yes"/>
      <point x="173" y="142"/>
      <point x="165" y="96"/>
    </contour>
  </outline>
</glyph>
<glyph name="uni02A1" format="2">
  <advance width="300"/>
  <unicode hex="02A1"/>
  <anchor x="129" y="0" name="bottom"/>
  <anchor x="150" y="765" name="top"/>
  <outline>
    <contour>
      <point x="18" y="136" type="line"/>
      <point x="244" y="136" type="line"/>
      <point x="244" y="226" type="line"/>
      <point x="18" y="226" type="line"/>
    </contour>
    <component base="uni0294" xOffset="10"/>
  </outline>
</glyph>
<glyph name="uni02A7" format="2">
  <advance width="300"/>
  <unicode hex="02A7"/>
  <anchor x="150" y="-240" name="bottom"/>
  <anchor x="150" y="765" name="top"/>
  <outline>
    <contour>
      <point x="191" y="-240" type="curve" smooth="yes"/>
      <point x="252" y="-240"/>
      <point x="274" y="-194"/>
      <point x="274" y="-78" type="curve" smooth="yes"/>
      <point x="274" y="604" type="line" smooth="yes"/>
      <point x="274" y="645"/>
      <point x="274" y="660"/>
      <point x="281" y="660" type="curve" smooth="yes"/>
      <point x="284" y="660"/>
      <point x="287" y="658"/>
      <point x="292" y="653" type="curve"/>
      <point x="292" y="757" type="line"/>
      <point x="283" y="762"/>
      <point x="270" y="765"/>
      <point x="257" y="765" type="curve" smooth="yes"/>
      <point x="196" y="765"/>
      <point x="156" y="716"/>
      <point x="156" y="607" type="curve" smooth="yes"/>
      <point x="156" y="545" type="line"/>
      <point x="134" y="545" type="line"/>
      <point x="134" y="661" type="line"/>
      <point x="56" y="661" type="line"/>
      <point x="28" y="542" type="line"/>
      <point x="12" y="510" type="line"/>
      <point x="12" y="448" type="line"/>
      <point x="17" y="448" type="line"/>
      <point x="17" y="158" type="line" smooth="yes"/>
      <point x="17" y="45"/>
      <point x="55" y="-10"/>
      <point x="107" y="-10" type="curve" smooth="yes"/>
      <point x="127" y="-10"/>
      <point x="145" y="-2"/>
      <point x="156" y="11" type="curve"/>
      <point x="156" y="-88" type="line" smooth="yes"/>
      <point x="156" y="-128"/>
      <point x="156" y="-143"/>
      <point x="156" y="-143" type="curve" smooth="yes"/>
      <point x="150" y="-143"/>
      <point x="141" y="-139"/>
      <point x="137" y="-134" type="curve"/>
      <point x="137" y="-225" type="line"/>
      <point x="152" y="-233"/>
      <point x="169" y="-240"/>
    </contour>
    <contour>
      <point x="142" y="92" type="curve" smooth="yes"/>
      <point x="145" y="92"/>
      <point x="134" y="114"/>
      <point x="134" y="159" type="curve" smooth="yes"/>
      <point x="134" y="448" type="line"/>
      <point x="156" y="448" type="line"/>
      <point x="156" y="104" type="line"/>
      <point x="146" y="97"/>
      <point x="145" y="92"/>
    </contour>
  </outline>
</glyph>
<glyph name="tcligcurl" format="2">
  <advance width="300"/>
  <unicode hex="02A8"/>
  <anchor x="150" y="0" name="bottom"/>
  <anchor x="150" y="678" name="top"/>
  <outline>
    <contour>
      <point x="70" y="-10" type="curve" smooth="yes"/>
      <point x="244" y="-10"/>
      <point x="261" y="198"/>
      <point x="316" y="198" type="curve" smooth="yes"/>
      <point x="325" y="198"/>
      <point x="327" y="178"/>
      <point x="327" y="148" type="curve" smooth="yes"/>
      <point x="327" y="111"/>
      <point x="315" y="87"/>
      <point x="300" y="87" type="curve" smooth="yes"/>
      <point x="267" y="87"/>
      <point x="255" y="174"/>
      <point x="255" y="278" type="curve" smooth="yes"/>
      <point x="255" y="393"/>
      <point x="268" y="449"/>
      <point x="310" y="449" type="curve" smooth="yes"/>
      <point x="338" y="449"/>
      <point x="355" y="439"/>
      <point x="380" y="414" type="curve"/>
      <point x="420" y="515" type="line"/>
      <point x="385" y="542"/>
      <point x="344" y="555"/>
      <point x="298" y="555" type="curve" smooth="yes"/>
      <point x="194" y="555"/>
      <point x="137" y="461"/>
      <point x="137" y="276" type="curve" smooth="yes"/>
      <point x="137" y="96"/>
      <point x="193" y="-10"/>
      <point x="293" y="-10" type="curve" smooth="yes"/>
      <point x="376" y="-10"/>
      <point x="432" y="50"/>
      <point x="432" y="148" type="curve" smooth="yes"/>
      <point x="432" y="242"/>
      <point x="392" y="298"/>
      <point x="325" y="298" type="curve" smooth="yes"/>
      <point x="212" y="298"/>
      <point x="193" y="99"/>
      <point x="99" y="99" type="curve" smooth="yes"/>
      <point x="86" y="99"/>
      <point x="58" y="131"/>
      <point x="58" y="205" type="curve" smooth="yes"/>
      <point x="58" y="437" type="line"/>
      <point x="153" y="437" type="line"/>
      <point x="153" y="545" type="line"/>
      <point x="58" y="545" type="line"/>
      <point x="58" y="678" type="line"/>
      <point x="-30" y="678" type="line"/>
      <point x="-52" y="546" type="line"/>
      <point x="-132" y="511" type="line"/>
      <point x="-132" y="437" type="line"/>
      <point x="-63" y="437" type="line"/>
      <point x="-63" y="189" type="line" smooth="yes"/>
      <point x="-63" y="50"/>
      <point x="-3" y="-10"/>
    </contour>
  </outline>
</glyph>
<glyph name="uni02AA" format="2">
  <advance width="300"/>
  <unicode hex="02AA"/>
  <anchor x="150" y="0" name="bottom"/>
  <anchor x="150" y="761" name="top"/>
  <outline>
    <contour>
      <point x="178" y="-10" type="curve" smooth="yes"/>
      <point x="241" y="-10"/>
      <point x="281" y="49"/>
      <point x="281" y="150" type="curve" smooth="yes"/>
      <point x="281" y="230"/>
      <point x="266" y="266"/>
      <point x="243" y="310" type="curve" smooth="yes"/>
      <point x="226" y="343"/>
      <point x="220" y="362"/>
      <point x="220" y="403" type="curve" smooth="yes"/>
      <point x="220" y="443"/>
      <point x="223" y="468"/>
      <point x="234" y="468" type="curve" smooth="yes"/>
      <point x="241" y="468"/>
      <point x="247" y="458"/>
      <point x="257" y="442" type="curve"/>
      <point x="279" y="518" type="line"/>
      <point x="263" y="538"/>
      <point x="244" y="550"/>
      <point x="223" y="550" type="curve" smooth="yes"/>
      <point x="170" y="550"/>
      <point x="133" y="493"/>
      <point x="133" y="398" type="curve" smooth="yes"/>
      <point x="133" y="313"/>
      <point x="151" y="277"/>
      <point x="171" y="241" type="curve" smooth="yes"/>
      <point x="190" y="207"/>
      <point x="192" y="190"/>
      <point x="192" y="148" type="curve" smooth="yes"/>
      <point x="192" y="100"/>
      <point x="180" y="75"/>
      <point x="164" y="75" type="curve" smooth="yes"/>
      <point x="148" y="75"/>
      <point x="130" y="94"/>
      <point x="117" y="112" type="curve"/>
      <point x="117" y="761" type="line"/>
      <point x="34" y="761" type="line"/>
      <point x="34" y="0" type="line"/>
      <point x="117" y="0" type="line"/>
      <point x="117" y="26" type="line"/>
      <point x="131" y="9"/>
      <point x="149" y="-10"/>
    </contour>
  </outline>
</glyph>
<glyph name="uni02AB" format="2">
  <advance width="300"/>
  <unicode hex="02AB"/>
  <anchor x="150" y="0" name="bottom"/>
  <anchor x="150" y="760" name="top"/>
  <outline>
    <contour>
      <point x="30" y="0" type="line"/>
      <point x="278" y="0" type="line"/>
      <point x="278" y="84" type="line"/>
      <point x="214" y="84" type="line"/>
      <point x="273" y="469" type="line"/>
      <point x="273" y="541" type="line"/>
      <point x="123" y="541" type="line"/>
      <point x="123" y="760" type="line"/>
      <point x="30" y="760" type="line"/>
    </contour>
    <contour>
      <point x="123" y="80" type="line"/>
      <point x="123" y="457" type="line"/>
      <point x="179" y="457" type="line"/>
    </contour>
  </outline>
</glyph>
<glyph name="uni02BF" format="2">
  <advance width="300"/>
  <unicode hex="02BF"/>
  <outline>
    <contour>
      <point x="189" y="575" type="curve"/>
      <point x="189" y="641" type="line"/>
      <point x="186" y="641"/>
      <point x="181" y="660"/>
      <point x="181" y="690" type="curve" smooth="yes"/>
      <point x="181" y="720"/>
      <point x="189" y="739"/>
      <point x="189" y="739" type="curve"/>
      <point x="189" y="806" type="line"/>
      <point x="149" y="806"/>
      <point x="112" y="762"/>
      <point x="112" y="690" type="curve" smooth="yes"/>
      <point x="112" y="619"/>
      <point x="150" y="575"/>
    </contour>
  </outline>
</glyph>
<glyph name="caron" format="2">
  <advance width="300"/>
  <unicode hex="02C7"/>
  <anchor x="150" y="528" name="_top"/>
  <anchor x="150" y="763" name="top"/>
  <outline>
    <contour>
      <point x="98" y="606" type="curve"/>
      <point x="204" y="606" type="line"/>
      <point x="213" y="650"/>
      <point x="237" y="715"/>
      <point x="251" y="755" type="curve"/>
      <point x="251" y="766" type="line"/>
      <point x="187" y="766" type="line"/>
      <point x="175" y="739"/>
      <point x="170" y="718"/>
      <point x="151" y="680" type="curve"/>
      <point x="134" y="714"/>
      <point x="123" y="745"/>
      <point x="114" y="766" type="curve"/>
      <point x="49" y="766" type="line"/>
      <point x="49" y="755" type="line"/>
      <point x="68" y="713"/>
      <point x="90" y="647"/>
    </contour>
  </outline>
</glyph>
<glyph name="uni02D0" format="2">
  <advance width="300"/>
  <unicode hex="02D0"/>
  <outline>
    <contour>
      <point x="149" y="413" type="line"/>
      <point x="195" y="545" type="line"/>
      <point x="105" y="545" type="line"/>
    </contour>
    <contour>
      <point x="105" y="0" type="line"/>
      <point x="195" y="0" type="line"/>
      <point x="149" y="132" type="line"/>
    </contour>
  </outline>
</glyph>
<glyph name="uni02D1" format="2">
  <advance width="300"/>
  <unicode hex="02D1"/>
  <outline>
    <contour>
      <point x="149" y="410" type="line"/>
      <point x="195" y="545" type="line"/>
      <point x="105" y="545" type="line"/>
    </contour>
  </outline>
</glyph>
<glyph name="breve" format="2">
  <advance width="300"/>
  <unicode hex="02D8"/>
  <anchor x="149" y="545" name="_top"/>
  <anchor x="150" y="765" name="top"/>
  <outline>
    <contour>
      <point x="149" y="609" type="curve" smooth="yes"/>
      <point x="205" y="609"/>
      <point x="242" y="666"/>
      <point x="240" y="758" type="curve"/>
      <point x="177" y="758" type="line"/>
      <point x="175" y="709"/>
      <point x="163" y="688"/>
      <point x="149" y="688" type="curve" smooth="yes"/>
      <point x="133" y="688"/>
      <point x="123" y="710"/>
      <point x="122" y="758" type="curve"/>
      <point x="58" y="758" type="line"/>
      <point x="57" y="660"/>
      <point x="96" y="609"/>
    </contour>
  </outline>
</glyph>
<glyph name="dotaccent" format="2">
  <advance width="300"/>
  <unicode hex="02D9"/>
  <outline>
    <contour>
      <point x="148" y="621" type="curve" smooth="yes"/>
      <point x="187" y="621"/>
      <point x="212" y="647"/>
      <point x="212" y="695" type="curve" smooth="yes"/>
      <point x="212" y="745"/>
      <point x="188" y="770"/>
      <point x="148" y="770" type="curve" smooth="yes"/>
      <point x="111" y="770"/>
      <point x="86" y="745"/>
      <point x="86" y="695" type="curve" smooth="yes"/>
      <point x="86" y="646"/>
      <point x="111" y="621"/>
    </contour>
  </outline>
</glyph>
<glyph name="tilde" format="2">
  <advance width="300"/>
  <unicode hex="02DC"/>
  <outline>
    <contour>
      <point x="56" y="610" type="curve"/>
      <point x="112" y="610" type="line"/>
      <point x="115" y="647"/>
      <point x="113" y="665"/>
      <point x="121" y="665" type="curve" smooth="yes"/>
      <point x="132" y="665"/>
      <point x="168" y="611"/>
      <point x="193" y="611" type="curve" smooth="yes"/>
      <point x="223" y="611"/>
      <point x="243" y="657"/>
      <point x="245" y="750" type="curve"/>
      <point x="189" y="750" type="line"/>
      <point x="185" y="714"/>
      <point x="190" y="696"/>
      <point x="181" y="696" type="curve" smooth="yes"/>
      <point x="163" y="696"/>
      <point x="134" y="749"/>
      <point x="107" y="749" type="curve" smooth="yes"/>
      <point x="59" y="749"/>
      <point x="57" y="673"/>
    </contour>
  </outline>
</glyph>
<glyph name="hungarumlaut" format="2">
  <advance width="300"/>
  <unicode hex="02DD"/>
  <outline>
    <contour>
      <point x="144" y="606" type="line"/>
      <point x="196" y="606" type="line"/>
      <point x="218" y="643"/>
      <point x="258" y="715"/>
      <point x="270" y="757" type="curve"/>
      <point x="270" y="766" type="line"/>
      <point x="171" y="766" type="line"/>
      <point x="170" y="738"/>
      <point x="160" y="673"/>
      <point x="144" y="618" type="curve"/>
    </contour>
    <contour>
      <point x="45" y="606" type="line"/>
      <point x="93" y="606" type="line"/>
      <point x="125" y="649"/>
      <point x="157" y="713"/>
      <point x="170" y="757" type="curve"/>
      <point x="170" y="766" type="line"/>
      <point x="72" y="766" type="line"/>
      <point x="70" y="737"/>
      <point x="62" y="675"/>
      <point x="45" y="618" type="curve"/>
    </contour>
  </outline>
</glyph>
<glyph name="rhotichookmod" format="2">
  <advance width="300"/>
  <unicode hex="02DE"/>
  <outline>
    <contour>
      <point x="133" y="188" type="curve" smooth="yes"/>
      <point x="162" y="188"/>
      <point x="190" y="201"/>
      <point x="208" y="224" type="curve"/>
      <point x="176" y="291" type="line"/>
      <point x="170" y="279"/>
      <point x="159" y="272"/>
      <point x="148" y="272" type="curve" smooth="yes"/>
      <point x="129" y="272"/>
      <point x="121" y="293"/>
      <point x="107" y="362" type="curve" smooth="yes"/>
      <point x="97" y="410" type="line"/>
      <point x="-25" y="336" type="line"/>
      <point x="-2" y="257" type="line"/>
      <point x="43" y="305" type="line"/>
      <point x="57" y="224"/>
      <point x="91" y="188"/>
    </contour>
  </outline>
</glyph>
<glyph name="uni02E5" format="2">
  <advance width="300"/>
  <unicode hex="02E5"/>
  <outline>
    <contour>
      <point x="180" y="0" type="line"/>
      <point x="211" y="0" type="line"/>
      <point x="211" y="688" type="line"/>
      <point x="89" y="688" type="line"/>
      <point x="89" y="634" type="line"/>
      <point x="180" y="634" type="line"/>
    </contour>
  </outline>
</glyph>
<glyph name="uni02EA" format="2">
  <advance width="300"/>
  <unicode hex="02EA"/>
  <outline>
    <contour>
      <point x="89" y="166" type="line"/>
      <point x="211" y="166" type="line"/>
      <point x="211" y="221" type="line"/>
      <point x="120" y="221" type="line"/>
      <point x="120" y="528" type="line"/>
      <point x="89" y="528" type="line"/>
    </contour>
  </outline>
</glyph>
<glyph name="uni02F0" format="2">
  <advance width="300"/>
  <unicode hex="02F0"/>
  <outline>
    <contour>
      <point x="63" y="-229" type="line"/>
      <point x="110" y="-229" type="line"/>
      <point x="150" y="-97" type="line"/>
      <point x="190" y="-229" type="line"/>
      <point x="237" y="-229" type="line"/>
      <point x="165" y="-26" type="line"/>
      <point x="134" y="-26" type="line"/>
    </contour>
  </outline>
</glyph>
<glyph name="uni02F2" format="2">
  <advance width="300"/>
  <unicode hex="02F2"/>
  <outline>
    <contour>
      <point x="87" y="-231" type="line"/>
      <point x="213" y="-129" type="line"/>
      <point x="213" y="-88" type="line"/>
      <point x="88" y="14" type="line"/>
      <point x="88" y="-44" type="line"/>
      <point x="156" y="-109" type="line"/>
      <point x="87" y="-173" type="line"/>
    </contour>
  </outline>
</glyph>
<glyph name="uni02FF" format="2">
  <advance width="300"/>
  <unicode hex="02FF"/>
  <outline>
    <contour>
      <point x="167" y="-229" type="line"/>
      <point x="167" y="-177" type="line"/>
      <point x="106" y="-108" type="line"/>
      <point x="266" y="-108" type="line"/>
      <point x="266" y="-57" type="line"/>
      <point x="106" y="-57" type="line"/>
      <point x="167" y="12" type="line"/>
      <point x="167" y="64" type="line"/>
      <point x="34" y="-62" type="line"/>
      <point x="34" y="-103" type="line"/>
    </contour>
  </outline>
</glyph>
<glyph name="dblgravecomb" format="2">
  <unicode hex="030F"/>
  <anchor x="0" y="545" name="_top"/>
  <anchor x="0" y="766" name="top"/>
  <outline>
    <contour>
      <point x="50" y="606" type="curve"/>
      <point x="105" y="606" type="line"/>
      <point x="105" y="619" type="line"/>
      <point x="81" y="676"/>
      <point x="73" y="736"/>
      <point x="69" y="766" type="curve"/>
      <point x="-36" y="766" type="line"/>
      <point x="-36" y="757" type="line"/>
      <point x="-29" y="718"/>
      <point x="9" y="646"/>
    </contour>
    <contour>
      <point x="-68" y="606" type="curve"/>
      <point x="-7" y="606" type="line"/>
      <point x="-7" y="619" type="line"/>
      <point x="-33" y="677"/>
      <point x="-34" y="727"/>
      <point x="-43" y="766" type="curve"/>
      <point x="-150" y="766" type="line"/>
      <point x="-150" y="757" type="line"/>
      <point x="-142" y="719"/>
      <point x="-98" y="643"/>
    </contour>
  </outline>
</glyph>
<glyph name="candraBinducomb" format="2">
  <unicode hex="0310"/>
  <anchor x="0" y="545" name="_top"/>
  <anchor x="0" y="831" name="top"/>
  <outline>
    <contour>
      <point x="-1" y="606" type="curve" smooth="yes"/>
      <point x="68" y="606"/>
      <point x="103" y="668"/>
      <point x="108" y="765" type="curve"/>
      <point x="51" y="765" type="line"/>
      <point x="47" y="711"/>
      <point x="27" y="676"/>
      <point x="-1" y="676" type="curve" smooth="yes"/>
      <point x="-26" y="676"/>
      <point x="-49" y="708"/>
      <point x="-52" y="765" type="curve"/>
      <point x="-108" y="765" type="line"/>
      <point x="-105" y="666"/>
      <point x="-77" y="606"/>
    </contour>
    <contour>
      <point x="-3" y="717" type="curve"/>
      <point x="18" y="717"/>
      <point x="33" y="738"/>
      <point x="33" y="773" type="curve"/>
      <point x="33" y="811"/>
      <point x="18" y="831"/>
      <point x="-3" y="831" type="curve"/>
      <point x="-22" y="831"/>
      <point x="-37" y="812"/>
      <point x="-37" y="773" type="curve"/>
      <point x="-37" y="737"/>
      <point x="-22" y="717"/>
    </contour>
  </outline>
</glyph>
<glyph name="horncomb" format="2">
  <unicode hex="031B"/>
  <outline>
    <contour>
      <point x="-23" y="455" type="line"/>
      <point x="35" y="506"/>
      <point x="57" y="556"/>
      <point x="57" y="625" type="curve" smooth="yes"/>
      <point x="57" y="654"/>
      <point x="55" y="688"/>
      <point x="43" y="734" type="curve"/>
      <point x="37" y="741" type="line"/>
      <point x="-43" y="695" type="line"/>
      <point x="-32" y="656"/>
      <point x="-32" y="631"/>
      <point x="-32" y="611" type="curve" smooth="yes"/>
      <point x="-32" y="570"/>
      <point x="-41" y="546"/>
      <point x="-58" y="526" type="curve"/>
    </contour>
  </outline>
</glyph>
<glyph name="ringhalfleftbelowcomb" format="2">
  <unicode hex="031C"/>
  <anchor x="0" y="0" name="_bottom"/>
  <anchor x="0" y="-237" name="bottom"/>
  <outline>
    <contour>
      <point x="38" y="-237" type="curve"/>
      <point x="38" y="-174" type="line"/>
      <point x="35" y="-174"/>
      <point x="30" y="-157"/>
      <point x="30" y="-127" type="curve"/>
      <point x="30" y="-98"/>
      <point x="38" y="-80"/>
      <point x="38" y="-80" type="curve"/>
      <point x="38" y="-17" type="line"/>
      <point x="-9" y="-17"/>
      <point x="-39" y="-58"/>
      <point x="-39" y="-128" type="curve"/>
      <point x="-39" y="-196"/>
      <point x="-8" y="-237"/>
    </contour>
  </outline>
</glyph>
<glyph name="plusbelowcomb" format="2">
  <unicode hex="031F"/>
  <anchor x="0" y="0" name="_bottom"/>
  <anchor x="0" y="-211" name="bottom"/>
  <outline>
    <contour>
      <point x="-22" y="-211" type="line"/>
      <point x="21" y="-211" type="line"/>
      <point x="21" y="-151" type="line"/>
      <point x="53" y="-151" type="line"/>
      <point x="53" y="-98" type="line"/>
      <point x="21" y="-98" type="line"/>
      <point x="21" y="-38" type="line"/>
      <point x="-22" y="-38" type="line"/>
      <point x="-22" y="-98" type="line"/>
      <point x="-53" y="-98" type="line"/>
      <point x="-53" y="-151" type="line"/>
      <point x="-22" y="-151" type="line"/>
    </contour>
  </outline>
</glyph>
<glyph name="hookretroflexbelowcomb" format="2">
  <unicode hex="0322"/>
  <outline>
    <contour>
      <point x="14" y="-239" type="curve"/>
      <point x="34" y="-239"/>
      <point x="56" y="-234"/>
      <point x="73" y="-227" type="curve"/>
      <point x="73" y="-137" type="line"/>
      <point x="64" y="-141"/>
      <point x="57" y="-146"/>
      <point x="51" y="-146" type="curve"/>
      <point x="35" y="-146"/>
      <point x="25" y="-131"/>
      <point x="25" y="-87" type="curve"/>
      <point x="25" y="49" type="line"/>
      <point x="-73" y="49" type="line"/>
      <point x="-73" y="-99" type="line" smooth="yes"/>
      <point x="-73" y="-200"/>
      <point x="-31" y="-239"/>
    </contour>
  </outline>
</glyph>
<glyph name="commaaccent" format="2">
  <unicode hex="0326"/>
  <anchor x="0" y="0" name="_bottom"/>
  <anchor x="0" y="-221" name="bottom"/>
  <outline>
    <contour>
      <point x="-61" y="-221" type="line"/>
      <point x="10" y="-221" type="line"/>
      <point x="27" y="-179"/>
      <point x="46" y="-116"/>
      <point x="54" y="-69" type="curve"/>
      <point x="54" y="-61" type="line"/>
      <point x="-54" y="-61" type="line"/>
      <point x="-54" y="-102"/>
      <point x="-58" y="-177"/>
      <point x="-61" y="-212" type="curve"/>
    </contour>
  </outline>
</glyph>
<glyph name="tildeverticalcomb" format="2">
  <unicode hex="033E"/>
  <anchor x="0" y="545" name="_top"/>
  <anchor x="0" y="866" name="top"/>
  <outline>
    <contour>
      <point x="-32" y="576" type="line"/>
      <point x="10" y="579"/>
      <point x="33" y="612"/>
      <point x="33" y="661" type="curve" smooth="yes"/>
      <point x="33" y="715"/>
      <point x="17" y="749"/>
      <point x="17" y="781" type="curve" smooth="yes"/>
      <point x="17" y="804"/>
      <point x="19" y="818"/>
      <point x="32" y="820" type="curve"/>
      <point x="32" y="866" type="line"/>
      <point x="-11" y="863"/>
      <point x="-33" y="831"/>
      <point x="-33" y="784" type="curve"/>
      <point x="-33" y="731"/>
      <point x="-17" y="699"/>
      <point x="-17" y="662" type="curve" smooth="yes"/>
      <point x="-17" y="640"/>
      <point x="-22" y="624"/>
      <point x="-32" y="621" type="curve"/>
    </contour>
  </outline>
</glyph>
<glyph name="nottildeabovecomb" format="2">
  <unicode hex="034A"/>
  <anchor x="0" y="545" name="_top"/>
  <anchor x="0" y="765" name="top"/>
  <outline>
    <contour>
      <point x="-1" y="565" type="line"/>
      <point x="6" y="627" type="line"/>
      <point x="16" y="617"/>
      <point x="26" y="608"/>
      <point x="33" y="608" type="curve"/>
      <point x="74" y="608"/>
      <point x="84" y="658"/>
      <point x="89" y="726" type="curve"/>
      <point x="46" y="726" type="line"/>
      <point x="43" y="690"/>
      <point x="43" y="668"/>
      <point x="34" y="668" type="curve"/>
      <point x="34" y="668"/>
      <point x="31" y="671"/>
      <point x="29" y="679" type="curve"/>
      <point x="38" y="744" type="line"/>
      <point x="2" y="765" type="line"/>
      <point x="-4" y="706" type="line"/>
      <point x="-12" y="717"/>
      <point x="-21" y="725"/>
      <point x="-32" y="725" type="curve"/>
      <point x="-72" y="725"/>
      <point x="-86" y="672"/>
      <point x="-89" y="607" type="curve"/>
      <point x="-47" y="607" type="line"/>
      <point x="-42" y="646"/>
      <point x="-42" y="665"/>
      <point x="-31" y="665" type="curve"/>
      <point x="-31" y="665"/>
      <point x="-30" y="661"/>
      <point x="-26" y="654" type="curve"/>
      <point x="-36" y="586" type="line"/>
    </contour>
  </outline>
</glyph>
<glyph name="homotheticabovecomb" format="2">
  <unicode hex="034B"/>
  <anchor x="0" y="525" name="_top"/>
  <anchor x="0" y="935" name="top"/>
  <outline>
    <contour>
      <point x="-90" y="688" type="curve"/>
      <point x="-39" y="688" type="line"/>
      <point x="-38" y="721"/>
      <point x="-34" y="734"/>
      <point x="-33" y="734" type="curve"/>
      <point x="-18" y="734"/>
      <point x="18" y="689"/>
      <point x="35" y="689" type="curve" smooth="yes"/>
      <point x="66" y="689"/>
      <point x="87" y="729"/>
      <point x="90" y="812" type="curve"/>
      <point x="39" y="812" type="line"/>
      <point x="39" y="779"/>
      <point x="33" y="766"/>
      <point x="34" y="766" type="curve" smooth="yes"/>
      <point x="19" y="766"/>
      <point x="-19" y="811"/>
      <point x="-31" y="811" type="curve" smooth="yes"/>
      <point x="-68" y="811"/>
      <point x="-88" y="769"/>
    </contour>
    <contour>
      <point x="2" y="565" type="curve" smooth="yes"/>
      <point x="22" y="565"/>
      <point x="37" y="584"/>
      <point x="37" y="617" type="curve" smooth="yes"/>
      <point x="37" y="652"/>
      <point x="21" y="670"/>
      <point x="2" y="670" type="curve" smooth="yes"/>
      <point x="-17" y="670"/>
      <point x="-32" y="653"/>
      <point x="-32" y="617" type="curve" smooth="yes"/>
      <point x="-32" y="583"/>
      <point x="-17" y="565"/>
    </contour>
    <contour>
      <point x="2" y="830" type="curve" smooth="yes"/>
      <point x="22" y="830"/>
      <point x="37" y="848"/>
      <point x="37" y="882" type="curve" smooth="yes"/>
      <point x="37" y="917"/>
      <point x="21" y="935"/>
      <point x="2" y="935" type="curve" smooth="yes"/>
      <point x="-17" y="935"/>
      <point x="-32" y="917"/>
      <point x="-32" y="882" type="curve" smooth="yes"/>
      <point x="-32" y="847"/>
      <point x="-17" y="830"/>
    </contour>
  </outline>
</glyph>
<glyph name="almostequaltoabovecomb" format="2">
  <unicode hex="034C"/>
  <anchor x="0" y="545" name="_top"/>
  <anchor x="0" y="854" name="top"/>
  <outline>
    <contour>
      <point x="29" y="746" type="curve" smooth="yes"/>
      <point x="68" y="746"/>
      <point x="77" y="789"/>
      <point x="81" y="853" type="curve"/>
      <point x="38" y="853" type="line"/>
      <point x="37" y="822"/>
      <point x="38" y="808"/>
      <point x="30" y="808" type="curve" smooth="yes"/>
      <point x="20" y="808"/>
      <point x="-1" y="854"/>
      <point x="-28" y="854" type="curve" smooth="yes"/>
      <point x="-67" y="854"/>
      <point x="-79" y="809"/>
      <point x="-81" y="747" type="curve"/>
      <point x="-39" y="747" type="line"/>
      <point x="-35" y="780"/>
      <point x="-37" y="792"/>
      <point x="-26" y="792" type="curve" smooth="yes"/>
      <point x="-20" y="792"/>
      <point x="6" y="746"/>
    </contour>
    <contour>
      <point x="29" y="613" type="curve" smooth="yes"/>
      <point x="68" y="613"/>
      <point x="77" y="657"/>
      <point x="81" y="721" type="curve"/>
      <point x="38" y="721" type="line"/>
      <point x="37" y="689"/>
      <point x="38" y="675"/>
      <point x="30" y="675" type="curve" smooth="yes"/>
      <point x="20" y="675"/>
      <point x="-1" y="721"/>
      <point x="-28" y="721" type="curve" smooth="yes"/>
      <point x="-67" y="721"/>
      <point x="-79" y="677"/>
      <point x="-81" y="615" type="curve"/>
      <point x="-39" y="615" type="line"/>
      <point x="-35" y="647"/>
      <point x="-37" y="659"/>
      <point x="-26" y="659" type="curve" smooth="yes"/>
      <point x="-20" y="659"/>
      <point x="6" y="613"/>
    </contour>
  </outline>
</glyph>
<glyph name="arrowheadrightabovecomb" format="2">
  <unicode hex="0350"/>
  <anchor x="0" y="545" name="_top"/>
  <anchor x="0" y="794" name="top"/>
  <outline>
    <contour>
      <point x="-41" y="590" type="line"/>
      <point x="-36" y="590" type="line"/>
      <point x="-14" y="619"/>
      <point x="17" y="650"/>
      <point x="41" y="664" type="curve"/>
      <point x="41" y="718" type="line"/>
      <point x="17" y="734"/>
      <point x="-25" y="771"/>
      <point x="-36" y="794" type="curve"/>
      <point x="-41" y="794" type="line"/>
      <point x="-41" y="750" type="line"/>
      <point x="-30" y="730"/>
      <point x="-21" y="712"/>
      <point x="-2" y="691" type="curve"/>
      <point x="-20" y="672"/>
      <point x="-31" y="654"/>
      <point x="-41" y="634" type="curve"/>
    </contour>
  </outline>
</glyph>
<glyph name="arrowheadrightbelowcomb" format="2">
  <unicode hex="0355"/>
  <anchor x="0" y="0" name="_bottom"/>
  <anchor x="0" y="-240" name="bottom"/>
  <outline>
    <contour>
      <point x="-41" y="-240" type="line"/>
      <point x="-35" y="-240" type="line"/>
      <point x="-14" y="-212"/>
      <point x="17" y="-182"/>
      <point x="41" y="-169" type="curve"/>
      <point x="41" y="-113" type="line"/>
      <point x="17" y="-97"/>
      <point x="-25" y="-62"/>
      <point x="-35" y="-40" type="curve"/>
      <point x="-41" y="-40" type="line"/>
      <point x="-41" y="-83" type="line"/>
      <point x="-30" y="-103"/>
      <point x="-21" y="-120"/>
      <point x="-2" y="-140" type="curve"/>
      <point x="-20" y="-159"/>
      <point x="-31" y="-177"/>
      <point x="-41" y="-197" type="curve"/>
    </contour>
  </outline>
</glyph>
<glyph name="asteriskbelowcomb" format="2">
  <unicode hex="0359"/>
  <anchor x="0" y="0" name="_bottom"/>
  <anchor x="0" y="-234" name="bottom"/>
  <outline>
    <contour>
      <point x="-13" y="-234" type="line"/>
      <point x="0" y="-173" type="line"/>
      <point x="14" y="-234" type="line"/>
      <point x="58" y="-194" type="line"/>
      <point x="26" y="-150" type="line"/>
      <point x="67" y="-140" type="line"/>
      <point x="49" y="-79" type="line"/>
      <point x="16" y="-112" type="line"/>
      <point x="26" y="-45" type="line"/>
      <point x="-27" y="-45" type="line"/>
      <point x="-16" y="-112" type="line"/>
      <point x="-49" y="-79" type="line"/>
      <point x="-67" y="-140" type="line"/>
      <point x="-26" y="-150" type="line"/>
      <point x="-58" y="-194" type="line"/>
    </contour>
  </outline>
</glyph>
<glyph name="zigzagabovecomb" format="2">
  <unicode hex="035B"/>
  <anchor x="0" y="545" name="_top"/>
  <anchor x="0" y="790" name="top"/>
  <outline>
    <contour>
      <point x="6" y="583" type="line"/>
      <point x="50" y="583" type="line"/>
      <point x="68" y="712" type="line"/>
      <point x="-15" y="712" type="line"/>
      <point x="-7" y="790" type="line"/>
      <point x="-51" y="790" type="line"/>
      <point x="-68" y="661" type="line"/>
      <point x="15" y="661" type="line"/>
    </contour>
  </outline>
</glyph>
<glyph name="doublebrevebelowcomb" format="2">
  <unicode hex="035C"/>
  <anchor x="0" y="0" name="_bottom"/>
  <anchor x="0" y="-237" name="bottom"/>
  <outline>
    <contour>
      <point x="3" y="-237" type="curve"/>
      <point x="95" y="-237"/>
      <point x="163" y="-180"/>
      <point x="199" y="-42" type="curve"/>
      <point x="124" y="-42" type="line"/>
      <point x="91" y="-113"/>
      <point x="49" y="-146"/>
      <point x="3" y="-146" type="curve"/>
      <point x="-59" y="-146"/>
      <point x="-99" y="-105"/>
      <point x="-125" y="-42" type="curve"/>
      <point x="-200" y="-42" type="line"/>
      <point x="-180" y="-170"/>
      <point x="-116" y="-237"/>
    </contour>
  </outline>
</glyph>
<glyph name="tildedoublecomb" format="2">
  <unicode hex="0360"/>
  <anchor x="0" y="545" name="_top"/>
  <anchor x="0" y="753" name="top"/>
  <outline>
    <contour>
      <point x="-199" y="607" type="curve"/>
      <point x="-138" y="607" type="line"/>
      <point x="-136" y="647"/>
      <point x="-125" y="664"/>
      <point x="-113" y="664" type="curve" smooth="yes"/>
      <point x="-40" y="664"/>
      <point x="21" y="608"/>
      <point x="92" y="608" type="curve" smooth="yes"/>
      <point x="156" y="608"/>
      <point x="197" y="654"/>
      <point x="198" y="753" type="curve"/>
      <point x="138" y="753" type="line"/>
      <point x="137" y="718"/>
      <point x="131" y="697"/>
      <point x="115" y="697" type="curve" smooth="yes"/>
      <point x="34" y="697"/>
      <point x="-16" y="752"/>
      <point x="-101" y="752" type="curve" smooth="yes"/>
      <point x="-156" y="752"/>
      <point x="-197" y="707"/>
    </contour>
  </outline>
</glyph>
<glyph name="breveinverteddoublecomb" format="2">
  <unicode hex="0361"/>
  <anchor x="0" y="630" name="_top"/>
  <anchor x="0" y="867" name="top"/>
  <outline>
    <contour>
      <point x="-200" y="672" type="curve"/>
      <point x="-125" y="672" type="line"/>
      <point x="-95" y="742"/>
      <point x="-55" y="776"/>
      <point x="-1" y="776" type="curve"/>
      <point x="52" y="776"/>
      <point x="97" y="735"/>
      <point x="124" y="672" type="curve"/>
      <point x="199" y="672" type="line"/>
      <point x="175" y="799"/>
      <point x="113" y="867"/>
      <point x="-1" y="867" type="curve"/>
      <point x="-98" y="867"/>
      <point x="-168" y="810"/>
    </contour>
  </outline>
</glyph>
<glyph name="Heta" format="2">
  <advance width="300"/>
  <unicode hex="0370"/>
  <anchor x="150" y="0" name="bottom"/>
  <anchor x="150" y="714" name="top"/>
  <outline>
    <contour>
      <point x="63" y="0" type="line"/>
      <point x="189" y="0" type="line"/>
      <point x="189" y="317" type="line"/>
      <point x="236" y="317" type="line"/>
      <point x="236" y="428" type="line"/>
      <point x="189" y="428" type="line"/>
      <point x="189" y="714" type="line"/>
      <point x="63" y="714" type="line"/>
    </contour>
  </outline>
</glyph>
<glyph name="heta" format="2">
  <advance width="300"/>
  <unicode hex="0371"/>
  <anchor x="150" y="0" name="bottom"/>
  <anchor x="150" y="545" name="top"/>
  <outline>
    <contour>
      <point x="74" y="0" type="line"/>
      <point x="194" y="0" type="line"/>
      <point x="194" y="230" type="line"/>
      <point x="225" y="230" type="line"/>
      <point x="225" y="333" type="line"/>
      <point x="194" y="333" type="line"/>
      <point x="194" y="545" type="line"/>
      <point x="74" y="545" type="line"/>
    </contour>
  </outline>
</glyph>
<glyph name="Archaicsampi" format="2">
  <advance width="300"/>
  <unicode hex="0372"/>
  <anchor x="150" y="0" name="bottom"/>
  <anchor x="150" y="714" name="top"/>
  <anchor x="288" y="714" name="topright"/>
  <anchor x="160" y="357" name="center"/>
  <outline>
    <contour>
      <point x="211" y="439" type="line"/>
      <point x="282" y="439" type="line"/>
      <point x="282" y="714" type="line"/>
      <point x="211" y="714" type="line"/>
    </contour>
    <contour>
      <point x="18" y="439" type="line"/>
      <point x="89" y="439" type="line"/>
      <point x="89" y="714" type="line"/>
      <point x="18" y="714" type="line"/>
    </contour>
    <component base="T" xOffset="10"/>
  </outline>
</glyph>
<glyph name="uni0375" format="2">
  <advance width="300"/>
  <unicode hex="0375"/>
  <outline>
    <contour>
      <point x="97" y="-220" type="line"/>
      <point x="183" y="-220" type="line"/>
      <point x="185" y="-174"/>
      <point x="196" y="-117"/>
      <point x="203" y="-72" type="curve"/>
      <point x="203" y="-60" type="line"/>
      <point x="157" y="-60" type="line"/>
      <point x="133" y="-96"/>
      <point x="112" y="-159"/>
      <point x="97" y="-210" type="curve"/>
    </contour>
  </outline>
</glyph>
<glyph name="Epsilontonos" format="2">
  <advance width="300"/>
  <unicode hex="0388"/>
  <anchor x="193" y="0" name="bottom"/>
  <anchor x="190" y="714" name="top"/>
  <anchor x="59" y="714" name="topleft"/>
  <outline>
    <contour>
      <point x="79" y="0" type="line"/>
      <point x="285" y="0" type="line"/>
      <point x="285" y="109" type="line"/>
      <point x="196" y="109" type="line"/>
      <point x="196" y="312" type="line"/>
      <point x="276" y="312" type="line"/>
      <point x="276" y="421" type="line"/>
      <point x="196" y="421" type="line"/>
      <point x="196" y="605" type="line"/>
      <point x="285" y="605" type="line"/>
      <point x="285" y="714" type="line"/>
      <point x="79" y="714" type="line"/>
    </contour>
    <component base="tonos" xOffset="-133"/>
  </outline>
</glyph>
<glyph name="Etatonos" format="2">
  <advance width="300"/>
  <unicode hex="0389"/>
  <anchor x="171" y="0" name="bottom"/>
  <anchor x="171" y="375" name="center"/>
  <anchor x="171" y="714" name="top"/>
  <anchor x="42" y="714" name="topleft"/>
  <outline>
    <contour>
      <point x="52" y="0" type="line"/>
      <point x="168" y="0" type="line"/>
      <point x="168" y="314" type="line"/>
      <point x="172" y="314" type="line"/>
      <point x="172" y="0" type="line"/>
      <point x="288" y="0" type="line"/>
      <point x="288" y="714" type="line"/>
      <point x="172" y="714" type="line"/>
      <point x="172" y="423" type="line"/>
      <point x="168" y="423" type="line"/>
      <point x="168" y="714" type="line"/>
      <point x="52" y="714" type="line"/>
    </contour>
    <component base="tonos" xOffset="-150"/>
  </outline>
</glyph>
<glyph name="Upsilontonos" format="2">
  <advance width="300"/>
  <unicode hex="038E"/>
  <anchor x="168" y="0" name="bottom"/>
  <anchor x="168" y="714" name="top"/>
  <outline>
    <contour>
      <point x="111" y="0" type="line"/>
      <point x="223" y="0" type="line"/>
      <point x="223" y="275" type="line"/>
      <point x="289" y="714" type="line"/>
      <point x="166" y="714" type="line"/>
      <point x="168" y="398" type="line"/>
      <point x="170" y="714" type="line"/>
      <point x="46" y="714" type="line"/>
      <point x="111" y="275" type="line"/>
    </contour>
    <component base="tonos" xOffset="-145"/>
  </outline>
</glyph>
<glyph name="Gamma" format="2">
  <advance width="300"/>
  <unicode hex="0393"/>
  <anchor x="166" y="0" name="bottom"/>
  <anchor x="166" y="714" name="top"/>
  <outline>
    <contour>
      <point x="32" y="0" type="line"/>
      <point x="148" y="0" type="line"/>
      <point x="148" y="610" type="line"/>
      <point x="285" y="610" type="line"/>
      <point x="285" y="714" type="line"/>
      <point x="32" y="714" type="line"/>
    </contour>
  </outline>
</glyph>
<glyph name="Delta" format="2">
  <advance width="300"/>
  <unicode hex="0394"/>
  <anchor x="150" y="0" name="bottom"/>
  <anchor x="150" y="714" name="top"/>
  <outline>
    <contour>
      <point x="14" y="0" type="line"/>
      <point x="286" y="0" type="line"/>
      <point x="286" y="63" type="line"/>
      <point x="210" y="714" type="line"/>
      <point x="90" y="714" type="line"/>
      <point x="14" y="67" type="line"/>
    </contour>
    <contour>
      <point x="118" y="88" type="line"/>
      <point x="143" y="494" type="line" smooth="yes"/>
      <point x="145" y="532"/>
      <point x="148" y="581"/>
      <point x="149" y="621" type="curve"/>
      <point x="152" y="581"/>
      <point x="153" y="533"/>
      <point x="156" y="494" type="curve" smooth="yes"/>
      <point x="182" y="87" type="line"/>
    </contour>
  </outline>
</glyph>
<glyph name="Xi" format="2">
  <advance width="300"/>
  <unicode hex="039E"/>
  <anchor x="150" y="0" name="bottom"/>
  <anchor x="150" y="714" name="top"/>
  <outline>
    <contour>
      <point x="16" y="0" type="line"/>
      <point x="288" y="0" type="line"/>
      <point x="288" y="106" type="line"/>
      <point x="16" y="106" type="line"/>
    </contour>
    <contour>
      <point x="41" y="322" type="line"/>
      <point x="264" y="322" type="line"/>
      <point x="264" y="426" type="line"/>
      <point x="41" y="426" type="line"/>
    </contour>
    <contour>
      <point x="24" y="610" type="line"/>
      <point x="280" y="610" type="line"/>
      <point x="280" y="714" type="line"/>
      <point x="24" y="714" type="line"/>
    </contour>
  </outline>
</glyph>
<glyph name="Pi" format="2">
  <advance width="300"/>
  <unicode hex="03A0"/>
  <anchor x="150" y="0" name="bottom"/>
  <anchor x="150" y="714" name="top"/>
  <outline>
    <contour>
      <point x="14" y="0" type="line"/>
      <point x="130" y="0" type="line"/>
      <point x="130" y="610" type="line"/>
      <point x="171" y="610" type="line"/>
      <point x="171" y="0" type="line"/>
      <point x="286" y="0" type="line"/>
      <point x="286" y="714" type="line"/>
      <point x="14" y="714" type="line"/>
    </contour>
  </outline>
</glyph>
